Kablammov0.9-SemichaoticLight.ufo
<glyph name="exclam" format="2">
  <advance width="264"/>
  <unicode hex="0021"/>
  <outline>
    <contour>
      <point x="121" y="231" type="line" smooth="yes"/>
      <point x="122" y="215"/>
      <point x="140" y="214"/>
      <point x="142" y="230" type="curve" smooth="yes"/>
      <point x="188" y="660" type="line" smooth="yes"/>
      <point x="196" y="734"/>
      <point x="82" y="735"/>
      <point x="88" y="661" type="curve" smooth="yes"/>
    </contour>
    <contour>
      <point x="126" y="-10" type="curve" smooth="yes"/>
      <point x="157" y="-10"/>
      <point x="183" y="15"/>
      <point x="183" y="48" type="curve" smooth="yes"/>
      <point x="183" y="79"/>
      <point x="157" y="105"/>
      <point x="126" y="105" type="curve" smooth="yes"/>
      <point x="93" y="105"/>
      <point x="66" y="79"/>
      <point x="66" y="48" type="curve" smooth="yes"/>
      <point x="66" y="15"/>
      <point x="93" y="-10"/>
    </contour>
    <contour>
      <point x="65" y="582" type="line" smooth="yes"/>
      <point x="45" y="584"/>
      <point x="43" y="556"/>
      <point x="62" y="555" type="curve" smooth="yes"/>
      <point x="195" y="540" type="line" smooth="yes"/>
      <point x="213" y="539"/>
      <point x="216" y="561"/>
      <point x="197" y="563" type="curve" smooth="yes"/>
    </contour>
    <contour>
      <point x="83" y="456" type="line" smooth="yes"/>
      <point x="64" y="456"/>
      <point x="65" y="428"/>
      <point x="82" y="428" type="curve" smooth="yes"/>
      <point x="186" y="431" type="line" smooth="yes"/>
      <point x="204" y="431"/>
      <point x="204" y="460"/>
      <point x="185" y="460" type="curve" smooth="yes"/>
    </contour>
    <contour>
      <point x="87" y="517" type="line" smooth="yes"/>
      <point x="63" y="515"/>
      <point x="64" y="489"/>
      <point x="86" y="489" type="curve" smooth="yes"/>
      <point x="138" y="492" type="line"/>
      <point x="133" y="521" type="line"/>
    </contour>
    <contour>
      <point x="194" y="349" type="curve" smooth="yes"/>
      <point x="131" y="354" type="line"/>
      <point x="126" y="330" type="line"/>
      <point x="194" y="321" type="line" smooth="yes"/>
      <point x="211" y="318"/>
      <point x="212" y="348"/>
    </contour>
  </outline>
</glyph>
<glyph name="quotedbl" format="2">
  <advance width="252"/>
  <unicode hex="0022"/>
  <outline>
    <contour>
      <point x="54" y="455" type="line" smooth="yes"/>
      <point x="55" y="436"/>
      <point x="80" y="436"/>
      <point x="81" y="455" type="curve" smooth="yes"/>
      <point x="92" y="687" type="line" smooth="yes"/>
      <point x="93" y="716"/>
      <point x="48" y="717"/>
      <point x="49" y="687" type="curve" smooth="yes"/>
    </contour>
    <contour>
      <point x="168" y="469" type="line" smooth="yes"/>
      <point x="169" y="450"/>
      <point x="194" y="450"/>
      <point x="195" y="469" type="curve" smooth="yes"/>
      <point x="203" y="687" type="line" smooth="yes"/>
      <point x="205" y="716"/>
      <point x="158" y="717"/>
      <point x="160" y="687" type="curve" smooth="yes"/>
    </contour>
    <contour>
      <point x="49.003" y="657.001" type="line"/>
      <point x="49.003" y="657.001" type="line"/>
      <point x="49.003" y="657.001"/>
      <point x="50" y="612"/>
      <point x="50" y="612" type="curve"/>
      <point x="50" y="612" type="line"/>
    </contour>
    <contour>
      <point x="160" y="662" type="line"/>
      <point x="160" y="662" type="line"/>
      <point x="160" y="662"/>
      <point x="162" y="616"/>
      <point x="162" y="616" type="curve"/>
      <point x="162" y="616" type="line"/>
    </contour>
    <contour>
      <point x="164" y="572" type="line"/>
      <point x="164" y="572" type="line"/>
      <point x="164" y="572"/>
      <point x="166" y="529"/>
      <point x="166" y="529" type="curve"/>
      <point x="166" y="529" type="line"/>
    </contour>
  </outline>
</glyph>
<glyph name="numbersign" format="2">
  <advance width="692"/>
  <unicode hex="0023"/>
  <outline>
    <contour>
      <point x="311" y="700" type="curve" smooth="yes"/>
      <point x="135" y="2" type="line" smooth="yes"/>
      <point x="130" y="-16"/>
      <point x="155" y="-23"/>
      <point x="161" y="0" type="curve" smooth="yes"/>
      <point x="346" y="696" type="line" smooth="yes"/>
      <point x="352" y="717"/>
      <point x="318" y="728"/>
    </contour>
    <contour>
      <point x="527" y="682" type="curve" smooth="yes"/>
      <point x="358" y="13" type="line" smooth="yes"/>
      <point x="351" y="-16"/>
      <point x="386" y="-22"/>
      <point x="393" y="8" type="curve" smooth="yes"/>
      <point x="553" y="678" type="line" smooth="yes"/>
      <point x="558" y="701"/>
      <point x="533" y="705"/>
    </contour>
    <contour>
      <point x="105" y="481" type="line" smooth="yes"/>
      <point x="80" y="481"/>
      <point x="79" y="453"/>
      <point x="105" y="453" type="curve" smooth="yes"/>
      <point x="649" y="454" type="line" smooth="yes"/>
      <point x="678" y="454"/>
      <point x="679" y="486"/>
      <point x="649" y="485" type="curve" smooth="yes"/>
    </contour>
    <contour>
      <point x="43" y="255" type="line" smooth="yes"/>
      <point x="19" y="257"/>
      <point x="16" y="226"/>
      <point x="41" y="224" type="curve" smooth="yes"/>
      <point x="600" y="197" type="line" smooth="yes"/>
      <point x="624" y="196"/>
      <point x="626" y="221"/>
      <point x="601" y="223" type="curve" smooth="yes"/>
    </contour>
  </outline>
</glyph>
<glyph name="dollar" format="2">
  <advance width="466"/>
  <unicode hex="0024"/>
  <outline>
    <contour>
      <point x="233" y="35" type="curve" smooth="yes"/>
      <point x="339" y="35"/>
      <point x="420" y="88"/>
      <point x="420" y="209" type="curve" smooth="yes"/>
      <point x="420" y="280"/>
      <point x="378" y="324"/>
      <point x="303" y="356" type="curve" smooth="yes"/>
      <point x="202" y="396" type="line" smooth="yes"/>
      <point x="141" y="422"/>
      <point x="116" y="453"/>
      <point x="116" y="508" type="curve" smooth="yes"/>
      <point x="116" y="571"/>
      <point x="159" y="615"/>
      <point x="241" y="615" type="curve" smooth="yes"/>
      <point x="313" y="615"/>
      <point x="342" y="575"/>
      <point x="376" y="575" type="curve" smooth="yes"/>
      <point x="393" y="575"/>
      <point x="402" y="584"/>
      <point x="402" y="600" type="curve" smooth="yes"/>
      <point x="402" y="627"/>
      <point x="330" y="667"/>
      <point x="254" y="667" type="curve" smooth="yes"/>
      <point x="146" y="667"/>
      <point x="59" y="609"/>
      <point x="59" y="503" type="curve" smooth="yes"/>
      <point x="59" y="405"/>
      <point x="121" y="371"/>
      <point x="180" y="353" type="curve" smooth="yes"/>
      <point x="291" y="322" type="line" smooth="yes"/>
      <point x="358" y="303"/>
      <point x="392" y="256"/>
      <point x="392" y="204" type="curve" smooth="yes"/>
      <point x="392" y="130"/>
      <point x="342" y="86"/>
      <point x="247" y="86" type="curve" smooth="yes"/>
      <point x="140" y="86"/>
      <point x="97" y="142"/>
      <point x="67" y="142" type="curve" smooth="yes"/>
      <point x="54" y="142"/>
      <point x="46" y="133"/>
      <point x="46" y="118" type="curve" smooth="yes"/>
      <point x="46" y="87"/>
      <point x="133" y="35"/>
    </contour>
    <contour>
      <point x="276" y="499" type="curve" smooth="yes"/>
      <point x="303" y="752" type="line" smooth="yes"/>
      <point x="305" y="772"/>
      <point x="281" y="774"/>
      <point x="279" y="756" type="curve" smooth="yes"/>
      <point x="253" y="504" type="line" smooth="yes"/>
      <point x="251" y="485"/>
      <point x="274" y="481"/>
    </contour>
    <contour>
      <point x="214" y="220" type="curve" smooth="yes"/>
      <point x="184" y="-72" type="line" smooth="yes"/>
      <point x="182" y="-90"/>
      <point x="206" y="-93"/>
      <point x="208" y="-76" type="curve" smooth="yes"/>
      <point x="238" y="217" type="line" smooth="yes"/>
      <point x="240" y="234"/>
      <point x="216" y="238"/>
    </contour>
    <contour>
      <point x="119" y="563" type="curve" smooth="yes"/>
      <point x="112" y="563"/>
      <point x="107" y="568"/>
      <point x="107" y="575" type="curve" smooth="yes"/>
      <point x="107" y="581"/>
      <point x="112" y="587"/>
      <point x="119" y="587" type="curve" smooth="yes"/>
      <point x="125" y="587"/>
      <point x="131" y="581"/>
      <point x="131" y="575" type="curve" smooth="yes"/>
      <point x="131" y="568"/>
      <point x="125" y="563"/>
    </contour>
    <contour>
      <point x="92" y="481" type="curve" smooth="yes"/>
      <point x="84" y="481"/>
      <point x="78" y="487"/>
      <point x="78" y="494" type="curve" smooth="yes"/>
      <point x="78" y="501"/>
      <point x="84" y="507"/>
      <point x="92" y="507" type="curve" smooth="yes"/>
      <point x="99" y="507"/>
      <point x="105" y="501"/>
      <point x="105" y="494" type="curve" smooth="yes"/>
      <point x="105" y="487"/>
      <point x="99" y="481"/>
    </contour>
    <contour>
      <point x="240" y="162" type="line" smooth="yes"/>
      <point x="246" y="149"/>
      <point x="265" y="157"/>
      <point x="259" y="171" type="curve" smooth="yes"/>
      <point x="242" y="221" type="line" smooth="yes"/>
      <point x="237" y="233"/>
      <point x="218" y="225"/>
      <point x="224" y="213" type="curve" smooth="yes"/>
    </contour>
    <contour>
      <point x="91" y="50" type="line" smooth="yes"/>
      <point x="78" y="20"/>
      <point x="112" y="5"/>
      <point x="127" y="34" type="curve" smooth="yes"/>
      <point x="150" y="91" type="line"/>
      <point x="115" y="110" type="line"/>
    </contour>
  </outline>
</glyph>
<glyph name="percent" format="2">
  <advance width="673"/>
  <unicode hex="0025"/>
  <outline>
    <contour>
      <point x="166" y="399" type="curve" smooth="yes"/>
      <point x="242" y="399"/>
      <point x="286" y="449"/>
      <point x="286" y="549" type="curve" smooth="yes"/>
      <point x="286" y="652"/>
      <point x="247" y="706"/>
      <point x="174" y="706" type="curve" smooth="yes"/>
      <point x="96" y="706"/>
      <point x="54" y="651"/>
      <point x="54" y="546" type="curve" smooth="yes"/>
      <point x="54" y="450"/>
      <point x="93" y="399"/>
    </contour>
    <contour>
      <point x="169" y="441" type="curve" smooth="yes"/>
      <point x="111" y="441"/>
      <point x="80" y="478"/>
      <point x="80" y="543" type="curve" smooth="yes"/>
      <point x="80" y="613"/>
      <point x="110" y="652"/>
      <point x="172" y="652" type="curve" smooth="yes"/>
      <point x="231" y="652"/>
      <point x="261" y="616"/>
      <point x="261" y="552" type="curve" smooth="yes"/>
      <point x="261" y="481"/>
      <point x="230" y="441"/>
    </contour>
    <contour>
      <point x="604" y="657" type="curve" smooth="yes"/>
      <point x="65" y="70" type="line" smooth="yes"/>
      <point x="52" y="56"/>
      <point x="67" y="38"/>
      <point x="82" y="54" type="curve" smooth="yes"/>
      <point x="625" y="637" type="line" smooth="yes"/>
      <point x="640" y="653"/>
      <point x="619" y="673"/>
    </contour>
    <contour>
      <point x="500" y="-7" type="curve" smooth="yes"/>
      <point x="580" y="-7"/>
      <point x="623" y="42.005"/>
      <point x="623" y="141.008" type="curve" smooth="yes"/>
      <point x="623" y="244.002"/>
      <point x="582" y="296"/>
      <point x="508" y="296" type="curve" smooth="yes"/>
      <point x="438" y="296"/>
      <point x="389" y="245"/>
      <point x="389" y="143" type="curve" smooth="yes"/>
      <point x="389" y="42"/>
      <point x="430" y="-7"/>
    </contour>
    <contour>
      <point x="502" y="47" type="curve" smooth="yes"/>
      <point x="443" y="47"/>
      <point x="415" y="84"/>
      <point x="415" y="145" type="curve" smooth="yes"/>
      <point x="415" y="214"/>
      <point x="445" y="253"/>
      <point x="506" y="253" type="curve" smooth="yes"/>
      <point x="565" y="253"/>
      <point x="597" y="212"/>
      <point x="597" y="141" type="curve" smooth="yes"/>
      <point x="597" y="81"/>
      <point x="564" y="47"/>
    </contour>
    <contour>
      <point x="570" y="-31" type="line" smooth="yes"/>
      <point x="581" y="-56"/>
      <point x="608" y="-46"/>
      <point x="598" y="-18" type="curve" smooth="yes"/>
      <point x="575" y="50" type="line"/>
      <point x="546" y="32" type="line"/>
    </contour>
    <contour>
      <point x="393" y="27" type="line" smooth="yes"/>
      <point x="381" y="11"/>
      <point x="402" y="-9"/>
      <point x="415" y="8" type="curve" smooth="yes"/>
      <point x="440" y="41" type="line"/>
      <point x="421" y="63" type="line"/>
    </contour>
    <contour>
      <point x="124" y="726" type="line" smooth="yes"/>
      <point x="119" y="748"/>
      <point x="85" y="738"/>
      <point x="93.993" y="717.005" type="curve" smooth="yes"/>
      <point x="113" y="665" type="line"/>
      <point x="135" y="675" type="line"/>
    </contour>
    <contour>
      <point x="331" y="631" type="line" smooth="yes"/>
      <point x="345" y="638"/>
      <point x="333" y="665"/>
      <point x="318" y="659" type="curve" smooth="yes"/>
      <point x="248" y="629" type="line"/>
      <point x="261" y="599" type="line"/>
    </contour>
    <contour>
      <point x="74" y="398" type="line" smooth="yes"/>
      <point x="66" y="383"/>
      <point x="87" y="367"/>
      <point x="95" y="384" type="curve" smooth="yes"/>
      <point x="118" y="433" type="line"/>
      <point x="96" y="448" type="line"/>
    </contour>
  </outline>
</glyph>
<glyph name="ampersand" format="2">
  <advance width="527"/>
  <unicode hex="0026"/>
  <outline>
    <contour>
      <point x="232.992" y="-18.998" type="curve" smooth="yes"/>
      <point x="352" y="-19"/>
      <point x="455" y="22"/>
      <point x="446" y="153" type="curve" smooth="yes"/>
      <point x="439" y="315" type="line" smooth="yes"/>
      <point x="438" y="333"/>
      <point x="442" y="344"/>
      <point x="460" y="345" type="curve" smooth="yes"/>
      <point x="488" y="346" type="line" smooth="yes"/>
      <point x="525" y="348"/>
      <point x="518" y="404"/>
      <point x="484" y="400" type="curve" smooth="yes"/>
      <point x="201" y="378" type="line" smooth="yes"/>
      <point x="147" y="375"/>
      <point x="103" y="432"/>
      <point x="103" y="503" type="curve" smooth="yes"/>
      <point x="103" y="590"/>
      <point x="153" y="649"/>
      <point x="283" y="649" type="curve" smooth="yes"/>
      <point x="341" y="649"/>
      <point x="377" y="633"/>
      <point x="404" y="635" type="curve" smooth="yes"/>
      <point x="420" y="637"/>
      <point x="428" y="651"/>
      <point x="424" y="669" type="curve" smooth="yes"/>
      <point x="419" y="699"/>
      <point x="361" y="712"/>
      <point x="292" y="712" type="curve" smooth="yes"/>
      <point x="156" y="712"/>
      <point x="75" y="634"/>
      <point x="74.992" y="510.007" type="curve" smooth="yes"/>
      <point x="74.992" y="433.008"/>
      <point x="109" y="389"/>
      <point x="147" y="368" type="curve" smooth="yes"/>
      <point x="157" y="362"/>
      <point x="157" y="353"/>
      <point x="147" y="348" type="curve" smooth="yes"/>
      <point x="85" y="320.007"/>
      <point x="32" y="264"/>
      <point x="32" y="169.007" type="curve" smooth="yes"/>
      <point x="32" y="51"/>
      <point x="97" y="-18.998"/>
    </contour>
    <contour>
      <point x="251" y="12" type="curve" smooth="yes"/>
      <point x="155" y="12"/>
      <point x="93" y="87"/>
      <point x="93" y="190" type="curve" smooth="yes"/>
      <point x="93" y="283"/>
      <point x="140" y="336"/>
      <point x="195" y="337" type="curve" smooth="yes"/>
      <point x="355" y="342" type="line" smooth="yes"/>
      <point x="372" y="343"/>
      <point x="380" y="334"/>
      <point x="381" y="317" type="curve" smooth="yes"/>
      <point x="389" y="159" type="line" smooth="yes"/>
      <point x="396" y="47"/>
      <point x="340" y="12"/>
    </contour>
    <contour>
      <point x="68" y="188" type="curve" smooth="yes"/>
      <point x="61" y="188"/>
      <point x="56" y="193"/>
      <point x="56" y="200" type="curve" smooth="yes"/>
      <point x="56" y="206"/>
      <point x="61" y="211"/>
      <point x="68" y="211" type="curve" smooth="yes"/>
      <point x="74" y="211"/>
      <point x="79" y="206"/>
      <point x="79" y="200" type="curve" smooth="yes"/>
      <point x="79" y="193"/>
      <point x="74" y="188"/>
    </contour>
    <contour>
      <point x="69" y="128" type="curve" smooth="yes"/>
      <point x="61" y="128"/>
      <point x="55" y="134"/>
      <point x="55" y="141" type="curve" smooth="yes"/>
      <point x="55" y="149"/>
      <point x="61" y="154"/>
      <point x="69" y="154" type="curve" smooth="yes"/>
      <point x="76" y="154"/>
      <point x="82" y="149"/>
      <point x="82" y="141" type="curve" smooth="yes"/>
      <point x="82" y="134"/>
      <point x="76" y="128"/>
    </contour>
    <contour>
      <point x="114" y="34" type="curve" smooth="yes"/>
      <point x="108" y="34"/>
      <point x="102" y="39"/>
      <point x="102" y="45" type="curve" smooth="yes"/>
      <point x="102" y="51"/>
      <point x="108" y="57"/>
      <point x="114" y="57" type="curve" smooth="yes"/>
      <point x="120" y="57"/>
      <point x="125" y="51"/>
      <point x="125" y="45" type="curve" smooth="yes"/>
      <point x="125" y="39"/>
      <point x="120" y="34"/>
    </contour>
    <contour>
      <point x="310" y="372" type="curve" smooth="yes"/>
      <point x="309" y="388" type="line"/>
      <point x="356" y="391" type="line"/>
      <point x="358.994" y="375.992" type="line" smooth="yes"/>
      <point x="361" y="364"/>
      <point x="310" y="363"/>
    </contour>
    <contour>
      <point x="397.997" y="375.992" type="curve" smooth="yes"/>
      <point x="395" y="394" type="line"/>
      <point x="442" y="397" type="line"/>
      <point x="443" y="379" type="line" smooth="yes"/>
      <point x="444" y="368"/>
      <point x="399" y="365"/>
    </contour>
  </outline>
</glyph>
<glyph name="quotesingle" format="2">
  <advance width="140"/>
  <unicode hex="0027"/>
  <outline>
    <contour>
      <point x="58" y="458" type="line" smooth="yes"/>
      <point x="59" y="439"/>
      <point x="85" y="439"/>
      <point x="85" y="458" type="curve" smooth="yes"/>
      <point x="92" y="687" type="line" smooth="yes"/>
      <point x="93" y="716"/>
      <point x="47" y="717"/>
      <point x="49" y="687" type="curve" smooth="yes"/>
    </contour>
    <contour>
      <point x="50" y="662" type="line"/>
      <point x="50" y="662" type="line"/>
      <point x="50" y="662"/>
      <point x="51" y="615"/>
      <point x="51" y="615" type="curve"/>
      <point x="51" y="615" type="line"/>
    </contour>
  </outline>
</glyph>
<glyph name="parenleft" format="2">
  <advance width="300"/>
  <unicode hex="0028"/>
  <outline>
    <contour>
      <point x="50" y="332" type="curve" smooth="yes"/>
      <point x="50" y="80.994"/>
      <point x="145" y="-59"/>
      <point x="261" y="-155" type="curve" smooth="yes"/>
      <point x="277" y="-168"/>
      <point x="296" y="-151"/>
      <point x="276" y="-132" type="curve" smooth="yes"/>
      <point x="171" y="-25"/>
      <point x="110" y="88"/>
      <point x="110" y="334" type="curve" smooth="yes"/>
      <point x="110" y="570"/>
      <point x="181" y="691"/>
      <point x="279" y="782" type="curve" smooth="yes"/>
      <point x="316" y="808"/>
      <point x="286" y="864"/>
      <point x="240" y="829" type="curve" smooth="yes"/>
      <point x="146" y="754"/>
      <point x="50" y="606"/>
    </contour>
    <contour>
      <point x="61" y="96" type="line" smooth="yes"/>
      <point x="44" y="88"/>
      <point x="56" y="59"/>
      <point x="75" y="68" type="curve" smooth="yes"/>
      <point x="177" y="120" type="line" smooth="yes"/>
      <point x="196" y="128"/>
      <point x="182" y="160"/>
      <point x="162" y="150" type="curve" smooth="yes"/>
    </contour>
  </outline>
</glyph>
<glyph name="parenright" format="2">
  <advance width="312"/>
  <unicode hex="0029"/>
  <outline>
    <contour>
      <point x="259" y="340" type="curve" smooth="yes"/>
      <point x="259" y="607"/>
      <point x="162" y="749"/>
      <point x="47" y="838" type="curve" smooth="yes"/>
      <point x="29" y="851"/>
      <point x="16" y="833"/>
      <point x="29" y="820" type="curve" smooth="yes"/>
      <point x="146" y="706"/>
      <point x="199" y="578"/>
      <point x="199" y="331" type="curve" smooth="yes"/>
      <point x="199" y="101"/>
      <point x="130" y="-12"/>
      <point x="22" y="-111" type="curve" smooth="yes"/>
      <point x="-20" y="-142"/>
      <point x="21" y="-189"/>
      <point x="59" y="-161" type="curve" smooth="yes"/>
      <point x="163" y="-78"/>
      <point x="259" y="71"/>
    </contour>
    <contour>
      <point x="123" y="551" type="line" smooth="yes"/>
      <point x="101" y="543"/>
      <point x="111" y="509"/>
      <point x="133" y="518" type="curve" smooth="yes"/>
      <point x="251" y="562" type="line" smooth="yes"/>
      <point x="269" y="569"/>
      <point x="260" y="600"/>
      <point x="242" y="593" type="curve" smooth="yes"/>
    </contour>
    <contour>
      <point x="145" y="308" type="line" smooth="yes"/>
      <point x="126" y="310"/>
      <point x="122" y="276"/>
      <point x="142" y="273" type="curve" smooth="yes"/>
      <point x="234" y="265" type="line"/>
      <point x="237" y="301" type="line"/>
    </contour>
  </outline>
</glyph>
<glyph name="asterisk" format="2">
  <advance width="459"/>
  <unicode hex="002A"/>
  <outline>
    <contour>
      <point x="206" y="687" type="curve" smooth="yes"/>
      <point x="220" y="541" type="line" smooth="yes"/>
      <point x="221" y="530"/>
      <point x="217" y="525"/>
      <point x="205" y="530" type="curve" smooth="yes"/>
      <point x="73.005" y="587.997" type="line" smooth="yes"/>
      <point x="32" y="607"/>
      <point x="11.002" y="541"/>
      <point x="55" y="533" type="curve" smooth="yes"/>
      <point x="201" y="504" type="line" smooth="yes"/>
      <point x="209" y="502"/>
      <point x="211" y="496"/>
      <point x="205" y="489" type="curve" smooth="yes"/>
      <point x="127" y="404" type="line" smooth="yes"/>
      <point x="92" y="367"/>
      <point x="158" y="326"/>
      <point x="178" y="371" type="curve" smooth="yes"/>
      <point x="227" y="473" type="line" smooth="yes"/>
      <point x="230" y="482"/>
      <point x="238" y="482"/>
      <point x="242" y="474" type="curve" smooth="yes"/>
      <point x="319" y="332" type="line" smooth="yes"/>
      <point x="342" y="291"/>
      <point x="398" y="329"/>
      <point x="368" y="365" type="curve" smooth="yes"/>
      <point x="263" y="490" type="line" smooth="yes"/>
      <point x="258" y="496"/>
      <point x="259" y="504"/>
      <point x="269" y="505" type="curve" smooth="yes"/>
      <point x="396.002" y="514.009" type="line" smooth="yes"/>
      <point x="447" y="518"/>
      <point x="430" y="596"/>
      <point x="383" y="578" type="curve" smooth="yes"/>
      <point x="260" y="529" type="line" smooth="yes"/>
      <point x="251" y="526"/>
      <point x="245" y="529"/>
      <point x="247" y="541" type="curve" smooth="yes"/>
      <point x="267" y="687" type="line" smooth="yes"/>
      <point x="274" y="734.999"/>
      <point x="201" y="734"/>
    </contour>
  </outline>
</glyph>
<glyph name="plus" format="2">
  <advance width="424"/>
  <unicode hex="002B"/>
  <outline>
    <contour>
      <point x="185" y="132" type="line" smooth="yes"/>
      <point x="185" y="111"/>
      <point x="214" y="110"/>
      <point x="214" y="132" type="curve" smooth="yes"/>
      <point x="218" y="290" type="line" smooth="yes"/>
      <point x="219" y="302"/>
      <point x="222" y="308"/>
      <point x="234" y="308" type="curve" smooth="yes"/>
      <point x="387" y="314" type="line" smooth="yes"/>
      <point x="407" y="315"/>
      <point x="408" y="345"/>
      <point x="387" y="344" type="curve" smooth="yes"/>
      <point x="235" y="338" type="line" smooth="yes"/>
      <point x="225" y="337"/>
      <point x="221" y="341"/>
      <point x="221" y="353" type="curve" smooth="yes"/>
      <point x="225" y="498" type="line" smooth="yes"/>
      <point x="225" y="519"/>
      <point x="200" y="520"/>
      <point x="200" y="499" type="curve" smooth="yes"/>
      <point x="194" y="353" type="line" smooth="yes"/>
      <point x="194" y="342"/>
      <point x="190" y="336"/>
      <point x="180" y="335" type="curve" smooth="yes"/>
      <point x="35" y="329" type="line" smooth="yes"/>
      <point x="19" y="328"/>
      <point x="20" y="303"/>
      <point x="35" y="303" type="curve" smooth="yes"/>
      <point x="176" y="306" type="line" smooth="yes"/>
      <point x="187" y="306"/>
      <point x="191" y="301"/>
      <point x="191" y="288" type="curve" smooth="yes"/>
    </contour>
  </outline>
</glyph>
<glyph name="comma" format="2">
  <advance width="214"/>
  <unicode hex="002C"/>
  <outline>
    <contour>
      <point x="33" y="-177" type="curve" smooth="yes"/>
      <point x="16" y="-190"/>
      <point x="35" y="-209"/>
      <point x="50" y="-198" type="curve" smooth="yes"/>
      <point x="123" y="-141"/>
      <point x="172" y="-67"/>
      <point x="172" y="27" type="curve" smooth="yes"/>
      <point x="172" y="80"/>
      <point x="146" y="108"/>
      <point x="109" y="108" type="curve" smooth="yes"/>
      <point x="73" y="108"/>
      <point x="50" y="85"/>
      <point x="50" y="53" type="curve" smooth="yes"/>
      <point x="50" y="23"/>
      <point x="66" y="1"/>
      <point x="100" y="-1" type="curve" smooth="yes"/>
      <point x="127" y="-3"/>
      <point x="133" y="-10"/>
      <point x="133" y="-27" type="curve" smooth="yes"/>
      <point x="133" y="-64"/>
      <point x="98" y="-128"/>
    </contour>
    <contour>
      <point x="146" y="-37" type="line"/>
      <point x="136.005" y="-58.993" type="line"/>
      <point x="166" y="-66" type="line" smooth="yes"/>
      <point x="178" y="-69"/>
      <point x="185" y="-49"/>
      <point x="172" y="-45" type="curve" smooth="yes"/>
    </contour>
    <contour>
      <point x="64" y="-112" type="line" smooth="yes"/>
      <point x="53" y="-105"/>
      <point x="41" y="-122"/>
      <point x="51" y="-129" type="curve" smooth="yes"/>
      <point x="114" y="-175" type="line" smooth="yes"/>
      <point x="125" y="-183"/>
      <point x="138" y="-162"/>
      <point x="127" y="-155" type="curve" smooth="yes"/>
    </contour>
    <contour>
      <point x="147" y="-119" type="line" smooth="yes"/>
      <point x="158" y="-123"/>
      <point x="166" y="-106"/>
      <point x="156" y="-101" type="curve" smooth="yes"/>
      <point x="98" y="-73" type="line" smooth="yes"/>
      <point x="88" y="-68"/>
      <point x="78" y="-87"/>
      <point x="89" y="-92" type="curve" smooth="yes"/>
    </contour>
  </outline>
</glyph>
<glyph name="hyphen" format="2">
  <advance width="331"/>
  <unicode hex="002D"/>
  <outline>
    <contour>
      <point x="56" y="355" type="line" smooth="yes"/>
      <point x="33" y="354"/>
      <point x="33" y="327"/>
      <point x="58" y="327" type="curve" smooth="yes"/>
      <point x="269" y="327" type="line" smooth="yes"/>
      <point x="298" y="327"/>
      <point x="299" y="362"/>
      <point x="269" y="361" type="curve" smooth="yes"/>
    </contour>
  </outline>
</glyph>
<glyph name="period" format="2">
  <advance width="190"/>
  <unicode hex="002E"/>
  <outline>
    <contour>
      <point x="94" y="-16" type="curve" smooth="yes"/>
      <point x="128" y="-16"/>
      <point x="157" y="11"/>
      <point x="157" y="46" type="curve" smooth="yes"/>
      <point x="157" y="83"/>
      <point x="131" y="112"/>
      <point x="96" y="112" type="curve" smooth="yes"/>
      <point x="61" y="112"/>
      <point x="33" y="85"/>
      <point x="33" y="47" type="curve" smooth="yes"/>
      <point x="33.002" y="10.995"/>
      <point x="59" y="-16"/>
    </contour>
    <contour>
      <point x="97" y="32" type="curve" smooth="yes"/>
      <point x="88" y="32"/>
      <point x="80" y="39"/>
      <point x="80" y="49" type="curve" smooth="yes"/>
      <point x="80" y="58"/>
      <point x="88" y="66"/>
      <point x="97" y="66" type="curve" smooth="yes"/>
      <point x="106" y="66"/>
      <point x="114" y="58"/>
      <point x="114" y="49" type="curve" smooth="yes"/>
      <point x="114" y="39"/>
      <point x="106" y="32"/>
    </contour>
  </outline>
</glyph>
<glyph name="slash" format="2">
  <advance width="361"/>
  <unicode hex="002F"/>
  <outline>
    <contour>
      <point x="326" y="814" type="curve" smooth="yes"/>
      <point x="10" y="-89" type="line" smooth="yes"/>
      <point x="-0.994" y="-121.004"/>
      <point x="33" y="-132"/>
      <point x="43" y="-102" type="curve" smooth="yes"/>
      <point x="352" y="805" type="line" smooth="yes"/>
      <point x="360" y="827"/>
      <point x="333" y="837"/>
    </contour>
  </outline>
</glyph>
<glyph name="zero" format="2">
  <advance width="634"/>
  <unicode hex="0030"/>
  <outline>
    <contour>
      <point x="322.99" y="-14" type="curve" smooth="yes"/>
      <point x="492" y="-13"/>
      <point x="597" y="114"/>
      <point x="597" y="352" type="curve" smooth="yes"/>
      <point x="597" y="582"/>
      <point x="498" y="714"/>
      <point x="329" y="714" type="curve" smooth="yes"/>
      <point x="171" y="714"/>
      <point x="55" y="589"/>
      <point x="55" y="326" type="curve" smooth="yes"/>
      <point x="55" y="109"/>
      <point x="158" y="-15"/>
    </contour>
    <contour>
      <point x="329" y="655" type="curve" smooth="yes"/>
      <point x="488" y="655"/>
      <point x="553" y="530"/>
      <point x="553" y="390" type="curve" smooth="yes"/>
      <point x="553" y="182"/>
      <point x="463" y="35"/>
      <point x="297" y="35" type="curve" smooth="yes"/>
      <point x="166" y="35"/>
      <point x="84" y="146"/>
      <point x="84" y="327" type="curve" smooth="yes"/>
      <point x="84" y="527"/>
      <point x="175" y="655"/>
    </contour>
    <contour>
      <point x="309" y="465" type="curve" smooth="yes"/>
      <point x="337" y="465"/>
      <point x="359" y="488"/>
      <point x="359" y="516" type="curve" smooth="yes"/>
      <point x="359" y="543"/>
      <point x="337" y="567"/>
      <point x="309" y="567" type="curve" smooth="yes"/>
      <point x="281" y="567"/>
      <point x="257" y="543"/>
      <point x="257" y="516" type="curve" smooth="yes"/>
      <point x="257" y="488"/>
      <point x="281" y="465"/>
    </contour>
    <contour>
      <point x="505" y="176" type="curve"/>
      <point x="516" y="164" type="line" smooth="yes"/>
      <point x="524" y="140"/>
      <point x="503" y="108"/>
      <point x="485" y="108" type="curve" smooth="yes"/>
      <point x="473" y="120" type="line"/>
      <point x="487" y="140"/>
      <point x="495" y="157"/>
    </contour>
    <contour>
      <point x="533" y="266" type="curve"/>
      <point x="549" y="254" type="line" smooth="yes"/>
      <point x="560" y="237"/>
      <point x="545" y="206"/>
      <point x="532" y="205" type="curve" smooth="yes"/>
      <point x="520" y="214" type="line"/>
      <point x="524" y="229"/>
      <point x="529" y="249"/>
    </contour>
    <contour>
      <point x="326" y="531" type="line" smooth="yes"/>
      <point x="308" y="544"/>
      <point x="290" y="515"/>
      <point x="306" y="504" type="curve" smooth="yes"/>
      <point x="398" y="447" type="line" smooth="yes"/>
      <point x="412" y="437"/>
      <point x="426" y="462"/>
      <point x="412" y="471" type="curve" smooth="yes"/>
    </contour>
    <contour>
      <point x="267" y="332" type="line" smooth="yes"/>
      <point x="251" y="318"/>
      <point x="271" y="295"/>
      <point x="286" y="309" type="curve" smooth="yes"/>
      <point x="371" y="383" type="line" smooth="yes"/>
      <point x="385" y="397"/>
      <point x="368" y="418"/>
      <point x="354" y="405" type="curve" smooth="yes"/>
    </contour>
    <contour>
      <point x="57" y="503" type="line" smooth="yes"/>
      <point x="35" y="511"/>
      <point x="24" y="477"/>
      <point x="44" y="471" type="curve" smooth="yes"/>
      <point x="124" y="449" type="line" smooth="yes"/>
      <point x="144" y="443"/>
      <point x="155" y="475"/>
      <point x="135" y="481" type="curve" smooth="yes"/>
    </contour>
    <contour>
      <point x="513" y="644" type="line" smooth="yes"/>
      <point x="524" y="659"/>
      <point x="501" y="683"/>
      <point x="488" y="666" type="curve" smooth="yes"/>
      <point x="434" y="603" type="line" smooth="yes"/>
      <point x="423" y="588"/>
      <point x="447" y="569"/>
      <point x="457" y="582" type="curve" smooth="yes"/>
    </contour>
    <contour>
      <point x="308" y="493" type="curve" smooth="yes"/>
      <point x="297" y="493"/>
      <point x="287" y="502"/>
      <point x="287" y="514" type="curve" smooth="yes"/>
      <point x="287" y="525"/>
      <point x="297" y="535"/>
      <point x="308" y="535" type="curve" smooth="yes"/>
      <point x="320" y="535"/>
      <point x="329" y="525"/>
      <point x="329" y="514" type="curve" smooth="yes"/>
      <point x="329" y="502"/>
      <point x="320" y="493"/>
    </contour>
    <contour>
      <point x="452" y="97" type="curve"/>
      <point x="457" y="80" type="line" smooth="yes"/>
      <point x="456" y="57"/>
      <point x="431" y="45"/>
      <point x="419" y="54" type="curve" smooth="yes"/>
      <point x="414" y="68" type="line"/>
      <point x="427" y="76"/>
      <point x="439" y="85"/>
    </contour>
  </outline>
</glyph>
<glyph name="one" format="2">
  <advance width="295"/>
  <unicode hex="0031"/>
  <outline>
    <contour>
      <point x="48" y="591" type="curve" smooth="yes"/>
      <point x="125" y="640" type="line" smooth="yes"/>
      <point x="145" y="652"/>
      <point x="158" y="643"/>
      <point x="157" y="614" type="curve" smooth="yes"/>
      <point x="130" y="26" type="line" smooth="yes"/>
      <point x="127" y="-41"/>
      <point x="232" y="-39"/>
      <point x="229" y="28" type="curve" smooth="yes"/>
      <point x="208" y="660" type="line" smooth="yes"/>
      <point x="207" y="701"/>
      <point x="182" y="713"/>
      <point x="151" y="696" type="curve" smooth="yes"/>
      <point x="36" y="612" type="line" smooth="yes"/>
      <point x="17" y="601"/>
      <point x="31" y="581"/>
    </contour>
    <contour>
      <point x="226" y="123" type="line"/>
      <point x="228" y="81" type="line"/>
      <point x="207" y="78" type="line" smooth="yes"/>
      <point x="191" y="76"/>
      <point x="187" y="123"/>
      <point x="202" y="123" type="curve" smooth="yes"/>
    </contour>
    <contour>
      <point x="224" y="221" type="line"/>
      <point x="225" y="175" type="line"/>
      <point x="200" y="177" type="line" smooth="yes"/>
      <point x="185" y="178"/>
      <point x="185" y="220"/>
      <point x="199" y="220" type="curve" smooth="yes"/>
    </contour>
    <contour>
      <point x="221" y="302" type="line"/>
      <point x="223" y="263" type="line"/>
      <point x="207" y="260" type="line" smooth="yes"/>
      <point x="193" y="258"/>
      <point x="189" y="296"/>
      <point x="203" y="299" type="curve" smooth="yes"/>
    </contour>
  </outline>
</glyph>
<glyph name="two" format="2">
  <advance width="461"/>
  <unicode hex="0032"/>
  <outline>
    <contour>
      <point x="415" y="565" type="curve" smooth="yes"/>
      <point x="415" y="654"/>
      <point x="364" y="715"/>
      <point x="239" y="715" type="curve" smooth="yes"/>
      <point x="151" y="715"/>
      <point x="70" y="677"/>
      <point x="70" y="642" type="curve" smooth="yes"/>
      <point x="70" y="628"/>
      <point x="78" y="617"/>
      <point x="94" y="617" type="curve" smooth="yes"/>
      <point x="116" y="617"/>
      <point x="148" y="649"/>
      <point x="223" y="649" type="curve" smooth="yes"/>
      <point x="302" y="649"/>
      <point x="347" y="613"/>
      <point x="347" y="537" type="curve" smooth="yes"/>
      <point x="348" y="475"/>
      <point x="325" y="415"/>
      <point x="264" y="341" type="curve" smooth="yes"/>
      <point x="55" y="89" type="line" smooth="yes"/>
      <point x="16" y="40"/>
      <point x="46" y="-7"/>
      <point x="94" y="-5" type="curve" smooth="yes"/>
      <point x="417" y="10" type="line" smooth="yes"/>
      <point x="456" y="11"/>
      <point x="455" y="66"/>
      <point x="416" y="65" type="curve" smooth="yes"/>
      <point x="116" y="48" type="line" smooth="yes"/>
      <point x="87" y="46"/>
      <point x="70" y="69"/>
      <point x="93" y="96" type="curve" smooth="yes"/>
      <point x="291" y="330" type="line" smooth="yes"/>
      <point x="387" y="443"/>
      <point x="415" y="492"/>
    </contour>
    <contour>
      <point x="295" y="660" type="curve" smooth="yes"/>
      <point x="289" y="660"/>
      <point x="285" y="664"/>
      <point x="285" y="669" type="curve" smooth="yes"/>
      <point x="285" y="674"/>
      <point x="289" y="679"/>
      <point x="295" y="679" type="curve" smooth="yes"/>
      <point x="300" y="679"/>
      <point x="304" y="674"/>
      <point x="304" y="669" type="curve" smooth="yes"/>
      <point x="304" y="664"/>
      <point x="300" y="660"/>
    </contour>
    <contour>
      <point x="256" y="626" type="curve" smooth="yes"/>
      <point x="249" y="626"/>
      <point x="244" y="631"/>
      <point x="244" y="638" type="curve" smooth="yes"/>
      <point x="244" y="644"/>
      <point x="249" y="649"/>
      <point x="256" y="649" type="curve" smooth="yes"/>
      <point x="262" y="649"/>
      <point x="268" y="644"/>
      <point x="268" y="638" type="curve" smooth="yes"/>
      <point x="268" y="631"/>
      <point x="262" y="626"/>
    </contour>
    <contour>
      <point x="340" y="581" type="curve" smooth="yes"/>
      <point x="334" y="581"/>
      <point x="329" y="586"/>
      <point x="329" y="591" type="curve" smooth="yes"/>
      <point x="329" y="597"/>
      <point x="334" y="602"/>
      <point x="340" y="602" type="curve" smooth="yes"/>
      <point x="346" y="602"/>
      <point x="350" y="597"/>
      <point x="350" y="591" type="curve" smooth="yes"/>
      <point x="350" y="586"/>
      <point x="346" y="581"/>
    </contour>
    <contour>
      <point x="246" y="407" type="line" smooth="yes"/>
      <point x="237" y="429"/>
      <point x="216" y="417"/>
      <point x="222" y="400" type="curve" smooth="yes"/>
      <point x="225" y="285" type="line" smooth="yes"/>
      <point x="232" y="267"/>
      <point x="255" y="272"/>
      <point x="247" y="296" type="curve" smooth="yes"/>
    </contour>
    <contour>
      <point x="220" y="31" type="line" smooth="yes"/>
      <point x="220" y="49"/>
      <point x="190" y="46"/>
      <point x="189" y="29" type="curve" smooth="yes"/>
      <point x="186" y="-31" type="line" smooth="yes"/>
      <point x="185" y="-53"/>
      <point x="216" y="-55"/>
      <point x="217" y="-29" type="curve" smooth="yes"/>
    </contour>
    <contour>
      <point x="280" y="113" type="line" smooth="yes"/>
      <point x="277" y="132"/>
      <point x="254" y="128"/>
      <point x="257" y="109" type="curve" smooth="yes"/>
      <point x="271" y="-56" type="line" smooth="yes"/>
      <point x="273" y="-72"/>
      <point x="297" y="-75"/>
      <point x="294" y="-51" type="curve" smooth="yes"/>
    </contour>
    <contour>
      <point x="213" y="354" type="line" smooth="yes"/>
      <point x="202" y="362"/>
      <point x="190" y="340"/>
      <point x="202" y="333" type="curve" smooth="yes"/>
      <point x="310" y="275" type="line" smooth="yes"/>
      <point x="321" y="268"/>
      <point x="333" y="288"/>
      <point x="319" y="297" type="curve" smooth="yes"/>
    </contour>
    <contour>
      <point x="278" y="560" type="curve" smooth="yes"/>
      <point x="292" y="560"/>
      <point x="303" y="572"/>
      <point x="303" y="586" type="curve" smooth="yes"/>
      <point x="303" y="600"/>
      <point x="292" y="611"/>
      <point x="278" y="611" type="curve" smooth="yes"/>
      <point x="264" y="611"/>
      <point x="252" y="600"/>
      <point x="252" y="586" type="curve" smooth="yes"/>
      <point x="252" y="572"/>
      <point x="264" y="560"/>
    </contour>
  </outline>
</glyph>
<glyph name="three" format="2">
  <advance width="461"/>
  <unicode hex="0033"/>
  <outline>
    <contour>
      <point x="182" y="-5" type="curve" smooth="yes"/>
      <point x="339.003" y="-5.002"/>
      <point x="421" y="79.998"/>
      <point x="421" y="220.999" type="curve" smooth="yes"/>
      <point x="421" y="320"/>
      <point x="357" y="368"/>
      <point x="223" y="386" type="curve" smooth="yes"/>
      <point x="200" y="388"/>
      <point x="198" y="400"/>
      <point x="214" y="417" type="curve" smooth="yes"/>
      <point x="381" y="598" type="line" smooth="yes"/>
      <point x="410" y="626"/>
      <point x="401" y="673"/>
      <point x="364" y="678" type="curve" smooth="yes"/>
      <point x="74" y="714" type="line" smooth="yes"/>
      <point x="36" y="722"/>
      <point x="23" y="659"/>
      <point x="66" y="654" type="curve" smooth="yes"/>
      <point x="309" y="635" type="line" smooth="yes"/>
      <point x="327" y="634"/>
      <point x="330" y="621"/>
      <point x="320" y="610" type="curve" smooth="yes"/>
      <point x="146" y="421" type="line" smooth="yes"/>
      <point x="122" y="396"/>
      <point x="132" y="367"/>
      <point x="164" y="363" type="curve" smooth="yes"/>
      <point x="228" y="360" type="line" smooth="yes"/>
      <point x="358" y="340"/>
      <point x="396" y="295"/>
      <point x="396" y="222" type="curve" smooth="yes"/>
      <point x="396" y="119"/>
      <point x="320" y="82"/>
      <point x="233" y="82" type="curve" smooth="yes"/>
      <point x="168" y="82"/>
      <point x="135" y="103"/>
      <point x="83" y="103" type="curve" smooth="yes"/>
      <point x="54" y="103"/>
      <point x="38" y="87"/>
      <point x="38" y="60" type="curve" smooth="yes"/>
      <point x="38" y="16"/>
      <point x="104" y="-5"/>
    </contour>
    <contour>
      <point x="161" y="40" type="curve" smooth="yes"/>
      <point x="155" y="40"/>
      <point x="150" y="45"/>
      <point x="150" y="51" type="curve" smooth="yes"/>
      <point x="150" y="57"/>
      <point x="155" y="61"/>
      <point x="161" y="61" type="curve" smooth="yes"/>
      <point x="166" y="61"/>
      <point x="171" y="57"/>
      <point x="171" y="51" type="curve" smooth="yes"/>
      <point x="171" y="45"/>
      <point x="166" y="40"/>
    </contour>
    <contour>
      <point x="232" y="49" type="curve" smooth="yes"/>
      <point x="227" y="49"/>
      <point x="223" y="53"/>
      <point x="223" y="58" type="curve" smooth="yes"/>
      <point x="223" y="63"/>
      <point x="227" y="67"/>
      <point x="232" y="67" type="curve" smooth="yes"/>
      <point x="238" y="67"/>
      <point x="242" y="63"/>
      <point x="242" y="58" type="curve" smooth="yes"/>
      <point x="242" y="53"/>
      <point x="238" y="49"/>
    </contour>
    <contour>
      <point x="157" y="709" type="line"/>
      <point x="192" y="704" type="line"/>
      <point x="188" y="684" type="line" smooth="yes"/>
      <point x="186" y="672"/>
      <point x="151" y="674"/>
      <point x="154" y="689" type="curve" smooth="yes"/>
    </contour>
    <contour>
      <point x="239" y="700" type="line"/>
      <point x="272" y="695" type="line"/>
      <point x="265" y="677" type="line" smooth="yes"/>
      <point x="260" y="664"/>
      <point x="229" y="669"/>
      <point x="233" y="680" type="curve" smooth="yes"/>
    </contour>
    <contour>
      <point x="304" y="134" type="curve" smooth="yes"/>
      <point x="322" y="134"/>
      <point x="336" y="149"/>
      <point x="336" y="167" type="curve" smooth="yes"/>
      <point x="336" y="184"/>
      <point x="322" y="199"/>
      <point x="304" y="199" type="curve" smooth="yes"/>
      <point x="286" y="199"/>
      <point x="272" y="184"/>
      <point x="272" y="167" type="curve" smooth="yes"/>
      <point x="272" y="149"/>
      <point x="286" y="134"/>
    </contour>
    <contour>
      <point x="229" y="210" type="line" smooth="yes"/>
      <point x="223" y="198"/>
      <point x="242" y="188"/>
      <point x="247" y="200" type="curve" smooth="yes"/>
      <point x="266" y="238" type="line" smooth="yes"/>
      <point x="271" y="249"/>
      <point x="254" y="259"/>
      <point x="248" y="247" type="curve" smooth="yes"/>
    </contour>
    <contour>
      <point x="129" y="616" type="line" smooth="yes"/>
      <point x="118" y="624"/>
      <point x="106" y="606"/>
      <point x="118" y="599" type="curve" smooth="yes"/>
      <point x="159" y="573" type="line" smooth="yes"/>
      <point x="167" y="567"/>
      <point x="178" y="585"/>
      <point x="170" y="591" type="curve" smooth="yes"/>
    </contour>
    <contour>
      <point x="341" y="304" type="line" smooth="yes"/>
      <point x="335" y="297"/>
      <point x="348" y="284"/>
      <point x="355" y="292" type="curve" smooth="yes"/>
      <point x="394" y="335" type="line" smooth="yes"/>
      <point x="402" y="344"/>
      <point x="386" y="359"/>
      <point x="378" y="347" type="curve" smooth="yes"/>
    </contour>
    <contour>
      <point x="319.006" y="555.991" type="line" smooth="yes"/>
      <point x="307" y="567"/>
      <point x="292" y="548"/>
      <point x="304" y="539" type="curve" smooth="yes"/>
      <point x="332" y="516" type="line" smooth="yes"/>
      <point x="340" y="510"/>
      <point x="350" y="523"/>
      <point x="343" y="530" type="curve" smooth="yes"/>
    </contour>
  </outline>
</glyph>
<glyph name="four" format="2">
  <advance width="501"/>
  <unicode hex="0034"/>
  <outline>
    <contour>
      <point x="76" y="180" type="curve" smooth="yes"/>
      <point x="471" y="204" type="line" smooth="yes"/>
      <point x="491" y="205"/>
      <point x="489" y="228"/>
      <point x="469" y="227" type="curve" smooth="yes"/>
      <point x="119" y="205" type="line" smooth="yes"/>
      <point x="103" y="204"/>
      <point x="92" y="219"/>
      <point x="104" y="237" type="curve" smooth="yes"/>
      <point x="348" y="604" type="line" smooth="yes"/>
      <point x="359" y="621"/>
      <point x="377" y="615"/>
      <point x="376" y="596" type="curve" smooth="yes"/>
      <point x="359" y="-8" type="line" smooth="yes"/>
      <point x="359" y="-29"/>
      <point x="384" y="-30"/>
      <point x="385" y="-7" type="curve" smooth="yes"/>
      <point x="406" y="654" type="line" smooth="yes"/>
      <point x="408" y="721"/>
      <point x="314" y="734"/>
      <point x="278" y="674" type="curve" smooth="yes"/>
      <point x="30" y="255" type="line" smooth="yes"/>
      <point x="5" y="213"/>
      <point x="30" y="177"/>
    </contour>
    <contour>
      <point x="417" y="161" type="line" smooth="yes"/>
      <point x="434" y="161"/>
      <point x="433" y="187"/>
      <point x="417" y="186" type="curve" smooth="yes"/>
      <point x="321" y="180" type="line" smooth="yes"/>
      <point x="307" y="179"/>
      <point x="308" y="155"/>
      <point x="323" y="155" type="curve" smooth="yes"/>
    </contour>
    <contour>
      <point x="207" y="555" type="line"/>
      <point x="230" y="594" type="line"/>
      <point x="252" y="588" type="line" smooth="yes"/>
      <point x="268" y="583"/>
      <point x="242" y="538"/>
      <point x="229" y="544" type="curve" smooth="yes"/>
    </contour>
    <contour>
      <point x="154" y="464" type="line"/>
      <point x="177" y="503" type="line"/>
      <point x="191" y="490" type="line" smooth="yes"/>
      <point x="200" y="482"/>
      <point x="179" y="448"/>
      <point x="170" y="454" type="curve" smooth="yes"/>
    </contour>
    <contour>
      <point x="292" y="290" type="line" smooth="yes"/>
      <point x="311" y="289"/>
      <point x="310" y="311"/>
      <point x="293" y="311" type="curve" smooth="yes"/>
      <point x="209" y="311" type="line" smooth="yes"/>
      <point x="195" y="312"/>
      <point x="193" y="292"/>
      <point x="211" y="291" type="curve" smooth="yes"/>
    </contour>
    <contour>
      <point x="421" y="361" type="line" smooth="yes"/>
      <point x="438" y="362"/>
      <point x="437" y="385"/>
      <point x="421" y="384" type="curve" smooth="yes"/>
      <point x="386" y="381" type="line" smooth="yes"/>
      <point x="372" y="380"/>
      <point x="373" y="359"/>
      <point x="389" y="359" type="curve" smooth="yes"/>
    </contour>
    <contour>
      <point x="428" y="427" type="line" smooth="yes"/>
      <point x="446" y="425"/>
      <point x="444" y="449"/>
      <point x="428" y="450" type="curve" smooth="yes"/>
      <point x="389" y="453" type="line"/>
      <point x="385" y="432" type="line"/>
    </contour>
    <contour>
      <point x="226" y="419" type="line"/>
      <point x="203" y="384" type="line"/>
      <point x="194" y="392" type="line" smooth="yes"/>
      <point x="184" y="400"/>
      <point x="203" y="436"/>
      <point x="216" y="426" type="curve" smooth="yes"/>
    </contour>
  </outline>
</glyph>
<glyph name="five" format="2">
  <advance width="464"/>
  <unicode hex="0035"/>
  <outline>
    <contour>
      <point x="65" y="388" type="line" smooth="yes"/>
      <point x="67" y="358"/>
      <point x="89" y="342"/>
      <point x="120" y="346" type="curve" smooth="yes"/>
      <point x="249" y="357" type="line" smooth="yes"/>
      <point x="372" y="369"/>
      <point x="407" y="297"/>
      <point x="407" y="219" type="curve" smooth="yes"/>
      <point x="407" y="112"/>
      <point x="341" y="46"/>
      <point x="228" y="46" type="curve" smooth="yes"/>
      <point x="129" y="46"/>
      <point x="97" y="93"/>
      <point x="65" y="93" type="curve" smooth="yes"/>
      <point x="49" y="93"/>
      <point x="41" y="85"/>
      <point x="41" y="69" type="curve" smooth="yes"/>
      <point x="41" y="39"/>
      <point x="115" y="-9"/>
      <point x="220" y="-9" type="curve" smooth="yes"/>
      <point x="344" y="-9"/>
      <point x="432" y="58"/>
      <point x="432" y="217" type="curve" smooth="yes"/>
      <point x="432" y="324"/>
      <point x="377" y="392"/>
      <point x="249" y="380" type="curve" smooth="yes"/>
      <point x="138" y="373" type="line" smooth="yes"/>
      <point x="116" y="370"/>
      <point x="105" y="380"/>
      <point x="107" y="406" type="curve" smooth="yes"/>
      <point x="125" y="581" type="line" smooth="yes"/>
      <point x="127" y="608"/>
      <point x="140" y="620"/>
      <point x="164" y="624" type="curve" smooth="yes"/>
      <point x="366" y="645" type="line" smooth="yes"/>
      <point x="406" y="647"/>
      <point x="405" y="703"/>
      <point x="366" y="702" type="curve" smooth="yes"/>
      <point x="103" y="679" type="line" smooth="yes"/>
      <point x="74" y="676"/>
      <point x="61" y="660"/>
      <point x="62" y="627" type="curve" smooth="yes"/>
    </contour>
    <contour>
      <point x="113" y="606" type="curve" smooth="yes"/>
      <point x="107" y="606"/>
      <point x="102" y="611"/>
      <point x="102" y="618" type="curve" smooth="yes"/>
      <point x="102" y="624"/>
      <point x="107" y="629"/>
      <point x="113" y="629" type="curve" smooth="yes"/>
      <point x="120" y="629"/>
      <point x="125" y="624"/>
      <point x="125" y="618" type="curve" smooth="yes"/>
      <point x="125" y="611"/>
      <point x="120" y="606"/>
    </contour>
    <contour>
      <point x="83" y="436" type="curve" smooth="yes"/>
      <point x="77" y="436"/>
      <point x="73" y="440"/>
      <point x="73" y="446" type="curve" smooth="yes"/>
      <point x="73" y="451"/>
      <point x="77" y="456"/>
      <point x="83" y="456" type="curve" smooth="yes"/>
      <point x="88" y="456"/>
      <point x="93" y="451"/>
      <point x="93" y="446" type="curve" smooth="yes"/>
      <point x="93" y="440"/>
      <point x="88" y="436"/>
    </contour>
    <contour>
      <point x="279" y="192" type="line" smooth="yes"/>
      <point x="290" y="180"/>
      <point x="308" y="193"/>
      <point x="297" y="205" type="curve" smooth="yes"/>
      <point x="230" y="259" type="line" smooth="yes"/>
      <point x="221" y="270"/>
      <point x="202" y="259"/>
      <point x="212" y="246" type="curve" smooth="yes"/>
    </contour>
    <contour>
      <point x="235" y="295" type="line" smooth="yes"/>
      <point x="230" y="274"/>
      <point x="256" y="268"/>
      <point x="260" y="288" type="curve" smooth="yes"/>
      <point x="283" y="412" type="line" smooth="yes"/>
      <point x="287" y="433"/>
      <point x="265" y="440"/>
      <point x="259" y="416" type="curve" smooth="yes"/>
    </contour>
    <contour>
      <point x="240" y="140" type="line" smooth="yes"/>
      <point x="246" y="125"/>
      <point x="269" y="134"/>
      <point x="264" y="149" type="curve" smooth="yes"/>
      <point x="250" y="186" type="line" smooth="yes"/>
      <point x="245" y="200"/>
      <point x="222" y="193"/>
      <point x="227" y="180" type="curve" smooth="yes"/>
    </contour>
    <contour>
      <point x="306" y="625" type="line" smooth="yes"/>
      <point x="310" y="607"/>
      <point x="331" y="614"/>
      <point x="328" y="632" type="curve" smooth="yes"/>
      <point x="311" y="701" type="line" smooth="yes"/>
      <point x="307" y="719"/>
      <point x="283" y="711"/>
      <point x="287" y="696" type="curve" smooth="yes"/>
    </contour>
    <contour>
      <point x="228" y="582" type="line" smooth="yes"/>
      <point x="228" y="564"/>
      <point x="251" y="566"/>
      <point x="251" y="584" type="curve" smooth="yes"/>
      <point x="251.998" y="663.995" type="line" smooth="yes"/>
      <point x="251.998" y="681.995"/>
      <point x="228.004" y="679.995"/>
      <point x="228.004" y="664.995" type="curve" smooth="yes"/>
    </contour>
    <contour>
      <point x="295" y="370" type="line"/>
      <point x="314" y="362" type="line"/>
      <point x="336" y="421" type="line" smooth="yes"/>
      <point x="340" y="434"/>
      <point x="325" y="441"/>
      <point x="319" y="428" type="curve" smooth="yes"/>
    </contour>
    <contour>
      <point x="349.991" y="357" type="line"/>
      <point x="365" y="344" type="line"/>
      <point x="389" y="373" type="line" smooth="yes"/>
      <point x="399" y="384"/>
      <point x="380" y="398"/>
      <point x="372" y="386" type="curve" smooth="yes"/>
    </contour>
    <contour>
      <point x="172" y="652" type="line"/>
      <point x="190" y="654" type="line"/>
      <point x="190" y="694" type="line" smooth="yes"/>
      <point x="190" y="712"/>
      <point x="165" y="709"/>
      <point x="167" y="694" type="curve" smooth="yes"/>
    </contour>
  </outline>
</glyph>
<glyph name="six" format="2">
  <advance width="504"/>
  <unicode hex="0036"/>
  <outline>
    <contour>
      <point x="215" y="48" type="curve" smooth="yes"/>
      <point x="119" y="48"/>
      <point x="65" y="105"/>
      <point x="65" y="205" type="curve" smooth="yes"/>
      <point x="65" y="337"/>
      <point x="133" y="400"/>
      <point x="259" y="400" type="curve" smooth="yes"/>
      <point x="355" y="400"/>
      <point x="419" y="351"/>
      <point x="419" y="218" type="curve" smooth="yes"/>
      <point x="419" y="106"/>
      <point x="305" y="48"/>
    </contour>
    <contour>
      <point x="234" y="-14" type="curve" smooth="yes"/>
      <point x="378" y="-14"/>
      <point x="478" y="53"/>
      <point x="478" y="218" type="curve" smooth="yes"/>
      <point x="478" y="354"/>
      <point x="392" y="425"/>
      <point x="263" y="425" type="curve" smooth="yes"/>
      <point x="232" y="425"/>
      <point x="195" y="419"/>
      <point x="162" y="407" type="curve" smooth="yes"/>
      <point x="148" y="403"/>
      <point x="137" y="412"/>
      <point x="152" y="429" type="curve" smooth="yes"/>
      <point x="384" y="701" type="line" smooth="yes"/>
      <point x="398" y="716"/>
      <point x="378" y="735"/>
      <point x="364" y="717" type="curve" smooth="yes"/>
      <point x="139" y="449" type="line" smooth="yes"/>
      <point x="81" y="375"/>
      <point x="36" y="308"/>
      <point x="36" y="207" type="curve" smooth="yes"/>
      <point x="36" y="72"/>
      <point x="104" y="-14"/>
    </contour>
    <contour>
      <point x="366" y="77" type="curve" smooth="yes"/>
      <point x="358" y="77"/>
      <point x="351" y="84"/>
      <point x="351" y="92" type="curve" smooth="yes"/>
      <point x="351" y="100"/>
      <point x="358" y="107"/>
      <point x="366" y="107" type="curve" smooth="yes"/>
      <point x="374" y="107"/>
      <point x="381" y="100"/>
      <point x="381" y="92" type="curve" smooth="yes"/>
      <point x="381" y="84"/>
      <point x="374" y="77"/>
    </contour>
    <contour>
      <point x="248" y="6" type="curve" smooth="yes"/>
      <point x="241" y="6"/>
      <point x="235" y="11"/>
      <point x="235" y="18" type="curve" smooth="yes"/>
      <point x="235" y="25"/>
      <point x="241" y="31"/>
      <point x="248" y="31" type="curve" smooth="yes"/>
      <point x="255" y="31"/>
      <point x="260" y="25"/>
      <point x="260" y="18" type="curve" smooth="yes"/>
      <point x="260" y="11"/>
      <point x="255" y="6"/>
    </contour>
    <contour>
      <point x="379" y="44" type="curve" smooth="yes"/>
      <point x="372.009" y="43.997"/>
      <point x="367" y="49"/>
      <point x="367" y="57" type="curve" smooth="yes"/>
      <point x="367" y="63"/>
      <point x="372" y="69"/>
      <point x="379" y="69" type="curve" smooth="yes"/>
      <point x="385" y="69"/>
      <point x="391" y="63"/>
      <point x="391" y="57" type="curve" smooth="yes"/>
      <point x="391" y="49"/>
      <point x="385.004" y="43.997"/>
    </contour>
    <contour>
      <point x="386" y="607" type="line" smooth="yes"/>
      <point x="398" y="596"/>
      <point x="414" y="618"/>
      <point x="402" y="629" type="curve" smooth="yes"/>
      <point x="320" y="705" type="line" smooth="yes"/>
      <point x="309" y="716"/>
      <point x="292" y="696"/>
      <point x="305" y="686" type="curve" smooth="yes"/>
    </contour>
    <contour>
      <point x="308" y="529" type="line" smooth="yes"/>
      <point x="321" y="518"/>
      <point x="336" y="539"/>
      <point x="323" y="549" type="curve" smooth="yes"/>
      <point x="214" y="628" type="line" smooth="yes"/>
      <point x="200" y="639"/>
      <point x="182" y="617"/>
      <point x="198" y="605" type="curve" smooth="yes"/>
    </contour>
    <contour>
      <point x="190" y="292" type="curve" smooth="yes"/>
      <point x="204" y="292"/>
      <point x="217" y="304"/>
      <point x="217" y="319" type="curve" smooth="yes"/>
      <point x="217" y="334"/>
      <point x="204" y="346"/>
      <point x="190" y="346" type="curve" smooth="yes"/>
      <point x="175" y="346"/>
      <point x="162" y="334"/>
      <point x="162" y="319" type="curve" smooth="yes"/>
      <point x="162" y="304"/>
      <point x="175" y="292"/>
    </contour>
    <contour>
      <point x="176" y="475" type="line"/>
      <point x="189.998" y="490.993" type="line"/>
      <point x="165" y="523" type="line" smooth="yes"/>
      <point x="155" y="537"/>
      <point x="137" y="521"/>
      <point x="148" y="509" type="curve" smooth="yes"/>
    </contour>
    <contour>
      <point x="292" y="616" type="line"/>
      <point x="306" y="630" type="line"/>
      <point x="257" y="685" type="line" smooth="yes"/>
      <point x="245" y="698"/>
      <point x="230" y="683"/>
      <point x="241" y="672" type="curve" smooth="yes"/>
    </contour>
    <contour>
      <point x="368" y="394" type="line"/>
      <point x="340" y="352" type="line" smooth="yes"/>
      <point x="331" y="339"/>
      <point x="349" y="326"/>
      <point x="357" y="340" type="curve" smooth="yes"/>
      <point x="384" y="383" type="line"/>
    </contour>
    <contour>
      <point x="427" y="301" type="line"/>
      <point x="390" y="291" type="line" smooth="yes"/>
      <point x="376" y="287"/>
      <point x="381" y="267"/>
      <point x="393" y="270" type="curve" smooth="yes"/>
      <point x="431" y="279" type="line"/>
    </contour>
    <contour>
      <point x="74" y="116" type="line"/>
      <point x="117" y="157" type="line" smooth="yes"/>
      <point x="128" y="167"/>
      <point x="113" y="185"/>
      <point x="104" y="175" type="curve" smooth="yes"/>
      <point x="59" y="131" type="line"/>
    </contour>
  </outline>
</glyph>
<glyph name="seven" format="2">
  <advance width="427"/>
  <unicode hex="0037"/>
  <outline>
    <contour>
      <point x="173" y="21" type="curve" smooth="yes"/>
      <point x="395" y="569" type="line" smooth="yes"/>
      <point x="420" y="629"/>
      <point x="401" y="669"/>
      <point x="352.003" y="674.009" type="curve" smooth="yes"/>
      <point x="69" y="709" type="line" smooth="yes"/>
      <point x="-5" y="720"/>
      <point x="-20" y="596"/>
      <point x="65" y="595" type="curve" smooth="yes"/>
      <point x="333" y="592" type="line" smooth="yes"/>
      <point x="361" y="591"/>
      <point x="372" y="575"/>
      <point x="359" y="543" type="curve" smooth="yes"/>
      <point x="147" y="31" type="line" smooth="yes"/>
      <point x="139" y="11"/>
      <point x="163" y="-2"/>
    </contour>
    <contour>
      <point x="275" y="169" type="line" smooth="yes"/>
      <point x="289" y="161"/>
      <point x="305" y="187"/>
      <point x="288" y="197" type="curve" smooth="yes"/>
      <point x="209" y="251" type="line" smooth="yes"/>
      <point x="195" y="259"/>
      <point x="181" y="236"/>
      <point x="195" y="227" type="curve" smooth="yes"/>
    </contour>
    <contour>
      <point x="334" y="325" type="line" smooth="yes"/>
      <point x="349" y="320"/>
      <point x="359" y="349"/>
      <point x="343" y="353" type="curve" smooth="yes"/>
      <point x="227" y="383" type="line" smooth="yes"/>
      <point x="213" y="386"/>
      <point x="204" y="363"/>
      <point x="218" y="358" type="curve" smooth="yes"/>
    </contour>
    <contour>
      <point x="202" y="697" type="line"/>
      <point x="245" y="692" type="line"/>
      <point x="243" y="671" type="line" smooth="yes"/>
      <point x="241" y="657"/>
      <point x="194" y="659"/>
      <point x="198" y="675" type="curve" smooth="yes"/>
    </contour>
    <contour>
      <point x="112" y="707" type="line"/>
      <point x="157" y="701" type="line"/>
      <point x="147" y="671" type="line" smooth="yes"/>
      <point x="143" y="657"/>
      <point x="104" y="662"/>
      <point x="107" y="676" type="curve" smooth="yes"/>
    </contour>
    <contour>
      <point x="202" y="114" type="line"/>
      <point x="211" y="138" type="line"/>
      <point x="146" y="155" type="line" smooth="yes"/>
      <point x="130" y="160"/>
      <point x="123" y="137"/>
      <point x="139" y="132" type="curve" smooth="yes"/>
    </contour>
    <contour>
      <point x="357" y="442" type="line" smooth="yes"/>
      <point x="370" y="437"/>
      <point x="379" y="460"/>
      <point x="366" y="465" type="curve" smooth="yes"/>
      <point x="302" y="487" type="line" smooth="yes"/>
      <point x="290" y="491"/>
      <point x="282" y="470"/>
      <point x="296" y="464" type="curve" smooth="yes"/>
    </contour>
    <contour>
      <point x="274" y="688" type="line"/>
      <point x="315" y="683" type="line"/>
      <point x="310" y="657" type="line" smooth="yes"/>
      <point x="308" y="647"/>
      <point x="269" y="649"/>
      <point x="270" y="660" type="curve" smooth="yes"/>
    </contour>
  </outline>
</glyph>
<glyph name="eight" format="2">
  <advance width="539"/>
  <unicode hex="0038"/>
  <outline>
    <contour>
      <point x="281" y="330" type="curve" smooth="yes"/>
      <point x="392" y="330"/>
      <point x="509" y="376"/>
      <point x="509" y="518" type="curve" smooth="yes"/>
      <point x="509" y="649"/>
      <point x="428" y="715"/>
      <point x="281" y="715" type="curve" smooth="yes"/>
      <point x="144" y="715"/>
      <point x="43" y="649"/>
      <point x="43" y="521" type="curve" smooth="yes"/>
      <point x="43" y="381"/>
      <point x="148" y="330"/>
    </contour>
    <contour>
      <point x="279" y="-4" type="curve" smooth="yes"/>
      <point x="428" y="-4"/>
      <point x="505" y="61"/>
      <point x="505" y="186" type="curve" smooth="yes"/>
      <point x="505" y="302"/>
      <point x="400" y="350"/>
      <point x="286" y="350" type="curve" smooth="yes"/>
      <point x="156" y="350"/>
      <point x="52" y="297"/>
      <point x="51.993" y="175" type="curve" smooth="yes"/>
      <point x="52" y="52"/>
      <point x="126" y="-4"/>
    </contour>
    <contour>
      <point x="240" y="389" type="curve" smooth="yes"/>
      <point x="139" y="389"/>
      <point x="70" y="433"/>
      <point x="70" y="519" type="curve" smooth="yes"/>
      <point x="70" y="614"/>
      <point x="168" y="657"/>
      <point x="280" y="657" type="curve" smooth="yes"/>
      <point x="403" y="657"/>
      <point x="476" y="615"/>
      <point x="476" y="538" type="curve" smooth="yes"/>
      <point x="476" y="444"/>
      <point x="385" y="389"/>
    </contour>
    <contour>
      <point x="280" y="55" type="curve" smooth="yes"/>
      <point x="137" y="55"/>
      <point x="79" y="97"/>
      <point x="79" y="179" type="curve" smooth="yes"/>
      <point x="79" y="274"/>
      <point x="160" y="322"/>
      <point x="286" y="322" type="curve" smooth="yes"/>
      <point x="394" y="322"/>
      <point x="474" y="281"/>
      <point x="474" y="191" type="curve" smooth="yes"/>
      <point x="474" y="101"/>
      <point x="413" y="55"/>
    </contour>
    <contour>
      <point x="253" y="193" type="line" smooth="yes"/>
      <point x="260" y="208"/>
      <point x="239" y="219"/>
      <point x="231" y="208" type="curve" smooth="yes"/>
      <point x="200" y="168" type="line" smooth="yes"/>
      <point x="189" y="153"/>
      <point x="215" y="134"/>
      <point x="225" y="152" type="curve" smooth="yes"/>
    </contour>
    <contour>
      <point x="225" y="395" type="line" smooth="yes"/>
      <point x="224" y="410"/>
      <point x="202" y="408"/>
      <point x="203" y="394" type="curve" smooth="yes"/>
      <point x="214" y="262" type="line" smooth="yes"/>
      <point x="215" y="245"/>
      <point x="242" y="245"/>
      <point x="240" y="262" type="curve" smooth="yes"/>
    </contour>
    <contour>
      <point x="361" y="70" type="line" smooth="yes"/>
      <point x="354" y="86"/>
      <point x="329" y="76"/>
      <point x="335" y="61" type="curve" smooth="yes"/>
      <point x="373" y="-30" type="line" smooth="yes"/>
      <point x="381" y="-48"/>
      <point x="411" y="-37"/>
      <point x="403" y="-20" type="curve" smooth="yes"/>
    </contour>
    <contour>
      <point x="328" y="381" type="curve" smooth="yes"/>
      <point x="334" y="381"/>
      <point x="339" y="376"/>
      <point x="338.997" y="369.005" type="curve" smooth="yes"/>
      <point x="338.997" y="363.007"/>
      <point x="333.998" y="358.008"/>
      <point x="328" y="358" type="curve" smooth="yes"/>
      <point x="322" y="358"/>
      <point x="317" y="363"/>
      <point x="317" y="369" type="curve" smooth="yes"/>
      <point x="317" y="376"/>
      <point x="322" y="381"/>
    </contour>
    <contour>
      <point x="382" y="397" type="curve" smooth="yes"/>
      <point x="389" y="397"/>
      <point x="394" y="392"/>
      <point x="394" y="385" type="curve" smooth="yes"/>
      <point x="394" y="378"/>
      <point x="389" y="372"/>
      <point x="382" y="372" type="curve" smooth="yes"/>
      <point x="375" y="372"/>
      <point x="370" y="378"/>
      <point x="370" y="385" type="curve" smooth="yes"/>
      <point x="370" y="392"/>
      <point x="375" y="397"/>
    </contour>
    <contour>
      <point x="426" y="413" type="curve" smooth="yes"/>
      <point x="432" y="413"/>
      <point x="437" y="408"/>
      <point x="437" y="402" type="curve" smooth="yes"/>
      <point x="437" y="396"/>
      <point x="432" y="391"/>
      <point x="426" y="391" type="curve" smooth="yes"/>
      <point x="421" y="391"/>
      <point x="416" y="396"/>
      <point x="416" y="402" type="curve" smooth="yes"/>
      <point x="416" y="408"/>
      <point x="421" y="413"/>
    </contour>
    <contour>
      <point x="172" y="498" type="curve" smooth="yes"/>
      <point x="189" y="498"/>
      <point x="202" y="512"/>
      <point x="202" y="529" type="curve" smooth="yes"/>
      <point x="202" y="545"/>
      <point x="189" y="559"/>
      <point x="172" y="559" type="curve" smooth="yes"/>
      <point x="155" y="559"/>
      <point x="141" y="545"/>
      <point x="141" y="529" type="curve" smooth="yes"/>
      <point x="141" y="512"/>
      <point x="155" y="498"/>
    </contour>
    <contour>
      <point x="411" y="184" type="line" smooth="yes"/>
      <point x="398" y="187"/>
      <point x="394" y="168"/>
      <point x="406" y="164" type="curve" smooth="yes"/>
      <point x="483" y="145" type="line" smooth="yes"/>
      <point x="497" y="141"/>
      <point x="502" y="162"/>
      <point x="489" y="166" type="curve" smooth="yes"/>
    </contour>
    <contour>
      <point x="70" y="126" type="line"/>
      <point x="76" y="107" type="line"/>
      <point x="124" y="121" type="line" smooth="yes"/>
      <point x="139" y="124"/>
      <point x="132" y="146"/>
      <point x="119" y="142" type="curve" smooth="yes"/>
    </contour>
    <contour>
      <point x="126" y="299" type="line"/>
      <point x="112" y="286" type="line"/>
      <point x="146" y="246" type="line" smooth="yes"/>
      <point x="156" y="235"/>
      <point x="172" y="252"/>
      <point x="163" y="261" type="curve" smooth="yes"/>
    </contour>
    <contour>
      <point x="105" y="687" type="line" smooth="yes"/>
      <point x="94" y="699"/>
      <point x="82" y="685"/>
      <point x="91" y="674" type="curve" smooth="yes"/>
      <point x="144" y="607" type="line" smooth="yes"/>
      <point x="155" y="593"/>
      <point x="171" y="608"/>
      <point x="161" y="619" type="curve" smooth="yes"/>
    </contour>
    <contour>
      <point x="406" y="702" type="line" smooth="yes"/>
      <point x="412" y="713"/>
      <point x="393" y="722"/>
      <point x="388" y="713" type="curve" smooth="yes"/>
      <point x="371" y="679" type="line" smooth="yes"/>
      <point x="366" y="667"/>
      <point x="383" y="658"/>
      <point x="389" y="669" type="curve" smooth="yes"/>
    </contour>
    <contour>
      <point x="474" y="678" type="line" smooth="yes"/>
      <point x="484" y="690"/>
      <point x="467" y="705"/>
      <point x="458" y="693" type="curve" smooth="yes"/>
      <point x="403" y="634" type="line" smooth="yes"/>
      <point x="392" y="622"/>
      <point x="410" y="610"/>
      <point x="419" y="621" type="curve" smooth="yes"/>
    </contour>
    <contour>
      <point x="73" y="448" type="line"/>
      <point x="87" y="433" type="line"/>
      <point x="121" y="468" type="line" smooth="yes"/>
      <point x="130" y="478"/>
      <point x="117" y="490"/>
      <point x="108" y="482" type="curve" smooth="yes"/>
    </contour>
    <contour>
      <point x="490" y="527" type="line"/>
      <point x="442" y="542" type="line" smooth="yes"/>
      <point x="432" y="545"/>
      <point x="425" y="527"/>
      <point x="436" y="523" type="curve" smooth="yes"/>
      <point x="484" y="507" type="line"/>
    </contour>
  </outline>
</glyph>
<glyph name="nine" format="2">
  <advance width="514"/>
  <unicode hex="0039"/>
  <outline>
    <contour>
      <point x="44" y="493" type="curve" smooth="yes"/>
      <point x="44" y="356"/>
      <point x="131" y="295"/>
      <point x="230" y="295" type="curve" smooth="yes"/>
      <point x="288" y="295"/>
      <point x="311" y="309"/>
      <point x="328" y="309" type="curve" smooth="yes"/>
      <point x="334" y="309"/>
      <point x="337" y="306"/>
      <point x="337" y="302" type="curve" smooth="yes"/>
      <point x="337" y="296"/>
      <point x="333" y="287"/>
      <point x="326" y="277" type="curve" smooth="yes"/>
      <point x="185" y="64" type="line" smooth="yes"/>
      <point x="138" y="-6"/>
      <point x="242" y="-58"/>
      <point x="275" y="4" type="curve" smooth="yes"/>
      <point x="427" y="291" type="line" smooth="yes"/>
      <point x="462" y="357"/>
      <point x="488" y="419"/>
      <point x="488" y="498" type="curve" smooth="yes"/>
      <point x="488" y="626"/>
      <point x="407" y="708"/>
      <point x="261" y="708" type="curve" smooth="yes"/>
      <point x="127" y="708"/>
      <point x="44" y="625"/>
    </contour>
    <contour>
      <point x="73" y="495" type="curve" smooth="yes"/>
      <point x="73" y="616"/>
      <point x="148" y="683"/>
      <point x="253" y="683" type="curve" smooth="yes"/>
      <point x="353" y="683"/>
      <point x="427" y="620"/>
      <point x="427" y="500" type="curve" smooth="yes"/>
      <point x="427" y="372"/>
      <point x="334" y="319"/>
      <point x="240" y="319" type="curve" smooth="yes"/>
      <point x="125" y="319"/>
      <point x="73" y="385"/>
    </contour>
    <contour>
      <point x="325" y="94" type="line"/>
      <point x="303" y="52" type="line"/>
      <point x="285" y="57" type="line" smooth="yes"/>
      <point x="271" y="61"/>
      <point x="291" y="103"/>
      <point x="305" y="99" type="curve" smooth="yes"/>
    </contour>
    <contour>
      <point x="385" y="209" type="line"/>
      <point x="364" y="168" type="line"/>
      <point x="346" y="178" type="line" smooth="yes"/>
      <point x="335" y="184"/>
      <point x="356" y="219"/>
      <point x="368" y="215" type="curve" smooth="yes"/>
    </contour>
    <contour>
      <point x="310" y="356" type="curve" smooth="yes"/>
      <point x="332" y="356"/>
      <point x="349" y="373"/>
      <point x="349" y="395" type="curve" smooth="yes"/>
      <point x="349" y="417"/>
      <point x="332" y="435"/>
      <point x="310" y="435" type="curve" smooth="yes"/>
      <point x="288" y="435"/>
      <point x="271" y="417"/>
      <point x="271" y="395" type="curve" smooth="yes"/>
      <point x="271" y="373"/>
      <point x="288" y="356"/>
    </contour>
    <contour>
      <point x="242" y="151" type="line"/>
      <point x="267" y="188" type="line"/>
      <point x="287" y="175" type="line" smooth="yes"/>
      <point x="298" y="168"/>
      <point x="279" y="135"/>
      <point x="267" y="140" type="curve" smooth="yes"/>
    </contour>
    <contour>
      <point x="189" y="737" type="line" smooth="yes"/>
      <point x="184" y="748"/>
      <point x="164" y="740"/>
      <point x="168" y="728" type="curve" smooth="yes"/>
      <point x="183" y="687" type="line" smooth="yes"/>
      <point x="187" y="676"/>
      <point x="210" y="685"/>
      <point x="205" y="695" type="curve" smooth="yes"/>
    </contour>
    <contour>
      <point x="295" y="725" type="line" smooth="yes"/>
      <point x="295" y="741"/>
      <point x="272" y="741"/>
      <point x="272" y="726" type="curve" smooth="yes"/>
      <point x="271" y="660" type="line" smooth="yes"/>
      <point x="271" y="648"/>
      <point x="291" y="648"/>
      <point x="292" y="659" type="curve" smooth="yes"/>
    </contour>
    <contour>
      <point x="46" y="412" type="line" smooth="yes"/>
      <point x="35" y="407"/>
      <point x="43" y="390"/>
      <point x="54" y="394" type="curve" smooth="yes"/>
      <point x="108" y="418" type="line" smooth="yes"/>
      <point x="119" y="423"/>
      <point x="110" y="441"/>
      <point x="100.993" y="436.997" type="curve" smooth="yes"/>
    </contour>
    <contour>
      <point x="349" y="611" type="line" smooth="yes"/>
      <point x="340" y="601"/>
      <point x="354" y="587"/>
      <point x="363" y="596" type="curve" smooth="yes"/>
      <point x="442" y="665" type="line" smooth="yes"/>
      <point x="453" y="674"/>
      <point x="435" y="690"/>
      <point x="426" y="681" type="curve" smooth="yes"/>
    </contour>
    <contour>
      <point x="405" y="517" type="line" smooth="yes"/>
      <point x="393" y="519"/>
      <point x="388" y="501"/>
      <point x="400" y="498" type="curve" smooth="yes"/>
      <point x="446" y="486" type="line"/>
      <point x="450" y="507" type="line"/>
    </contour>
    <contour>
      <point x="81" y="328" type="line" smooth="yes"/>
      <point x="75" y="318"/>
      <point x="92" y="309"/>
      <point x="97" y="318" type="curve" smooth="yes"/>
      <point x="114" y="354" type="line"/>
      <point x="97" y="365" type="line"/>
    </contour>
    <contour>
      <point x="115.003" y="284.004" type="line" smooth="yes"/>
      <point x="108.007" y="272.006"/>
      <point x="126" y="265"/>
      <point x="132" y="276" type="curve" smooth="yes"/>
      <point x="161" y="329" type="line"/>
      <point x="145" y="336" type="line"/>
    </contour>
    <contour>
      <point x="183" y="271" type="line" smooth="yes"/>
      <point x="184" y="258"/>
      <point x="204" y="259"/>
      <point x="203" y="271" type="curve" smooth="yes"/>
      <point x="196" y="316" type="line"/>
      <point x="179" y="315" type="line"/>
    </contour>
  </outline>
</glyph>
<glyph name="colon" format="2">
  <advance width="212"/>
  <unicode hex="003A"/>
  <outline>
    <contour>
      <point x="101" y="-16" type="curve" smooth="yes"/>
      <point x="133" y="-16"/>
      <point x="159" y="10"/>
      <point x="159" y="43" type="curve" smooth="yes"/>
      <point x="159" y="76"/>
      <point x="136" y="103"/>
      <point x="103" y="103" type="curve" smooth="yes"/>
      <point x="71" y="103"/>
      <point x="45" y="77"/>
      <point x="45" y="45" type="curve" smooth="yes"/>
      <point x="45" y="9"/>
      <point x="69" y="-16"/>
    </contour>
    <contour>
      <point x="107" y="421" type="curve" smooth="yes"/>
      <point x="142" y="421"/>
      <point x="170" y="449"/>
      <point x="170" y="484" type="curve" smooth="yes"/>
      <point x="170" y="520"/>
      <point x="145" y="549"/>
      <point x="109" y="549" type="curve" smooth="yes"/>
      <point x="73" y="549"/>
      <point x="45" y="521"/>
      <point x="45" y="487" type="curve" smooth="yes"/>
      <point x="45" y="448"/>
      <point x="71" y="421"/>
    </contour>
    <contour>
      <point x="107" y="473" type="curve" smooth="yes"/>
      <point x="99" y="473"/>
      <point x="92" y="480"/>
      <point x="92" y="488" type="curve" smooth="yes"/>
      <point x="92" y="496"/>
      <point x="99" y="502"/>
      <point x="107" y="502" type="curve" smooth="yes"/>
      <point x="116" y="502"/>
      <point x="123" y="496"/>
      <point x="123" y="488" type="curve" smooth="yes"/>
      <point x="123" y="480"/>
      <point x="116" y="473"/>
    </contour>
  </outline>
</glyph>
<glyph name="semicolon" format="2">
  <advance width="211"/>
  <unicode hex="003B"/>
  <outline>
    <contour>
      <point x="106" y="423" type="curve" smooth="yes"/>
      <point x="140" y="423"/>
      <point x="167" y="451"/>
      <point x="167" y="486" type="curve" smooth="yes"/>
      <point x="167" y="521"/>
      <point x="143" y="550"/>
      <point x="108" y="550" type="curve" smooth="yes"/>
      <point x="73" y="550"/>
      <point x="46" y="522"/>
      <point x="46" y="489" type="curve" smooth="yes"/>
      <point x="46" y="450"/>
      <point x="71" y="423"/>
    </contour>
    <contour>
      <point x="34" y="-175" type="curve" smooth="yes"/>
      <point x="16" y="-184"/>
      <point x="28" y="-207"/>
      <point x="45" y="-200" type="curve" smooth="yes"/>
      <point x="116" y="-164"/>
      <point x="168" y="-101"/>
      <point x="168" y="21" type="curve" smooth="yes"/>
      <point x="168" y="77"/>
      <point x="145" y="105"/>
      <point x="103" y="105" type="curve" smooth="yes"/>
      <point x="67" y="105"/>
      <point x="41" y="81"/>
      <point x="41" y="45" type="curve" smooth="yes"/>
      <point x="41" y="12"/>
      <point x="59" y="-13"/>
      <point x="94" y="-16" type="curve" smooth="yes"/>
      <point x="120" y="-20"/>
      <point x="128.004" y="-27.99"/>
      <point x="128" y="-47" type="curve" smooth="yes"/>
      <point x="128" y="-82"/>
      <point x="98" y="-142"/>
    </contour>
    <contour>
      <point x="104" y="27" type="curve" smooth="yes"/>
      <point x="96" y="27"/>
      <point x="89" y="33"/>
      <point x="89" y="41" type="curve" smooth="yes"/>
      <point x="89" y="49"/>
      <point x="96" y="55"/>
      <point x="104" y="55" type="curve" smooth="yes"/>
      <point x="111" y="55"/>
      <point x="118" y="49"/>
      <point x="118" y="41" type="curve" smooth="yes"/>
      <point x="118" y="33"/>
      <point x="111" y="27"/>
    </contour>
  </outline>
</glyph>
<glyph name="less" format="2">
  <advance width="364"/>
  <unicode hex="003C"/>
  <outline>
    <contour>
      <point x="295" y="100" type="line" smooth="yes"/>
      <point x="314" y="82"/>
      <point x="338" y="113"/>
      <point x="317" y="130" type="curve" smooth="yes"/>
      <point x="75" y="314" type="line" smooth="yes"/>
      <point x="57" y="328"/>
      <point x="59" y="344"/>
      <point x="77" y="357" type="curve" smooth="yes"/>
      <point x="319" y="529" type="line" smooth="yes"/>
      <point x="336" y="541"/>
      <point x="322" y="562"/>
      <point x="305" y="550" type="curve" smooth="yes"/>
      <point x="49" y="378" type="line" smooth="yes"/>
      <point x="23" y="360"/>
      <point x="23" y="324"/>
      <point x="45" y="306" type="curve" smooth="yes"/>
    </contour>
  </outline>
</glyph>
<glyph name="equal" format="2">
  <advance width="412"/>
  <unicode hex="003D"/>
  <outline>
    <contour>
      <point x="46" y="415" type="line" smooth="yes"/>
      <point x="29" y="415"/>
      <point x="28" y="389"/>
      <point x="46" y="388" type="curve" smooth="yes"/>
      <point x="358" y="381" type="line" smooth="yes"/>
      <point x="380" y="381"/>
      <point x="380" y="413"/>
      <point x="358" y="413" type="curve" smooth="yes"/>
    </contour>
    <contour>
      <point x="50" y="276" type="line" smooth="yes"/>
      <point x="29" y="276"/>
      <point x="30" y="243"/>
      <point x="51" y="244" type="curve" smooth="yes"/>
      <point x="371" y="258" type="line" smooth="yes"/>
      <point x="389" y="259"/>
      <point x="388" y="285"/>
      <point x="370" y="284" type="curve" smooth="yes"/>
    </contour>
  </outline>
</glyph>
<glyph name="greater" format="2">
  <advance width="356"/>
  <unicode hex="003E"/>
  <outline>
    <contour>
      <point x="75" y="68" type="curve" smooth="yes"/>
      <point x="312" y="289" type="line" smooth="yes"/>
      <point x="335.995" y="311.002"/>
      <point x="335" y="351"/>
      <point x="311" y="369" type="curve" smooth="yes"/>
      <point x="76" y="548" type="line" smooth="yes"/>
      <point x="55" y="566"/>
      <point x="31" y="535"/>
      <point x="53" y="519" type="curve" smooth="yes"/>
      <point x="288" y="354" type="line" smooth="yes"/>
      <point x="308" y="339"/>
      <point x="308" y="321"/>
      <point x="291" y="307" type="curve" smooth="yes"/>
      <point x="49" y="95" type="line" smooth="yes"/>
      <point x="27" y="76"/>
      <point x="56" y="47"/>
    </contour>
  </outline>
</glyph>
<glyph name="question" format="2">
  <advance width="429"/>
  <unicode hex="003F"/>
  <outline>
    <contour>
      <point x="173" y="-16" type="curve" smooth="yes"/>
      <point x="204" y="-16"/>
      <point x="231" y="10"/>
      <point x="231" y="43" type="curve" smooth="yes"/>
      <point x="231" y="75"/>
      <point x="204" y="101"/>
      <point x="173" y="101" type="curve" smooth="yes"/>
      <point x="139" y="101"/>
      <point x="113" y="75"/>
      <point x="113" y="43" type="curve" smooth="yes"/>
      <point x="113" y="10"/>
      <point x="139" y="-15.991"/>
    </contour>
    <contour>
      <point x="155" y="219" type="curve" smooth="yes"/>
      <point x="242" y="264"/>
      <point x="277" y="312"/>
      <point x="288" y="368" type="curve" smooth="yes"/>
      <point x="333" y="462"/>
      <point x="335" y="534"/>
      <point x="293" y="594" type="curve" smooth="yes"/>
      <point x="252" y="656"/>
      <point x="179" y="675"/>
      <point x="131" y="654" type="curve" smooth="yes"/>
      <point x="76" y="642"/>
      <point x="41" y="594"/>
      <point x="51" y="586" type="curve" smooth="yes"/>
      <point x="66" y="582"/>
      <point x="82" y="586"/>
      <point x="120" y="586" type="curve" smooth="yes"/>
      <point x="168" y="586"/>
      <point x="218" y="611"/>
      <point x="276" y="577" type="curve" smooth="yes"/>
      <point x="325" y="532"/>
      <point x="333" y="458"/>
      <point x="256" y="375" type="curve" smooth="yes"/>
      <point x="252" y="329"/>
      <point x="201" y="295"/>
      <point x="143" y="276" type="curve" smooth="yes"/>
      <point x="125" y="267"/>
      <point x="119" y="257"/>
      <point x="122.998" y="241.006" type="curve" smooth="yes"/>
      <point x="124" y="226"/>
      <point x="137" y="217"/>
    </contour>
    <contour>
      <point x="98" y="686" type="line" smooth="yes"/>
      <point x="90" y="702"/>
      <point x="67" y="691"/>
      <point x="74" y="674" type="curve" smooth="yes"/>
      <point x="98" y="619" type="line"/>
      <point x="124" y="635" type="line"/>
    </contour>
    <contour>
      <point x="231" y="698" type="line" smooth="yes"/>
      <point x="235" y="717"/>
      <point x="203" y="720"/>
      <point x="203" y="700" type="curve" smooth="yes"/>
      <point x="202" y="651" type="line"/>
      <point x="224" y="648" type="line"/>
    </contour>
    <contour>
      <point x="355" y="634" type="line" smooth="yes"/>
      <point x="370" y="646"/>
      <point x="345" y="674"/>
      <point x="331" y="654" type="curve" smooth="yes"/>
      <point x="305" y="623" type="line"/>
      <point x="324" y="605" type="line"/>
    </contour>
    <contour>
      <point x="363" y="474" type="line"/>
      <point x="362" y="447" type="line"/>
      <point x="395" y="443" type="line" smooth="yes"/>
      <point x="412" y="442"/>
      <point x="412" y="470"/>
      <point x="396" y="471" type="curve" smooth="yes"/>
    </contour>
    <contour>
      <point x="315" y="372" type="line"/>
      <point x="295" y="348" type="line"/>
      <point x="329" y="317" type="line" smooth="yes"/>
      <point x="344" y="303"/>
      <point x="365" y="328"/>
      <point x="351" y="341" type="curve" smooth="yes"/>
    </contour>
    <contour>
      <point x="159" y="240" type="curve" smooth="yes"/>
      <point x="152" y="240"/>
      <point x="146" y="245"/>
      <point x="146" y="252" type="curve" smooth="yes"/>
      <point x="146" y="259"/>
      <point x="152" y="265"/>
      <point x="159" y="265" type="curve" smooth="yes"/>
      <point x="166" y="265"/>
      <point x="172" y="259"/>
      <point x="172" y="252" type="curve" smooth="yes"/>
      <point x="172" y="245"/>
      <point x="166" y="240"/>
    </contour>
    <contour>
      <point x="226" y="278" type="curve" smooth="yes"/>
      <point x="220" y="278"/>
      <point x="215" y="284"/>
      <point x="215" y="290" type="curve" smooth="yes"/>
      <point x="215" y="296"/>
      <point x="220" y="301"/>
      <point x="226" y="301" type="curve" smooth="yes"/>
      <point x="233" y="301"/>
      <point x="238" y="296"/>
      <point x="238" y="290" type="curve" smooth="yes"/>
      <point x="238" y="284"/>
      <point x="233" y="278"/>
    </contour>
    <contour>
      <point x="159" y="708" type="line" smooth="yes"/>
      <point x="155" y="724"/>
      <point x="129" y="718"/>
      <point x="134" y="701" type="curve" smooth="yes"/>
      <point x="162" y="584" type="line" smooth="yes"/>
      <point x="166" y="566"/>
      <point x="189" y="573"/>
      <point x="185" y="590" type="curve" smooth="yes"/>
    </contour>
    <contour>
      <point x="392" y="549" type="line" smooth="yes"/>
      <point x="406" y="555"/>
      <point x="394.996" y="579.009"/>
      <point x="381" y="572" type="curve" smooth="yes"/>
      <point x="317" y="544" type="line" smooth="yes"/>
      <point x="303" y="537"/>
      <point x="313" y="515"/>
      <point x="326" y="520" type="curve" smooth="yes"/>
    </contour>
  </outline>
</glyph>
<glyph name="at" format="2">
  <advance width="728"/>
  <unicode hex="0040"/>
  <outline>
    <contour>
      <point x="350.009" y="-37.995" type="curve" smooth="yes"/>
      <point x="426" y="-38"/>
      <point x="523" y="-10"/>
      <point x="582" y="21" type="curve" smooth="yes"/>
      <point x="606.001" y="33.997"/>
      <point x="592" y="58"/>
      <point x="572" y="48" type="curve" smooth="yes"/>
      <point x="511" y="17"/>
      <point x="432" y="-11"/>
      <point x="351" y="-11" type="curve" smooth="yes"/>
      <point x="176" y="-11"/>
      <point x="73" y="122"/>
      <point x="73" y="352" type="curve" smooth="yes"/>
      <point x="73" y="640"/>
      <point x="212" y="725"/>
      <point x="370" y="725" type="curve" smooth="yes"/>
      <point x="551" y="725"/>
      <point x="663" y="632"/>
      <point x="663" y="414" type="curve" smooth="yes"/>
      <point x="663" y="252"/>
      <point x="636" y="181"/>
      <point x="569" y="181" type="curve" smooth="yes"/>
      <point x="531" y="181"/>
      <point x="497" y="213"/>
      <point x="501" y="253" type="curve" smooth="yes"/>
      <point x="515" y="423" type="line" smooth="yes"/>
      <point x="524" y="513"/>
      <point x="477" y="587"/>
      <point x="383" y="587" type="curve" smooth="yes"/>
      <point x="287" y="587"/>
      <point x="211" y="527"/>
      <point x="211" y="348" type="curve" smooth="yes"/>
      <point x="211" y="207"/>
      <point x="278" y="152"/>
      <point x="367" y="152" type="curve" smooth="yes"/>
      <point x="418" y="152"/>
      <point x="451" y="169"/>
      <point x="475" y="199" type="curve" smooth="yes"/>
      <point x="481" y="206"/>
      <point x="487" y="205"/>
      <point x="491" y="198" type="curve" smooth="yes"/>
      <point x="506" y="172"/>
      <point x="534" y="153"/>
      <point x="567" y="153" type="curve" smooth="yes"/>
      <point x="646" y="153"/>
      <point x="693" y="220"/>
      <point x="693" y="419" type="curve" smooth="yes"/>
      <point x="693" y="647"/>
      <point x="569" y="753"/>
      <point x="370" y="753" type="curve" smooth="yes"/>
      <point x="203" y="753"/>
      <point x="42" y="662"/>
      <point x="42" y="356" type="curve" smooth="yes"/>
      <point x="42" y="108"/>
      <point x="152" y="-38"/>
    </contour>
    <contour>
      <point x="277" y="333" type="curve" smooth="yes"/>
      <point x="277" y="455"/>
      <point x="336" y="512"/>
      <point x="406" y="512" type="curve" smooth="yes"/>
      <point x="456" y="512"/>
      <point x="493" y="483"/>
      <point x="485" y="404" type="curve" smooth="yes"/>
      <point x="476" y="259" type="line" smooth="yes"/>
      <point x="470" y="211"/>
      <point x="433" y="180"/>
      <point x="374" y="180" type="curve" smooth="yes"/>
      <point x="316" y="180"/>
      <point x="277" y="212"/>
    </contour>
    <contour>
      <point x="454" y="45" type="line" smooth="yes"/>
      <point x="452" y="61"/>
      <point x="429" y="57"/>
      <point x="433" y="39" type="curve" smooth="yes"/>
      <point x="449" y="-60" type="line" smooth="yes"/>
      <point x="452" y="-75"/>
      <point x="475" y="-71"/>
      <point x="472" y="-52" type="curve" smooth="yes"/>
    </contour>
    <contour>
      <point x="349" y="103" type="line" smooth="yes"/>
      <point x="352" y="121"/>
      <point x="328" y="126"/>
      <point x="325" y="106" type="curve" smooth="yes"/>
      <point x="315" y="32" type="line" smooth="yes"/>
      <point x="313" y="18"/>
      <point x="334" y="11"/>
      <point x="337" y="32" type="curve" smooth="yes"/>
    </contour>
    <contour>
      <point x="330" y="498" type="curve" smooth="yes"/>
      <point x="323" y="498"/>
      <point x="317" y="503"/>
      <point x="317" y="511" type="curve" smooth="yes"/>
      <point x="317" y="518"/>
      <point x="323" y="523"/>
      <point x="330" y="523" type="curve" smooth="yes"/>
      <point x="337" y="523"/>
      <point x="342" y="518"/>
      <point x="342" y="511" type="curve" smooth="yes"/>
      <point x="342" y="503"/>
      <point x="337" y="498"/>
    </contour>
    <contour>
      <point x="291" y="442" type="curve" smooth="yes"/>
      <point x="284" y="442"/>
      <point x="278" y="447"/>
      <point x="278" y="454" type="curve" smooth="yes"/>
      <point x="278" y="461"/>
      <point x="284" y="467"/>
      <point x="291" y="467" type="curve" smooth="yes"/>
      <point x="298" y="467"/>
      <point x="303" y="461"/>
      <point x="303" y="454" type="curve" smooth="yes"/>
      <point x="303" y="447"/>
      <point x="298" y="442"/>
    </contour>
    <contour>
      <point x="549" y="731" type="line" smooth="yes"/>
      <point x="557" y="745"/>
      <point x="532" y="759"/>
      <point x="524" y="743" type="curve" smooth="yes"/>
      <point x="489" y="684" type="line" smooth="yes"/>
      <point x="481" y="670"/>
      <point x="506" y="659"/>
      <point x="513" y="672" type="curve" smooth="yes"/>
    </contour>
    <contour>
      <point x="638" y="697" type="line" smooth="yes"/>
      <point x="651" y="709"/>
      <point x="629" y="728"/>
      <point x="617" y="717" type="curve" smooth="yes"/>
      <point x="540" y="642" type="line" smooth="yes"/>
      <point x="530" y="632"/>
      <point x="552" y="613"/>
      <point x="560" y="622" type="curve" smooth="yes"/>
    </contour>
    <contour>
      <point x="145" y="713" type="line" smooth="yes"/>
      <point x="134" y="723"/>
      <point x="116" y="706"/>
      <point x="127" y="696" type="curve" smooth="yes"/>
      <point x="186" y="642" type="line" smooth="yes"/>
      <point x="195" y="633"/>
      <point x="210" y="649"/>
      <point x="201" y="658" type="curve" smooth="yes"/>
    </contour>
  </outline>
</glyph>
<glyph name="A" format="2">
  <advance width="523"/>
  <unicode hex="0041"/>
  <anchor x="510" y="-34" name="ogonek"/>
  <anchor x="299" y="686" name="top"/>
  <outline>
    <contour>
      <point x="480" y="-13" type="line" smooth="yes"/>
      <point x="486" y="-35"/>
      <point x="508" y="-26"/>
      <point x="504" y="-5" type="curve" smooth="yes"/>
      <point x="392" y="604" type="line" smooth="yes"/>
      <point x="380" y="672"/>
      <point x="343" y="699"/>
      <point x="300" y="699" type="curve" smooth="yes"/>
      <point x="254" y="700"/>
      <point x="217" y="674"/>
      <point x="201" y="623" type="curve" smooth="yes"/>
      <point x="28" y="56" type="line" smooth="yes"/>
      <point x="17" y="18"/>
      <point x="69" y="3"/>
      <point x="79" y="40" type="curve" smooth="yes"/>
      <point x="235" y="579" type="line" smooth="yes"/>
      <point x="247" y="615"/>
      <point x="266" y="630"/>
      <point x="288" y="630" type="curve" smooth="yes"/>
      <point x="313" y="630"/>
      <point x="327" y="613"/>
      <point x="335" y="578" type="curve" smooth="yes"/>
    </contour>
    <contour>
      <point x="153" y="357" type="line"/>
      <point x="281" y="350" type="line" smooth="yes"/>
      <point x="296" y="349"/>
      <point x="298" y="373"/>
      <point x="280" y="374" type="curve" smooth="yes"/>
      <point x="159" y="378" type="line"/>
    </contour>
    <contour>
      <point x="425" y="280" type="line"/>
      <point x="418" y="304" type="line"/>
      <point x="276" y="305" type="line" smooth="yes"/>
      <point x="259" y="305"/>
      <point x="260" y="280"/>
      <point x="276" y="280" type="curve" smooth="yes"/>
    </contour>
    <contour>
      <point x="123" y="229" type="line"/>
      <point x="438" y="215" type="line"/>
      <point x="431" y="241" type="line"/>
      <point x="130" y="253" type="line"/>
    </contour>
    <contour>
      <point x="95" y="152" type="line"/>
      <point x="288" y="141" type="line" smooth="yes"/>
      <point x="303" y="141"/>
      <point x="304" y="167"/>
      <point x="288" y="167" type="curve" smooth="yes"/>
      <point x="98" y="176" type="line"/>
    </contour>
    <contour>
      <point x="198" y="508" type="line"/>
      <point x="211" y="542" type="line"/>
      <point x="157" y="564" type="line" smooth="yes"/>
      <point x="131" y="571"/>
      <point x="124" y="539"/>
      <point x="145" y="532" type="curve" smooth="yes"/>
    </contour>
    <contour>
      <point x="169.992" y="419.002" type="line"/>
      <point x="180" y="449" type="line"/>
      <point x="137" y="462" type="line" smooth="yes"/>
      <point x="115" y="470"/>
      <point x="104" y="431"/>
      <point x="129" y="426" type="curve" smooth="yes"/>
    </contour>
    <contour>
      <point x="127" y="263" type="line"/>
      <point x="136" y="298" type="line"/>
      <point x="93" y="310" type="line" smooth="yes"/>
      <point x="67" y="317"/>
      <point x="62" y="279"/>
      <point x="84" y="274" type="curve" smooth="yes"/>
    </contour>
    <contour>
      <point x="410" y="445" type="line" smooth="yes"/>
      <point x="395" y="440"/>
      <point x="385" y="483"/>
      <point x="400" y="486" type="curve" smooth="yes"/>
      <point x="414" y="489" type="line"/>
      <point x="422" y="449" type="line"/>
    </contour>
    <contour>
      <point x="388" y="523" type="line" smooth="yes"/>
      <point x="372" y="524"/>
      <point x="366" y="561"/>
      <point x="380" y="563" type="curve" smooth="yes"/>
      <point x="400" y="567" type="line"/>
      <point x="408" y="521" type="line"/>
    </contour>
  </outline>
</glyph>
<glyph name="B" format="2">
  <advance width="540"/>
  <unicode hex="0042"/>
  <anchor x="262" y="0" name="bottom"/>
  <anchor x="254" y="716" name="top"/>
  <outline>
    <contour>
      <point x="87" y="81" type="line" smooth="yes"/>
      <point x="91" y="23"/>
      <point x="115" y="-6"/>
      <point x="191" y="-6" type="curve" smooth="yes"/>
      <point x="269" y="-6" type="line" smooth="yes"/>
      <point x="405" y="-6"/>
      <point x="504" y="60"/>
      <point x="504" y="204" type="curve" smooth="yes"/>
      <point x="504" y="323"/>
      <point x="425" y="375"/>
      <point x="351" y="386" type="curve" smooth="yes"/>
      <point x="339" y="388"/>
      <point x="338" y="396"/>
      <point x="349" y="402" type="curve" smooth="yes"/>
      <point x="397" y="428"/>
      <point x="435" y="468"/>
      <point x="435" y="535" type="curve" smooth="yes"/>
      <point x="435" y="636"/>
      <point x="361" y="682"/>
      <point x="287" y="679" type="curve" smooth="yes"/>
      <point x="128" y="671" type="line" smooth="yes"/>
      <point x="85" y="669"/>
      <point x="61" y="648"/>
      <point x="65" y="598" type="curve" smooth="yes"/>
    </contour>
    <contour>
      <point x="283" y="654" type="line" smooth="yes"/>
      <point x="361" y="657"/>
      <point x="409" y="609"/>
      <point x="409" y="535" type="curve" smooth="yes"/>
      <point x="409" y="468"/>
      <point x="362" y="420"/>
      <point x="303" y="406" type="curve" smooth="yes"/>
      <point x="213" y="399" type="line" smooth="yes"/>
      <point x="158" y="382"/>
      <point x="130" y="389"/>
      <point x="129" y="426" type="curve" smooth="yes"/>
      <point x="128" y="593" type="line" smooth="yes"/>
      <point x="127" y="634"/>
      <point x="145" y="647"/>
      <point x="183" y="649" type="curve" smooth="yes"/>
    </contour>
    <contour>
      <point x="132" y="85" type="curve" smooth="yes"/>
      <point x="127" y="292" type="line" smooth="yes"/>
      <point x="123" y="352"/>
      <point x="147" y="370"/>
      <point x="237" y="370" type="curve"/>
      <point x="307" y="370" type="line"/>
      <point x="419" y="370"/>
      <point x="474" y="308.005"/>
      <point x="430" y="177" type="curve" smooth="yes"/>
      <point x="390" y="52"/>
      <point x="329" y="22"/>
      <point x="251" y="21" type="curve" smooth="yes"/>
      <point x="192" y="21" type="line" smooth="yes"/>
      <point x="165" y="21"/>
      <point x="136" y="32"/>
    </contour>
    <contour>
      <point x="472" y="195" type="curve" smooth="yes"/>
      <point x="467" y="195"/>
      <point x="462" y="200"/>
      <point x="462" y="206" type="curve" smooth="yes"/>
      <point x="462" y="212"/>
      <point x="467" y="217"/>
      <point x="472" y="217" type="curve" smooth="yes"/>
      <point x="478" y="217"/>
      <point x="483" y="212"/>
      <point x="483" y="206" type="curve" smooth="yes"/>
      <point x="483" y="200"/>
      <point x="478" y="195"/>
    </contour>
    <contour>
      <point x="455" y="128" type="curve" smooth="yes"/>
      <point x="448" y="128"/>
      <point x="442.992" y="133.007"/>
      <point x="443" y="141" type="curve" smooth="yes"/>
      <point x="442.992" y="147.002"/>
      <point x="448" y="153"/>
      <point x="455" y="153" type="curve" smooth="yes"/>
      <point x="463" y="153"/>
      <point x="468" y="147"/>
      <point x="468" y="141" type="curve" smooth="yes"/>
      <point x="468" y="133"/>
      <point x="463" y="128"/>
    </contour>
    <contour>
      <point x="429" y="83" type="curve" smooth="yes"/>
      <point x="423" y="83"/>
      <point x="418" y="88"/>
      <point x="418" y="94" type="curve" smooth="yes"/>
      <point x="418" y="100"/>
      <point x="423" y="105"/>
      <point x="429" y="105" type="curve" smooth="yes"/>
      <point x="434" y="105"/>
      <point x="438.998" y="99.99"/>
      <point x="439" y="94" type="curve" smooth="yes"/>
      <point x="439" y="88"/>
      <point x="434" y="83"/>
    </contour>
    <contour>
      <point x="145" y="703" type="line" smooth="yes"/>
      <point x="143" y="722"/>
      <point x="113.004" y="720.001"/>
      <point x="117" y="701" type="curve" smooth="yes"/>
      <point x="127" y="654" type="line"/>
      <point x="151" y="658" type="line"/>
    </contour>
    <contour>
      <point x="207" y="697" type="line" smooth="yes"/>
      <point x="204" y="714"/>
      <point x="184" y="709"/>
      <point x="186" y="695" type="curve" smooth="yes"/>
      <point x="194" y="638" type="line" smooth="yes"/>
      <point x="196" y="623"/>
      <point x="219" y="626"/>
      <point x="216" y="641" type="curve" smooth="yes"/>
    </contour>
    <contour>
      <point x="293" y="718" type="line" smooth="yes"/>
      <point x="296" y="736"/>
      <point x="265" y="739"/>
      <point x="264" y="720" type="curve" smooth="yes"/>
      <point x="259" y="662" type="line"/>
      <point x="283" y="661" type="line"/>
    </contour>
    <contour>
      <point x="366" y="692" type="line" smooth="yes"/>
      <point x="372" y="709"/>
      <point x="346" y="717"/>
      <point x="342" y="701" type="curve" smooth="yes"/>
      <point x="334" y="659" type="line"/>
      <point x="353" y="652" type="line"/>
    </contour>
    <contour>
      <point x="442" y="639" type="line" smooth="yes"/>
      <point x="460" y="650"/>
      <point x="437" y="679"/>
      <point x="421" y="664" type="curve" smooth="yes"/>
      <point x="384" y="629" type="line"/>
      <point x="398" y="612" type="line"/>
    </contour>
    <contour>
      <point x="482" y="563" type="line" smooth="yes"/>
      <point x="497" y="565"/>
      <point x="493" y="590"/>
      <point x="477" y="587" type="curve" smooth="yes"/>
      <point x="347" y="566" type="line" smooth="yes"/>
      <point x="333" y="563"/>
      <point x="338" y="541"/>
      <point x="352" y="543" type="curve" smooth="yes"/>
    </contour>
    <contour>
      <point x="458" y="480" type="line" smooth="yes"/>
      <point x="475" y="476"/>
      <point x="479" y="505"/>
      <point x="460" y="507" type="curve" smooth="yes"/>
      <point x="417" y="513" type="line"/>
      <point x="412" y="492" type="line"/>
    </contour>
    <contour>
      <point x="146" y="101" type="line" smooth="yes"/>
      <point x="162" y="109"/>
      <point x="151" y="133"/>
      <point x="134" y="125" type="curve" smooth="yes"/>
      <point x="73.991" y="99.005" type="line" smooth="yes"/>
      <point x="55" y="91"/>
      <point x="67" y="62"/>
      <point x="84" y="71" type="curve" smooth="yes"/>
    </contour>
    <contour>
      <point x="206" y="51" type="line" smooth="yes"/>
      <point x="215" y="67"/>
      <point x="190" y="78"/>
      <point x="182" y="65" type="curve" smooth="yes"/>
      <point x="137" y="-11" type="line" smooth="yes"/>
      <point x="128" y="-27"/>
      <point x="153" y="-37"/>
      <point x="160" y="-25" type="curve" smooth="yes"/>
    </contour>
    <contour>
      <point x="198" y="105" type="curve" smooth="yes"/>
      <point x="215" y="105"/>
      <point x="230" y="119"/>
      <point x="230" y="137" type="curve" smooth="yes"/>
      <point x="230" y="155"/>
      <point x="215" y="170"/>
      <point x="198" y="170" type="curve" smooth="yes"/>
      <point x="180" y="170"/>
      <point x="164" y="155"/>
      <point x="164" y="137" type="curve" smooth="yes"/>
      <point x="164" y="119"/>
      <point x="180" y="105"/>
    </contour>
  </outline>
</glyph>
<glyph name="C" format="2">
  <advance width="481"/>
  <unicode hex="0043"/>
  <anchor x="250.01" y="0" name="cedilla"/>
  <anchor x="289" y="739" name="top"/>
  <outline>
    <contour>
      <point x="42.008" y="338.004" type="curve" smooth="yes"/>
      <point x="42" y="117"/>
      <point x="134" y="-7"/>
      <point x="289" y="-7" type="curve" smooth="yes"/>
      <point x="351.991" y="-7.002"/>
      <point x="405" y="14.997"/>
      <point x="438" y="47" type="curve" smooth="yes"/>
      <point x="464" y="72"/>
      <point x="449" y="129"/>
      <point x="413" y="129" type="curve" smooth="yes"/>
      <point x="374" y="129"/>
      <point x="338" y="91"/>
      <point x="258" y="91" type="curve" smooth="yes"/>
      <point x="134" y="90"/>
      <point x="68" y="155"/>
      <point x="68" y="343" type="curve" smooth="yes"/>
      <point x="68" y="526"/>
      <point x="151" y="655"/>
      <point x="301" y="654" type="curve" smooth="yes"/>
      <point x="369" y="653"/>
      <point x="401" y="615"/>
      <point x="428" y="615" type="curve" smooth="yes"/>
      <point x="455" y="615"/>
      <point x="466" y="652"/>
      <point x="448" y="668" type="curve" smooth="yes"/>
      <point x="423" y="691"/>
      <point x="373" y="710"/>
      <point x="318" y="710" type="curve" smooth="yes"/>
      <point x="148" y="710"/>
      <point x="42.008" y="556.003"/>
    </contour>
    <contour>
      <point x="200" y="156" type="curve" smooth="yes"/>
      <point x="226" y="156"/>
      <point x="247" y="177"/>
      <point x="247" y="205" type="curve" smooth="yes"/>
      <point x="247" y="231"/>
      <point x="226" y="253"/>
      <point x="200" y="253" type="curve" smooth="yes"/>
      <point x="172" y="253"/>
      <point x="150" y="231"/>
      <point x="150" y="205" type="curve" smooth="yes"/>
      <point x="150" y="177"/>
      <point x="172" y="156"/>
    </contour>
    <contour>
      <point x="192" y="179" type="curve" smooth="yes"/>
      <point x="181" y="179"/>
      <point x="172" y="188"/>
      <point x="172" y="200" type="curve" smooth="yes"/>
      <point x="172" y="210"/>
      <point x="181" y="219"/>
      <point x="192" y="219" type="curve" smooth="yes"/>
      <point x="202" y="219"/>
      <point x="212" y="210"/>
      <point x="212" y="200" type="curve" smooth="yes"/>
      <point x="212" y="188"/>
      <point x="202" y="179"/>
    </contour>
    <contour>
      <point x="243" y="72" type="line" smooth="yes"/>
      <point x="235" y="58"/>
      <point x="207" y="65"/>
      <point x="203" y="80" type="curve" smooth="yes"/>
      <point x="205" y="96" type="line"/>
      <point x="216" y="94"/>
      <point x="228" y="92"/>
      <point x="243" y="91" type="curve"/>
    </contour>
    <contour>
      <point x="304" y="62" type="line" smooth="yes"/>
      <point x="300" y="50"/>
      <point x="275" y="47"/>
      <point x="268" y="59" type="curve" smooth="yes"/>
      <point x="267" y="92" type="line"/>
      <point x="278" y="92"/>
      <point x="289" y="93"/>
      <point x="300" y="95" type="curve"/>
    </contour>
    <contour>
      <point x="366" y="89" type="line" smooth="yes"/>
      <point x="362" y="74"/>
      <point x="338" y="68"/>
      <point x="329" y="75" type="curve" smooth="yes"/>
      <point x="321" y="100" type="line"/>
      <point x="333" y="103"/>
      <point x="342" y="106"/>
      <point x="356" y="111" type="curve"/>
    </contour>
    <contour>
      <point x="269" y="358" type="line" smooth="yes"/>
      <point x="256" y="374"/>
      <point x="230" y="352"/>
      <point x="247" y="334" type="curve" smooth="yes"/>
      <point x="299" y="285" type="line" smooth="yes"/>
      <point x="310" y="273"/>
      <point x="329" y="289"/>
      <point x="319" y="303" type="curve" smooth="yes"/>
    </contour>
    <contour>
      <point x="206" y="652" type="line"/>
      <point x="232" y="666" type="line"/>
      <point x="203" y="726" type="line" smooth="yes"/>
      <point x="192" y="747"/>
      <point x="158" y="731"/>
      <point x="171" y="710" type="curve" smooth="yes"/>
    </contour>
    <contour>
      <point x="342" y="414" type="line" smooth="yes"/>
      <point x="337" y="442"/>
      <point x="306" y="435"/>
      <point x="311" y="410" type="curve" smooth="yes"/>
      <point x="336" y="284" type="line" smooth="yes"/>
      <point x="340" y="267"/>
      <point x="364" y="273"/>
      <point x="360" y="291" type="curve" smooth="yes"/>
    </contour>
  </outline>
</glyph>
<glyph name="D" format="2">
  <advance width="585"/>
  <unicode hex="0044"/>
  <anchor x="288" y="0" name="bottom"/>
  <anchor x="281" y="691" name="top"/>
  <outline>
    <contour>
      <point x="100" y="62" type="line" smooth="yes"/>
      <point x="102" y="11"/>
      <point x="122.997" y="-4.998"/>
      <point x="180" y="-5" type="curve" smooth="yes"/>
      <point x="243" y="-5" type="line" smooth="yes"/>
      <point x="411" y="-5"/>
      <point x="558" y="97"/>
      <point x="534" y="402" type="curve" smooth="yes"/>
      <point x="521" y="630"/>
      <point x="413" y="693"/>
      <point x="261" y="704" type="curve" smooth="yes"/>
      <point x="188" y="705" type="line" smooth="yes"/>
      <point x="111.997" y="714.997"/>
      <point x="82" y="689"/>
      <point x="85" y="637" type="curve" smooth="yes"/>
    </contour>
    <contour>
      <point x="125" y="66" type="curve" smooth="yes"/>
      <point x="109" y="620" type="line" smooth="yes"/>
      <point x="106" y="675"/>
      <point x="135" y="688"/>
      <point x="196" y="680" type="curve" smooth="yes"/>
      <point x="255" y="679" type="line" smooth="yes"/>
      <point x="417" y="664"/>
      <point x="513" y="582"/>
      <point x="428" y="286" type="curve" smooth="yes"/>
      <point x="386" y="80"/>
      <point x="334" y="20"/>
      <point x="227" y="20" type="curve" smooth="yes"/>
      <point x="169" y="20" type="line" smooth="yes"/>
      <point x="142" y="20"/>
      <point x="126" y="32"/>
    </contour>
    <contour>
      <point x="469" y="207" type="curve" smooth="yes"/>
      <point x="461" y="207"/>
      <point x="455" y="214"/>
      <point x="455" y="222" type="curve" smooth="yes"/>
      <point x="455" y="229"/>
      <point x="461" y="236"/>
      <point x="469" y="236" type="curve" smooth="yes"/>
      <point x="477" y="236"/>
      <point x="483" y="229"/>
      <point x="483" y="222" type="curve" smooth="yes"/>
      <point x="483" y="214"/>
      <point x="477" y="207"/>
    </contour>
    <contour>
      <point x="456" y="126" type="curve" smooth="yes"/>
      <point x="450" y="126"/>
      <point x="444" y="132"/>
      <point x="444.009" y="138.004" type="curve" smooth="yes"/>
      <point x="444.009" y="144.002"/>
      <point x="450" y="149"/>
      <point x="456" y="149" type="curve" smooth="yes"/>
      <point x="462.003" y="149"/>
      <point x="467" y="144"/>
      <point x="467" y="138" type="curve" smooth="yes"/>
      <point x="467" y="132"/>
      <point x="462.003" y="126.008"/>
    </contour>
    <contour>
      <point x="494" y="313" type="curve" smooth="yes"/>
      <point x="488" y="313"/>
      <point x="483" y="319"/>
      <point x="483" y="324" type="curve" smooth="yes"/>
      <point x="483" y="331"/>
      <point x="488" y="336"/>
      <point x="494" y="336" type="curve" smooth="yes"/>
      <point x="501" y="336"/>
      <point x="505" y="331"/>
      <point x="505" y="324" type="curve" smooth="yes"/>
      <point x="505" y="319"/>
      <point x="501" y="313"/>
    </contour>
    <contour>
      <point x="259" y="520" type="line" smooth="yes"/>
      <point x="233" y="522"/>
      <point x="231" y="485"/>
      <point x="256" y="484" type="curve" smooth="yes"/>
      <point x="360" y="480" type="line" smooth="yes"/>
      <point x="380" y="479"/>
      <point x="382" y="511"/>
      <point x="359" y="512" type="curve" smooth="yes"/>
    </contour>
    <contour>
      <point x="246" y="408" type="line" smooth="yes"/>
      <point x="224" y="407"/>
      <point x="226" y="373"/>
      <point x="247" y="374" type="curve" smooth="yes"/>
      <point x="353" y="385" type="line" smooth="yes"/>
      <point x="374" y="386"/>
      <point x="373" y="423"/>
      <point x="350" y="421" type="curve" smooth="yes"/>
    </contour>
    <contour>
      <point x="133" y="247" type="line" smooth="yes"/>
      <point x="149" y="247"/>
      <point x="150" y="279"/>
      <point x="132" y="279" type="curve" smooth="yes"/>
      <point x="76.009" y="279.002" type="line" smooth="yes"/>
      <point x="57" y="279"/>
      <point x="57" y="248"/>
      <point x="76" y="248" type="curve" smooth="yes"/>
    </contour>
    <contour>
      <point x="417" y="558" type="line" smooth="yes"/>
      <point x="398" y="548"/>
      <point x="413" y="521"/>
      <point x="429" y="529" type="curve" smooth="yes"/>
      <point x="528.998" y="576.995" type="line" smooth="yes"/>
      <point x="545.996" y="585.995"/>
      <point x="536" y="617"/>
      <point x="514" y="606" type="curve" smooth="yes"/>
    </contour>
    <contour>
      <point x="404" y="632" type="line"/>
      <point x="434" y="613" type="line"/>
      <point x="462" y="648" type="line" smooth="yes"/>
      <point x="473" y="662"/>
      <point x="456" y="681"/>
      <point x="442" y="667" type="curve" smooth="yes"/>
    </contour>
  </outline>
</glyph>
<glyph name="E" format="2">
  <advance width="473"/>
  <unicode hex="0045"/>
  <anchor x="262" y="15" name="cedilla"/>
  <anchor x="426" y="28" name="ogonek"/>
  <anchor x="285" y="697" name="top"/>
  <outline>
    <contour>
      <point x="68" y="52" type="line" smooth="yes"/>
      <point x="66" y="13"/>
      <point x="84" y="-7"/>
      <point x="127" y="-6" type="curve" smooth="yes"/>
      <point x="425" y="3" type="line" smooth="yes"/>
      <point x="461" y="4"/>
      <point x="460" y="54"/>
      <point x="425" y="53" type="curve" smooth="yes"/>
      <point x="149" y="49" type="line" smooth="yes"/>
      <point x="124" y="49"/>
      <point x="111" y="59"/>
      <point x="110" y="89" type="curve" smooth="yes"/>
      <point x="105" y="249" type="line" smooth="yes"/>
      <point x="104" y="267"/>
      <point x="110" y="279"/>
      <point x="124" y="280" type="curve" smooth="yes"/>
      <point x="324" y="296" type="line" smooth="yes"/>
      <point x="343" y="298"/>
      <point x="340" y="323"/>
      <point x="321" y="321" type="curve" smooth="yes"/>
      <point x="127" y="304" type="line" smooth="yes"/>
      <point x="113" y="303"/>
      <point x="106" y="309"/>
      <point x="107" y="326" type="curve" smooth="yes"/>
      <point x="121" y="581" type="line" smooth="yes"/>
      <point x="122" y="606"/>
      <point x="132" y="616"/>
      <point x="159" y="615" type="curve" smooth="yes"/>
      <point x="410" y="602" type="line" smooth="yes"/>
      <point x="470" y="599"/>
      <point x="481" y="709"/>
      <point x="406" y="702" type="curve" smooth="yes"/>
      <point x="147" y="679" type="line" smooth="yes"/>
      <point x="118" y="676"/>
      <point x="102" y="658"/>
      <point x="100" y="624" type="curve" smooth="yes"/>
    </contour>
    <contour>
      <point x="399" y="280" type="curve" smooth="yes"/>
      <point x="418" y="280"/>
      <point x="433" y="295"/>
      <point x="433" y="316" type="curve" smooth="yes"/>
      <point x="433" y="334"/>
      <point x="418" y="350"/>
      <point x="399" y="350" type="curve" smooth="yes"/>
      <point x="378" y="350"/>
      <point x="363" y="334"/>
      <point x="363" y="316" type="curve" smooth="yes"/>
      <point x="363" y="295"/>
      <point x="378" y="280"/>
    </contour>
    <contour>
      <point x="317" y="607" type="line"/>
      <point x="336" y="658" type="line" smooth="yes"/>
      <point x="346" y="685"/>
      <point x="391" y="676"/>
      <point x="382" y="651" type="curve" smooth="yes"/>
      <point x="365" y="604" type="line"/>
    </contour>
    <contour>
      <point x="234" y="611" type="line"/>
      <point x="235" y="628" type="line" smooth="yes"/>
      <point x="237" y="657"/>
      <point x="287" y="653"/>
      <point x="281" y="626" type="curve" smooth="yes"/>
      <point x="277" y="609" type="line"/>
    </contour>
    <contour>
      <point x="337" y="-65" type="line" smooth="yes"/>
      <point x="333" y="-91"/>
      <point x="365" y="-92"/>
      <point x="369" y="-66" type="curve" smooth="yes"/>
      <point x="383" y="22" type="line" smooth="yes"/>
      <point x="387" y="47"/>
      <point x="356" y="48"/>
      <point x="352" y="26" type="curve" smooth="yes"/>
    </contour>
    <contour>
      <point x="236" y="24" type="line" smooth="yes"/>
      <point x="238" y="-2"/>
      <point x="275" y="3"/>
      <point x="272" y="30" type="curve" smooth="yes"/>
      <point x="262" y="108" type="line" smooth="yes"/>
      <point x="259" y="130"/>
      <point x="229" y="125"/>
      <point x="230" y="105" type="curve" smooth="yes"/>
    </contour>
    <contour>
      <point x="43" y="539" type="line" smooth="yes"/>
      <point x="27" y="542"/>
      <point x="19" y="514"/>
      <point x="37" y="510" type="curve" smooth="yes"/>
      <point x="165" y="485" type="line" smooth="yes"/>
      <point x="182" y="482"/>
      <point x="189" y="514"/>
      <point x="171" y="517" type="curve" smooth="yes"/>
    </contour>
    <contour>
      <point x="103" y="444" type="line" smooth="yes"/>
      <point x="90" y="447"/>
      <point x="87" y="415"/>
      <point x="95" y="415" type="curve" smooth="yes"/>
      <point x="99" y="415" type="line" smooth="yes"/>
      <point x="110" y="415"/>
      <point x="116" y="441"/>
      <point x="107" y="443" type="curve" smooth="yes"/>
    </contour>
    <contour>
      <point x="219" y="310" type="line"/>
      <point x="191" y="303" type="line"/>
      <point x="194" y="295" type="line" smooth="yes"/>
      <point x="198" y="285"/>
      <point x="226" y="293"/>
      <point x="222" y="303" type="curve" smooth="yes"/>
    </contour>
    <contour>
      <point x="294" y="309" type="line" smooth="yes"/>
      <point x="294" y="320"/>
      <point x="261" y="315"/>
      <point x="263" y="306" type="curve" smooth="yes"/>
      <point x="264" y="301" type="line" smooth="yes"/>
      <point x="265" y="294"/>
      <point x="294" y="294"/>
      <point x="294" y="306" type="curve" smooth="yes"/>
    </contour>
  </outline>
</glyph>
<glyph name="F" format="2">
  <advance width="431"/>
  <unicode hex="0046"/>
  <anchor x="224" y="0" name="bottom"/>
  <anchor x="275.01" y="700" name="top"/>
  <outline>
    <contour>
      <point x="64" y="24" type="line" smooth="yes"/>
      <point x="61" y="-29"/>
      <point x="151" y="-22"/>
      <point x="141" y="34" type="curve" smooth="yes"/>
      <point x="111" y="303" type="line" smooth="yes"/>
      <point x="108" y="325"/>
      <point x="117" y="331"/>
      <point x="134" y="328" type="curve" smooth="yes"/>
      <point x="337" y="304" type="line" smooth="yes"/>
      <point x="362" y="300"/>
      <point x="375" y="327"/>
      <point x="359" y="341" type="curve" smooth="yes"/>
      <point x="281" y="356" type="line" smooth="yes"/>
      <point x="274" y="358"/>
      <point x="275" y="365"/>
      <point x="282" y="366" type="curve" smooth="yes"/>
      <point x="388" y="378" type="line" smooth="yes"/>
      <point x="402" y="392"/>
      <point x="391" y="414"/>
      <point x="368" y="412" type="curve" smooth="yes"/>
      <point x="131" y="392" type="line" smooth="yes"/>
      <point x="111" y="389"/>
      <point x="102" y="399"/>
      <point x="103" y="416" type="curve" smooth="yes"/>
      <point x="109" y="630" type="line" smooth="yes"/>
      <point x="110" y="655"/>
      <point x="120" y="669"/>
      <point x="140" y="670" type="curve" smooth="yes"/>
      <point x="409" y="678" type="line" smooth="yes"/>
      <point x="428" y="678"/>
      <point x="427.999" y="703"/>
      <point x="409" y="702" type="curve" smooth="yes"/>
      <point x="129" y="692" type="line" smooth="yes"/>
      <point x="102.996" y="691.004"/>
      <point x="86" y="675"/>
      <point x="85" y="649" type="curve" smooth="yes"/>
    </contour>
    <contour>
      <point x="68" y="167" type="line"/>
      <point x="92" y="171" type="line" smooth="yes"/>
      <point x="102" y="173"/>
      <point x="105" y="136"/>
      <point x="94" y="133" type="curve" smooth="yes"/>
      <point x="67" y="128" type="line"/>
    </contour>
    <contour>
      <point x="66" y="93" type="line"/>
      <point x="92" y="90" type="line" smooth="yes"/>
      <point x="103" y="88"/>
      <point x="102" y="45"/>
      <point x="88" y="49" type="curve" smooth="yes"/>
      <point x="65" y="56" type="line"/>
    </contour>
    <contour>
      <point x="71" y="244" type="line"/>
      <point x="84" y="243" type="line" smooth="yes"/>
      <point x="94" y="243"/>
      <point x="93" y="209"/>
      <point x="84" y="207" type="curve" smooth="yes"/>
      <point x="69" y="203" type="line"/>
    </contour>
    <contour>
      <point x="273" y="724" type="curve" smooth="yes"/>
      <point x="267" y="679" type="line"/>
      <point x="295" y="679" type="line"/>
      <point x="300" y="724" type="line" smooth="yes"/>
      <point x="302" y="740"/>
      <point x="275" y="740"/>
    </contour>
    <contour>
      <point x="218" y="576" type="line" smooth="yes"/>
      <point x="237" y="576"/>
      <point x="240" y="607"/>
      <point x="221" y="607" type="curve" smooth="yes"/>
      <point x="128" y="610" type="line" smooth="yes"/>
      <point x="115" y="610"/>
      <point x="113" y="582"/>
      <point x="126" y="582" type="curve" smooth="yes"/>
    </contour>
    <contour>
      <point x="204" y="712.003" type="curve" smooth="yes"/>
      <point x="217" y="613" type="line" smooth="yes"/>
      <point x="220" y="599"/>
      <point x="251" y="603"/>
      <point x="246" y="618" type="curve" smooth="yes"/>
      <point x="231" y="716" type="line" smooth="yes"/>
      <point x="228" y="729"/>
      <point x="200" y="726"/>
    </contour>
  </outline>
</glyph>
<glyph name="G" format="2">
  <advance width="571"/>
  <unicode hex="0047"/>
  <anchor x="314" y="0" name="bottom"/>
  <anchor x="319" y="700" name="top"/>
  <outline>
    <contour>
      <point x="42" y="298" type="curve" smooth="yes"/>
      <point x="42.008" y="79.002"/>
      <point x="159" y="2"/>
      <point x="271" y="2" type="curve" smooth="yes"/>
      <point x="364" y="2"/>
      <point x="430" y="53"/>
      <point x="463" y="106" type="curve" smooth="yes"/>
      <point x="475" y="122"/>
      <point x="486" y="113"/>
      <point x="485" y="96" type="curve" smooth="yes"/>
      <point x="478" y="-13" type="line" smooth="yes"/>
      <point x="476" y="-53"/>
      <point x="551" y="-57"/>
      <point x="547" y="-8" type="curve" smooth="yes"/>
      <point x="526" y="283" type="line" smooth="yes"/>
      <point x="524" y="310"/>
      <point x="517" y="325"/>
      <point x="491" y="326.991" type="curve" smooth="yes"/>
      <point x="342" y="330" type="line" smooth="yes"/>
      <point x="321" y="331"/>
      <point x="320" y="304"/>
      <point x="342" y="303" type="curve" smooth="yes"/>
      <point x="436" y="302" type="line" smooth="yes"/>
      <point x="467" y="302"/>
      <point x="478" y="283"/>
      <point x="478" y="227" type="curve" smooth="yes"/>
      <point x="478" y="96"/>
      <point x="379" y="27"/>
      <point x="271" y="27" type="curve" smooth="yes"/>
      <point x="150" y="27"/>
      <point x="68" y="119"/>
      <point x="68" y="297" type="curve" smooth="yes"/>
      <point x="68" y="489"/>
      <point x="139" y="538"/>
      <point x="234" y="568" type="curve" smooth="yes"/>
      <point x="312" y="592"/>
      <point x="380" y="586"/>
      <point x="427" y="592" type="curve" smooth="yes"/>
      <point x="465" y="598"/>
      <point x="483" y="619"/>
      <point x="483" y="647" type="curve" smooth="yes"/>
      <point x="483" y="681"/>
      <point x="434" y="712"/>
      <point x="346" y="712" type="curve" smooth="yes"/>
      <point x="233" y="712"/>
      <point x="42.008" y="643.008"/>
    </contour>
    <contour>
      <point x="274" y="625" type="curve" smooth="yes"/>
      <point x="267" y="625"/>
      <point x="261" y="630"/>
      <point x="261" y="638" type="curve" smooth="yes"/>
      <point x="261" y="644"/>
      <point x="267" y="650"/>
      <point x="274" y="650" type="curve" smooth="yes"/>
      <point x="281" y="650"/>
      <point x="287" y="644"/>
      <point x="287" y="638" type="curve" smooth="yes"/>
      <point x="287" y="630"/>
      <point x="281" y="625"/>
    </contour>
    <contour>
      <point x="260" y="616" type="curve" smooth="yes"/>
      <point x="251" y="616"/>
      <point x="243" y="624"/>
      <point x="243" y="633" type="curve" smooth="yes"/>
      <point x="243" y="642"/>
      <point x="251" y="649"/>
      <point x="260" y="649" type="curve" smooth="yes"/>
      <point x="269" y="649"/>
      <point x="277" y="642"/>
      <point x="277" y="633" type="curve" smooth="yes"/>
      <point x="277" y="624"/>
      <point x="269" y="616"/>
    </contour>
    <contour>
      <point x="160" y="559" type="curve" smooth="yes"/>
      <point x="153" y="559"/>
      <point x="147" y="565"/>
      <point x="147" y="572" type="curve" smooth="yes"/>
      <point x="147" y="579"/>
      <point x="153" y="585"/>
      <point x="160" y="585" type="curve" smooth="yes"/>
      <point x="167" y="585"/>
      <point x="173" y="579"/>
      <point x="173" y="572" type="curve" smooth="yes"/>
      <point x="173" y="565"/>
      <point x="167" y="559"/>
    </contour>
    <contour>
      <point x="433.003" y="226.996" type="line" smooth="yes"/>
      <point x="457" y="229"/>
      <point x="457" y="258"/>
      <point x="432" y="257" type="curve" smooth="yes"/>
      <point x="347" y="258" type="line" smooth="yes"/>
      <point x="317" y="257"/>
      <point x="320" y="219"/>
      <point x="351" y="222" type="curve" smooth="yes"/>
    </contour>
    <contour>
      <point x="329" y="305" type="line" smooth="yes"/>
      <point x="344" y="305"/>
      <point x="345" y="330"/>
      <point x="329.998" y="330.991" type="curve" smooth="yes"/>
      <point x="285" y="332" type="line" smooth="yes"/>
      <point x="265" y="333"/>
      <point x="264" y="305"/>
      <point x="286" y="305" type="curve" smooth="yes"/>
    </contour>
    <contour>
      <point x="452" y="225" type="curve" smooth="yes"/>
      <point x="461" y="225"/>
      <point x="468" y="231"/>
      <point x="468" y="242" type="curve" smooth="yes"/>
      <point x="468" y="251"/>
      <point x="461" y="259"/>
      <point x="452" y="259" type="curve" smooth="yes"/>
      <point x="441" y="259"/>
      <point x="434" y="251"/>
      <point x="434" y="242" type="curve" smooth="yes"/>
      <point x="434" y="231"/>
      <point x="441" y="225"/>
    </contour>
    <contour>
      <point x="153" y="98" type="line" smooth="yes"/>
      <point x="164" y="113"/>
      <point x="141" y="139"/>
      <point x="128" y="122" type="curve" smooth="yes"/>
      <point x="86" y="60" type="line" smooth="yes"/>
      <point x="73" y="42"/>
      <point x="98" y="19"/>
      <point x="111" y="37" type="curve" smooth="yes"/>
    </contour>
    <contour>
      <point x="237" y="71" type="line" smooth="yes"/>
      <point x="241" y="86"/>
      <point x="213" y="93"/>
      <point x="208" y="79" type="curve" smooth="yes"/>
      <point x="178.998" y="-25" type="line" smooth="yes"/>
      <point x="173" y="-45"/>
      <point x="206" y="-53"/>
      <point x="212" y="-32" type="curve" smooth="yes"/>
    </contour>
  </outline>
</glyph>
<glyph name="H" format="2">
  <advance width="559"/>
  <unicode hex="0048"/>
  <anchor x="266" y="-10" name="bottom"/>
  <anchor x="291.991" y="704.998" name="top"/>
  <outline>
    <contour>
      <point x="440" y="307" type="line" smooth="yes"/>
      <point x="450" y="307"/>
      <point x="455" y="303"/>
      <point x="455" y="293" type="curve" smooth="yes"/>
      <point x="451" y="-5" type="line" smooth="yes"/>
      <point x="451" y="-27"/>
      <point x="483" y="-27"/>
      <point x="483" y="-5" type="curve" smooth="yes"/>
      <point x="473" y="673" type="line" smooth="yes"/>
      <point x="473" y="692"/>
      <point x="452" y="692"/>
      <point x="451" y="673" type="curve" smooth="yes"/>
      <point x="448" y="422" type="line" smooth="yes"/>
      <point x="448" y="412"/>
      <point x="443" y="404"/>
      <point x="433" y="404" type="curve" smooth="yes"/>
      <point x="128" y="390" type="line" smooth="yes"/>
      <point x="118" y="389"/>
      <point x="113" y="398"/>
      <point x="113" y="408" type="curve" smooth="yes"/>
      <point x="118" y="701" type="line" smooth="yes"/>
      <point x="119" y="719"/>
      <point x="96" y="719"/>
      <point x="96" y="701" type="curve" smooth="yes"/>
      <point x="82" y="39" type="line" smooth="yes"/>
      <point x="81" y="19"/>
      <point x="106" y="19"/>
      <point x="106" y="39" type="curve" smooth="yes"/>
      <point x="110" y="300" type="line" smooth="yes"/>
      <point x="110" y="310"/>
      <point x="117" y="314"/>
      <point x="127" y="314" type="curve" smooth="yes"/>
    </contour>
    <contour>
      <point x="345" y="309" type="line"/>
      <point x="347" y="328" type="line" smooth="yes"/>
      <point x="353" y="341"/>
      <point x="375" y="341"/>
      <point x="379" y="327" type="curve" smooth="yes"/>
      <point x="379" y="308" type="line"/>
    </contour>
    <contour>
      <point x="271" y="311" type="line"/>
      <point x="271" y="331" type="line" smooth="yes"/>
      <point x="277" y="343"/>
      <point x="303" y="344"/>
      <point x="310" y="330" type="curve" smooth="yes"/>
      <point x="310" y="310" type="line"/>
    </contour>
    <contour>
      <point x="232" y="398" type="curve" smooth="yes"/>
      <point x="250" y="398"/>
      <point x="265" y="413"/>
      <point x="265" y="431" type="curve" smooth="yes"/>
      <point x="265" y="448"/>
      <point x="250" y="463"/>
      <point x="232" y="463" type="curve" smooth="yes"/>
      <point x="215" y="463"/>
      <point x="200" y="448"/>
      <point x="200" y="431" type="curve" smooth="yes"/>
      <point x="200" y="413"/>
      <point x="215" y="398"/>
    </contour>
    <contour>
      <point x="242" y="457" type="curve" smooth="yes"/>
      <point x="259" y="457"/>
      <point x="275" y="472"/>
      <point x="275" y="491" type="curve" smooth="yes"/>
      <point x="275" y="509"/>
      <point x="259" y="525"/>
      <point x="242" y="525" type="curve" smooth="yes"/>
      <point x="222" y="525"/>
      <point x="207" y="509"/>
      <point x="207" y="491" type="curve" smooth="yes"/>
      <point x="207" y="472"/>
      <point x="222" y="457"/>
    </contour>
    <contour>
      <point x="302" y="419" type="curve" smooth="yes"/>
      <point x="317" y="419"/>
      <point x="330" y="432"/>
      <point x="330" y="448" type="curve" smooth="yes"/>
      <point x="330" y="464"/>
      <point x="317" y="477"/>
      <point x="302" y="477" type="curve" smooth="yes"/>
      <point x="286" y="477"/>
      <point x="273" y="464"/>
      <point x="273" y="448" type="curve" smooth="yes"/>
      <point x="273" y="432"/>
      <point x="286" y="419"/>
    </contour>
    <contour>
      <point x="385" y="178" type="line" smooth="yes"/>
      <point x="368" y="179"/>
      <point x="367" y="154"/>
      <point x="382" y="154" type="curve" smooth="yes"/>
      <point x="492" y="149" type="line" smooth="yes"/>
      <point x="505" y="149"/>
      <point x="508" y="174"/>
      <point x="490" y="175" type="curve" smooth="yes"/>
    </contour>
    <contour>
      <point x="402" y="87" type="line" smooth="yes"/>
      <point x="382" y="86"/>
      <point x="386" y="59"/>
      <point x="404" y="60" type="curve" smooth="yes"/>
      <point x="497" y="66" type="line" smooth="yes"/>
      <point x="512" y="66"/>
      <point x="512" y="92"/>
      <point x="494" y="91" type="curve" smooth="yes"/>
    </contour>
    <contour>
      <point x="68" y="236" type="line" smooth="yes"/>
      <point x="51" y="237"/>
      <point x="51" y="208"/>
      <point x="64" y="207" type="curve" smooth="yes"/>
      <point x="136" y="200" type="line" smooth="yes"/>
      <point x="153" y="198"/>
      <point x="155" y="228"/>
      <point x="136" y="229" type="curve" smooth="yes"/>
    </contour>
  </outline>
</glyph>
<glyph name="I" format="2">
  <advance width="403"/>
  <unicode hex="0049"/>
  <anchor x="295" y="5" name="ogonek"/>
  <anchor x="217" y="707" name="top"/>
  <outline>
    <contour>
      <point x="68" y="-3" type="curve" smooth="yes"/>
      <point x="344" y="6" type="line" smooth="yes"/>
      <point x="397" y="8"/>
      <point x="391" y="92"/>
      <point x="338" y="89" type="curve" smooth="yes"/>
      <point x="249" y="83" type="line" smooth="yes"/>
      <point x="233" y="82"/>
      <point x="228" y="89"/>
      <point x="227" y="107" type="curve" smooth="yes"/>
      <point x="218" y="590" type="line" smooth="yes"/>
      <point x="217" y="608"/>
      <point x="224" y="615"/>
      <point x="243" y="615" type="curve" smooth="yes"/>
      <point x="342" y="614" type="line" smooth="yes"/>
      <point x="390" y="614"/>
      <point x="395" y="689"/>
      <point x="343" y="692" type="curve" smooth="yes"/>
      <point x="71" y="707" type="line" smooth="yes"/>
      <point x="14" y="711"/>
      <point x="12" y="619"/>
      <point x="66" y="618" type="curve" smooth="yes"/>
      <point x="167" y="615" type="line" smooth="yes"/>
      <point x="185" y="615"/>
      <point x="193" y="609"/>
      <point x="194" y="591" type="curve" smooth="yes"/>
      <point x="204" y="105" type="line" smooth="yes"/>
      <point x="204" y="88"/>
      <point x="198" y="80"/>
      <point x="181" y="79" type="curve" smooth="yes"/>
      <point x="66" y="68" type="line" smooth="yes"/>
      <point x="22" y="65"/>
      <point x="26" y="-4"/>
    </contour>
    <contour>
      <point x="203" y="517" type="line"/>
      <point x="205" y="490" type="line"/>
      <point x="249" y="494" type="line" smooth="yes"/>
      <point x="268" y="496"/>
      <point x="267" y="521"/>
      <point x="246" y="520" type="curve" smooth="yes"/>
    </contour>
    <contour>
      <point x="139" y="231" type="line" smooth="yes"/>
      <point x="119" y="232"/>
      <point x="119" y="211"/>
      <point x="137" y="210" type="curve" smooth="yes"/>
      <point x="272" y="202" type="line" smooth="yes"/>
      <point x="292" y="201"/>
      <point x="293" y="224"/>
      <point x="274" y="224" type="curve" smooth="yes"/>
    </contour>
    <contour>
      <point x="168" y="309" type="line" smooth="yes"/>
      <point x="153" y="308"/>
      <point x="156" y="284"/>
      <point x="169.996" y="285.006" type="curve" smooth="yes"/>
      <point x="216" y="290" type="line"/>
      <point x="214" y="312" type="line"/>
    </contour>
    <contour>
      <point x="149" y="137" type="line" smooth="yes"/>
      <point x="128" y="136"/>
      <point x="130" y="111"/>
      <point x="151" y="112" type="curve" smooth="yes"/>
      <point x="245" y="118" type="line" smooth="yes"/>
      <point x="263" y="119"/>
      <point x="261" y="141"/>
      <point x="244" y="141" type="curve" smooth="yes"/>
    </contour>
    <contour>
      <point x="128" y="704" type="line"/>
      <point x="164" y="702" type="line"/>
      <point x="163" y="681" type="line" smooth="yes"/>
      <point x="162" y="671"/>
      <point x="123" y="671"/>
      <point x="124.991" y="682.006" type="curve" smooth="yes"/>
    </contour>
    <contour>
      <point x="204" y="701" type="line"/>
      <point x="245" y="700" type="line"/>
      <point x="244" y="678" type="line" smooth="yes"/>
      <point x="243" y="668"/>
      <point x="205" y="667"/>
      <point x="204" y="679" type="curve" smooth="yes"/>
    </contour>
    <contour>
      <point x="268" y="698" type="line"/>
      <point x="294" y="697" type="line"/>
      <point x="294" y="677" type="line" smooth="yes"/>
      <point x="294" y="668"/>
      <point x="265" y="669"/>
      <point x="266" y="680" type="curve" smooth="yes"/>
    </contour>
    <contour>
      <point x="232" y="3" type="line"/>
      <point x="232" y="18.994" type="line" smooth="yes"/>
      <point x="232" y="26"/>
      <point x="265" y="28"/>
      <point x="267" y="21" type="curve" smooth="yes"/>
      <point x="271.006" y="3.999" type="line"/>
    </contour>
    <contour>
      <point x="299" y="5" type="line"/>
      <point x="296" y="27" type="line" smooth="yes"/>
      <point x="295" y="35"/>
      <point x="327" y="39"/>
      <point x="329" y="28" type="curve" smooth="yes"/>
      <point x="333" y="6" type="line"/>
    </contour>
  </outline>
</glyph>
<glyph name="J" format="2">
  <advance width="506"/>
  <unicode hex="004A"/>
  <anchor x="240" y="0" name="bottom"/>
  <anchor x="249.998" y="708.997" name="top"/>
  <outline>
    <contour>
      <point x="234" y="-12" type="curve" smooth="yes"/>
      <point x="341" y="-12"/>
      <point x="437" y="52"/>
      <point x="426" y="223" type="curve" smooth="yes"/>
      <point x="406" y="648" type="line" smooth="yes"/>
      <point x="404" y="680"/>
      <point x="390" y="695"/>
      <point x="365" y="696" type="curve" smooth="yes"/>
      <point x="138" y="701" type="line" smooth="yes"/>
      <point x="95" y="702"/>
      <point x="96" y="644"/>
      <point x="136" y="644" type="curve" smooth="yes"/>
      <point x="350" y="645" type="line" smooth="yes"/>
      <point x="369" y="645"/>
      <point x="380" y="633"/>
      <point x="382" y="606" type="curve" smooth="yes"/>
      <point x="402" y="229" type="line" smooth="yes"/>
      <point x="407" y="116"/>
      <point x="334" y="52"/>
      <point x="244" y="52" type="curve" smooth="yes"/>
      <point x="166" y="52"/>
      <point x="128" y="90"/>
      <point x="112" y="170" type="curve" smooth="yes"/>
      <point x="98" y="200"/>
      <point x="47" y="180"/>
      <point x="58" y="133" type="curve" smooth="yes"/>
      <point x="71" y="35"/>
      <point x="152" y="-12"/>
    </contour>
    <contour>
      <point x="409" y="633" type="line" smooth="yes"/>
      <point x="428" y="636"/>
      <point x="422" y="662"/>
      <point x="405" y="661" type="curve" smooth="yes"/>
      <point x="212" y="637" type="line" smooth="yes"/>
      <point x="189" y="635"/>
      <point x="192" y="599"/>
      <point x="216" y="602" type="curve" smooth="yes"/>
    </contour>
    <contour>
      <point x="401" y="544" type="line"/>
      <point x="398" y="574" type="line"/>
      <point x="367" y="571" type="line" smooth="yes"/>
      <point x="346" y="569"/>
      <point x="348" y="542"/>
      <point x="367" y="543" type="curve" smooth="yes"/>
    </contour>
    <contour>
      <point x="434" y="501" type="line" smooth="yes"/>
      <point x="451" y="502"/>
      <point x="448" y="528"/>
      <point x="431.003" y="527.001" type="curve" smooth="yes"/>
      <point x="337" y="516" type="line" smooth="yes"/>
      <point x="318" y="515"/>
      <point x="320" y="487"/>
      <point x="339" y="488" type="curve" smooth="yes"/>
    </contour>
    <contour>
      <point x="403" y="470" type="line"/>
      <point x="403" y="445" type="line"/>
      <point x="446" y="445" type="line" smooth="yes"/>
      <point x="464" y="445"/>
      <point x="464" y="475"/>
      <point x="446" y="474" type="curve" smooth="yes"/>
    </contour>
    <contour>
      <point x="151" y="228" type="curve" smooth="yes"/>
      <point x="176" y="228"/>
      <point x="197" y="249"/>
      <point x="197" y="273" type="curve" smooth="yes"/>
      <point x="197" y="298"/>
      <point x="176" y="319"/>
      <point x="151" y="319" type="curve" smooth="yes"/>
      <point x="126" y="319"/>
      <point x="105" y="298"/>
      <point x="105" y="273" type="curve" smooth="yes"/>
      <point x="105" y="249"/>
      <point x="126" y="228"/>
    </contour>
    <contour>
      <point x="148" y="252" type="curve" smooth="yes"/>
      <point x="139" y="252"/>
      <point x="131" y="260"/>
      <point x="131" y="269" type="curve" smooth="yes"/>
      <point x="131" y="278"/>
      <point x="139" y="286"/>
      <point x="148" y="286" type="curve" smooth="yes"/>
      <point x="157" y="286"/>
      <point x="165" y="278"/>
      <point x="165" y="269" type="curve" smooth="yes"/>
      <point x="165" y="260"/>
      <point x="157" y="252"/>
    </contour>
    <contour>
      <point x="115" y="103" type="curve" smooth="yes"/>
      <point x="110" y="103"/>
      <point x="105" y="107"/>
      <point x="105" y="113" type="curve" smooth="yes"/>
      <point x="105" y="119"/>
      <point x="110" y="123"/>
      <point x="115" y="123" type="curve" smooth="yes"/>
      <point x="121" y="123"/>
      <point x="125" y="119"/>
      <point x="125" y="113" type="curve" smooth="yes"/>
      <point x="125" y="107"/>
      <point x="121" y="103"/>
    </contour>
    <contour>
      <point x="160" y="61" type="curve" smooth="yes"/>
      <point x="153" y="61"/>
      <point x="147" y="67"/>
      <point x="147" y="74" type="curve" smooth="yes"/>
      <point x="147" y="81"/>
      <point x="153" y="86"/>
      <point x="160" y="86" type="curve" smooth="yes"/>
      <point x="166" y="86"/>
      <point x="172" y="81"/>
      <point x="172" y="74" type="curve" smooth="yes"/>
      <point x="172" y="67"/>
      <point x="166" y="61"/>
    </contour>
    <contour>
      <point x="208" y="44" type="curve" smooth="yes"/>
      <point x="202" y="44"/>
      <point x="197" y="48"/>
      <point x="197" y="55" type="curve" smooth="yes"/>
      <point x="197" y="61"/>
      <point x="202" y="65"/>
      <point x="208" y="65" type="curve" smooth="yes"/>
      <point x="214" y="65"/>
      <point x="219" y="61"/>
      <point x="219" y="55" type="curve" smooth="yes"/>
      <point x="219" y="48"/>
      <point x="214" y="44"/>
    </contour>
  </outline>
</glyph>
<glyph name="K" format="2">
  <advance width="539"/>
  <unicode hex="004B"/>
  <anchor x="273" y="-8" name="bottom"/>
  <anchor x="293.008" y="685.005" name="top"/>
  <outline>
    <contour>
      <point x="100" y="3" type="line" smooth="yes"/>
      <point x="101" y="-19"/>
      <point x="123" y="-15"/>
      <point x="122" y="6" type="curve" smooth="yes"/>
      <point x="119" y="255" type="line" smooth="yes"/>
      <point x="119" y="276"/>
      <point x="135" y="279"/>
      <point x="151" y="265" type="curve" smooth="yes"/>
      <point x="452" y="3" type="line" smooth="yes"/>
      <point x="496" y="-35"/>
      <point x="539" y="1"/>
      <point x="539" y="36" type="curve" smooth="yes"/>
      <point x="539" y="51"/>
      <point x="533" y="63"/>
      <point x="521" y="71" type="curve" smooth="yes"/>
      <point x="463" y="113" type="line"/>
      <point x="447" y="89" type="line" smooth="yes"/>
      <point x="440" y="79"/>
      <point x="411" y="98"/>
      <point x="419" y="111" type="curve" smooth="yes"/>
      <point x="432" y="135" type="line"/>
      <point x="395" y="162" type="line"/>
      <point x="389" y="145" type="line" smooth="yes"/>
      <point x="385" y="133"/>
      <point x="350" y="155"/>
      <point x="355" y="167" type="curve" smooth="yes"/>
      <point x="363" y="184" type="line"/>
      <point x="176" y="314" type="line" smooth="yes"/>
      <point x="163" y="323"/>
      <point x="158" y="335"/>
      <point x="172" y="349" type="curve" smooth="yes"/>
      <point x="486" y="678" type="line" smooth="yes"/>
      <point x="502" y="694"/>
      <point x="484" y="709"/>
      <point x="469" y="695" type="curve" smooth="yes"/>
      <point x="150" y="358" type="line" smooth="yes"/>
      <point x="134" y="342"/>
      <point x="117" y="349"/>
      <point x="116" y="370" type="curve" smooth="yes"/>
      <point x="112" y="615" type="line" smooth="yes"/>
      <point x="111" y="638"/>
      <point x="84" y="638"/>
      <point x="85" y="615" type="curve" smooth="yes"/>
    </contour>
    <contour>
      <point x="271" y="305" type="curve" smooth="yes"/>
      <point x="290" y="305"/>
      <point x="305" y="321"/>
      <point x="305" y="340" type="curve" smooth="yes"/>
      <point x="305" y="359"/>
      <point x="290" y="375"/>
      <point x="271" y="375" type="curve" smooth="yes"/>
      <point x="251" y="375"/>
      <point x="236" y="359"/>
      <point x="236" y="340" type="curve" smooth="yes"/>
      <point x="236" y="321"/>
      <point x="251" y="305"/>
    </contour>
    <contour>
      <point x="353" y="624" type="line" smooth="yes"/>
      <point x="339" y="635"/>
      <point x="324" y="613"/>
      <point x="339" y="601" type="curve" smooth="yes"/>
      <point x="407" y="542" type="line" smooth="yes"/>
      <point x="422" y="530"/>
      <point x="440" y="554"/>
      <point x="422" y="567" type="curve" smooth="yes"/>
    </contour>
    <contour>
      <point x="282" y="564" type="line" smooth="yes"/>
      <point x="268" y="575"/>
      <point x="251" y="551"/>
      <point x="267" y="540" type="curve" smooth="yes"/>
      <point x="311" y="511" type="line" smooth="yes"/>
      <point x="320" y="505"/>
      <point x="337" y="519"/>
      <point x="322" y="531" type="curve" smooth="yes"/>
    </contour>
    <contour>
      <point x="85" y="178" type="line" smooth="yes"/>
      <point x="69" y="178"/>
      <point x="70" y="150"/>
      <point x="87" y="151" type="curve" smooth="yes"/>
      <point x="140" y="154" type="line" smooth="yes"/>
      <point x="153" y="154"/>
      <point x="153" y="177"/>
      <point x="137" y="177" type="curve" smooth="yes"/>
    </contour>
    <contour>
      <point x="78" y="81" type="line" smooth="yes"/>
      <point x="61" y="82"/>
      <point x="58" y="60"/>
      <point x="77" y="59" type="curve" smooth="yes"/>
      <point x="139" y="53" type="line" smooth="yes"/>
      <point x="157" y="52"/>
      <point x="156" y="77"/>
      <point x="140" y="77" type="curve" smooth="yes"/>
    </contour>
    <contour>
      <point x="97" y="517" type="curve" smooth="yes"/>
      <point x="108" y="517"/>
      <point x="118" y="527"/>
      <point x="118" y="538" type="curve" smooth="yes"/>
      <point x="118" y="550"/>
      <point x="108" y="559"/>
      <point x="97" y="559" type="curve" smooth="yes"/>
      <point x="86" y="559"/>
      <point x="76" y="550"/>
      <point x="76" y="538" type="curve" smooth="yes"/>
      <point x="76" y="527"/>
      <point x="86" y="517"/>
    </contour>
    <contour>
      <point x="94.998" y="617.994" type="curve" smooth="yes"/>
      <point x="105.992" y="617.994"/>
      <point x="115" y="627"/>
      <point x="115" y="639" type="curve" smooth="yes"/>
      <point x="115" y="650"/>
      <point x="106" y="659"/>
      <point x="95" y="659" type="curve" smooth="yes"/>
      <point x="83" y="659"/>
      <point x="74" y="650"/>
      <point x="74" y="639" type="curve" smooth="yes"/>
      <point x="74" y="627"/>
      <point x="83" y="618"/>
    </contour>
  </outline>
</glyph>
<glyph name="L" format="2">
  <advance width="442"/>
  <unicode hex="004C"/>
  <anchor x="251" y="0" name="bottom"/>
  <anchor x="136" y="710" name="top"/>
  <outline>
    <contour>
      <point x="68" y="49" type="line" smooth="yes"/>
      <point x="66" y="10"/>
      <point x="83" y="-9"/>
      <point x="123" y="-6" type="curve" smooth="yes"/>
      <point x="396" y="7" type="line" smooth="yes"/>
      <point x="455" y="11"/>
      <point x="446" y="120"/>
      <point x="389" y="108" type="curve" smooth="yes"/>
      <point x="133" y="66" type="line" smooth="yes"/>
      <point x="105" y="60"/>
      <point x="91" y="74"/>
      <point x="93" y="106" type="curve" smooth="yes"/>
      <point x="129" y="690" type="line" smooth="yes"/>
      <point x="131" y="713"/>
      <point x="107" y="714"/>
      <point x="105" y="693" type="curve" smooth="yes"/>
    </contour>
    <contour>
      <point x="117" y="411" type="line"/>
      <point x="119" y="444" type="line"/>
      <point x="79" y="447" type="line" smooth="yes"/>
      <point x="61" y="448"/>
      <point x="59" y="417"/>
      <point x="78" y="415" type="curve" smooth="yes"/>
    </contour>
    <contour>
      <point x="77" y="556" type="line" smooth="yes"/>
      <point x="61" y="553"/>
      <point x="65" y="521"/>
      <point x="81" y="524" type="curve" smooth="yes"/>
      <point x="177" y="542" type="line" smooth="yes"/>
      <point x="195" y="545"/>
      <point x="192" y="579"/>
      <point x="173" y="575" type="curve" smooth="yes"/>
    </contour>
    <contour>
      <point x="104" y="457" type="line"/>
      <point x="102" y="429" type="line"/>
      <point x="153" y="425" type="line" smooth="yes"/>
      <point x="172" y="424"/>
      <point x="173" y="457"/>
      <point x="156" y="457" type="curve" smooth="yes"/>
    </contour>
    <contour>
      <point x="94" y="309" type="line"/>
      <point x="138" y="314" type="line" smooth="yes"/>
      <point x="157" y="315"/>
      <point x="155" y="351"/>
      <point x="135" y="351" type="curve" smooth="yes"/>
      <point x="94" y="347" type="line"/>
    </contour>
    <contour>
      <point x="209" y="82" type="line"/>
      <point x="214" y="66" type="line" smooth="yes"/>
      <point x="217" y="55"/>
      <point x="181" y="50"/>
      <point x="178" y="61" type="curve" smooth="yes"/>
      <point x="174" y="76" type="line"/>
    </contour>
    <contour>
      <point x="273" y="93" type="line"/>
      <point x="278" y="67" type="line" smooth="yes"/>
      <point x="281" y="55"/>
      <point x="237" y="52"/>
      <point x="235" y="65" type="curve" smooth="yes"/>
      <point x="232" y="87" type="line"/>
    </contour>
    <contour>
      <point x="339" y="102" type="line"/>
      <point x="348" y="82" type="line" smooth="yes"/>
      <point x="355" y="69"/>
      <point x="308" y="61"/>
      <point x="304" y="76" type="curve" smooth="yes"/>
      <point x="297" y="96" type="line"/>
    </contour>
  </outline>
</glyph>
<glyph name="M" format="2">
  <advance width="775"/>
  <unicode hex="004D"/>
  <anchor x="371" y="0" name="bottom"/>
  <anchor x="398" y="700" name="top"/>
  <outline>
    <contour>
      <point x="47" y="38" type="line" smooth="yes"/>
      <point x="44" y="14"/>
      <point x="71" y="11"/>
      <point x="74" y="34" type="curve" smooth="yes"/>
      <point x="128" y="500" type="line" smooth="yes"/>
      <point x="131" y="528"/>
      <point x="161" y="532"/>
      <point x="173" y="506" type="curve" smooth="yes"/>
      <point x="328" y="144" type="line" smooth="yes"/>
      <point x="348" y="99"/>
      <point x="398" y="105"/>
      <point x="416" y="143" type="curve" smooth="yes"/>
      <point x="584" y="523" type="line" smooth="yes"/>
      <point x="597" y="550"/>
      <point x="620" y="544"/>
      <point x="623" y="513" type="curve" smooth="yes"/>
      <point x="673" y="29" type="line" smooth="yes"/>
      <point x="677" y="-15"/>
      <point x="736" y="-3"/>
      <point x="730" y="39" type="curve" smooth="yes"/>
      <point x="653" y="656" type="line" smooth="yes"/>
      <point x="648" y="704"/>
      <point x="589.007" y="709.996"/>
      <point x="573" y="667" type="curve" smooth="yes"/>
      <point x="409" y="211" type="line" smooth="yes"/>
      <point x="397" y="179"/>
      <point x="369" y="179"/>
      <point x="358" y="213" type="curve" smooth="yes"/>
      <point x="207" y="670" type="line" smooth="yes"/>
      <point x="192" y="713"/>
      <point x="127.009" y="709.992"/>
      <point x="122" y="663" type="curve" smooth="yes"/>
    </contour>
    <contour>
      <point x="226" y="612" type="line"/>
      <point x="241" y="568" type="line"/>
      <point x="210" y="563" type="line" smooth="yes"/>
      <point x="201" y="562"/>
      <point x="189" y="600"/>
      <point x="198" y="603" type="curve" smooth="yes"/>
    </contour>
    <contour>
      <point x="250" y="539" type="line"/>
      <point x="263" y="501" type="line"/>
      <point x="244" y="493" type="line" smooth="yes"/>
      <point x="230" y="488"/>
      <point x="214" y="533"/>
      <point x="228" y="536" type="curve" smooth="yes"/>
    </contour>
    <contour>
      <point x="622" y="546" type="curve" smooth="yes"/>
      <point x="614" y="546"/>
      <point x="608" y="552"/>
      <point x="608" y="560" type="curve" smooth="yes"/>
      <point x="608" y="568"/>
      <point x="614" y="574"/>
      <point x="622" y="574" type="curve" smooth="yes"/>
      <point x="629" y="574"/>
      <point x="635" y="568"/>
      <point x="635" y="560" type="curve" smooth="yes"/>
      <point x="635" y="552"/>
      <point x="629" y="546"/>
    </contour>
    <contour>
      <point x="368" y="63" type="curve" smooth="yes"/>
      <point x="384" y="63"/>
      <point x="399" y="78"/>
      <point x="399" y="97" type="curve" smooth="yes"/>
      <point x="399" y="115"/>
      <point x="384" y="130"/>
      <point x="368" y="130" type="curve" smooth="yes"/>
      <point x="347" y="130"/>
      <point x="333" y="115"/>
      <point x="333" y="97" type="curve" smooth="yes"/>
      <point x="332.997" y="77.992"/>
      <point x="347" y="63"/>
    </contour>
    <contour>
      <point x="724" y="131" type="line" smooth="yes"/>
      <point x="753" y="132"/>
      <point x="747" y="172"/>
      <point x="723" y="170" type="curve" smooth="yes"/>
      <point x="624" y="158" type="line" smooth="yes"/>
      <point x="601" y="156"/>
      <point x="604" y="123"/>
      <point x="627" y="125" type="curve" smooth="yes"/>
    </contour>
    <contour>
      <point x="629" y="227" type="curve" smooth="yes"/>
      <point x="711" y="221" type="line" smooth="yes"/>
      <point x="732" y="220"/>
      <point x="734" y="249"/>
      <point x="712" y="250" type="curve" smooth="yes"/>
      <point x="627" y="257" type="line" smooth="yes"/>
      <point x="607" y="258"/>
      <point x="604" y="228"/>
    </contour>
    <contour>
      <point x="140" y="135" type="line" smooth="yes"/>
      <point x="162" y="134"/>
      <point x="160" y="172"/>
      <point x="142" y="172" type="curve" smooth="yes"/>
      <point x="77" y="165" type="line" smooth="yes"/>
      <point x="61" y="164"/>
      <point x="60" y="131"/>
      <point x="78" y="131" type="curve" smooth="yes"/>
    </contour>
    <contour>
      <point x="58" y="263" type="curve" smooth="yes"/>
      <point x="138" y="265" type="line" smooth="yes"/>
      <point x="156" y="265"/>
      <point x="158" y="296"/>
      <point x="139" y="296" type="curve" smooth="yes"/>
      <point x="58" y="294" type="line" smooth="yes"/>
      <point x="43" y="293"/>
      <point x="41" y="262"/>
    </contour>
    <contour>
      <point x="559" y="471" type="line"/>
      <point x="544" y="476" type="line" smooth="yes"/>
      <point x="533" y="480"/>
      <point x="544" y="512"/>
      <point x="554" y="510" type="curve" smooth="yes"/>
      <point x="575" y="505" type="line"/>
    </contour>
  </outline>
</glyph>
<glyph name="N" format="2">
  <advance width="611"/>
  <unicode hex="004E"/>
  <anchor x="350" y="36" name="bottom"/>
  <anchor x="338" y="700" name="top"/>
  <outline>
    <contour>
      <point x="75" y="36" type="line" smooth="yes"/>
      <point x="71" y="-38"/>
      <point x="179" y="-33"/>
      <point x="176" y="38" type="curve" smooth="yes"/>
      <point x="157" y="648" type="line" smooth="yes"/>
      <point x="155" y="678"/>
      <point x="190" y="684"/>
      <point x="202" y="653" type="curve" smooth="yes"/>
      <point x="429" y="87" type="line" smooth="yes"/>
      <point x="448" y="38"/>
      <point x="510" y="42"/>
      <point x="512" y="103" type="curve" smooth="yes"/>
      <point x="528" y="706" type="line" smooth="yes"/>
      <point x="528" y="726"/>
      <point x="503" y="728"/>
      <point x="503" y="707" type="curve" smooth="yes"/>
      <point x="487" y="111" type="line" smooth="yes"/>
      <point x="486" y="82"/>
      <point x="462" y="80"/>
      <point x="450" y="109" type="curve" smooth="yes"/>
      <point x="219" y="686" type="line" smooth="yes"/>
      <point x="195" y="746"/>
      <point x="99" y="736"/>
      <point x="96" y="659" type="curve" smooth="yes"/>
    </contour>
    <contour>
      <point x="515" y="625" type="line" smooth="yes"/>
      <point x="499" y="625"/>
      <point x="499" y="597"/>
      <point x="514" y="597" type="curve" smooth="yes"/>
      <point x="558" y="600" type="line" smooth="yes"/>
      <point x="575" y="600"/>
      <point x="576" y="624"/>
      <point x="559" y="624" type="curve" smooth="yes"/>
    </contour>
    <contour>
      <point x="465" y="513" type="line" smooth="yes"/>
      <point x="451.005" y="512.999"/>
      <point x="451" y="494"/>
      <point x="465" y="494" type="curve" smooth="yes"/>
      <point x="561" y="495" type="line" smooth="yes"/>
      <point x="577" y="495"/>
      <point x="578" y="517"/>
      <point x="560" y="517" type="curve" smooth="yes"/>
    </contour>
    <contour>
      <point x="478" y="407" type="line" smooth="yes"/>
      <point x="464" y="407"/>
      <point x="464" y="385"/>
      <point x="477" y="385" type="curve" smooth="yes"/>
      <point x="545" y="386" type="line" smooth="yes"/>
      <point x="562" y="386"/>
      <point x="562" y="411"/>
      <point x="545" y="410" type="curve" smooth="yes"/>
    </contour>
    <contour>
      <point x="84" y="312" type="line"/>
      <point x="104" y="308" type="line" smooth="yes"/>
      <point x="119" y="305"/>
      <point x="115" y="262"/>
      <point x="99" y="263" type="curve" smooth="yes"/>
      <point x="82" y="264" type="line"/>
    </contour>
    <contour>
      <point x="80" y="219" type="line"/>
      <point x="104.005" y="219" type="line" smooth="yes"/>
      <point x="118" y="218"/>
      <point x="118" y="178"/>
      <point x="103" y="177" type="curve" smooth="yes"/>
      <point x="79" y="177" type="line"/>
    </contour>
    <contour>
      <point x="77" y="144" type="line"/>
      <point x="110" y="139" type="line" smooth="yes"/>
      <point x="125" y="136"/>
      <point x="121" y="87"/>
      <point x="106" y="90" type="curve" smooth="yes"/>
      <point x="76" y="97" type="line"/>
    </contour>
    <contour>
      <point x="445" y="289" type="curve" smooth="yes"/>
      <point x="460" y="289"/>
      <point x="473" y="303"/>
      <point x="473" y="319" type="curve" smooth="yes"/>
      <point x="473" y="334"/>
      <point x="460" y="348"/>
      <point x="445" y="348" type="curve" smooth="yes"/>
      <point x="429" y="348"/>
      <point x="415" y="334"/>
      <point x="415" y="319" type="curve" smooth="yes"/>
      <point x="415" y="303"/>
      <point x="429" y="289"/>
    </contour>
    <contour>
      <point x="228" y="416" type="curve" smooth="yes"/>
      <point x="243" y="416"/>
      <point x="256" y="429"/>
      <point x="256" y="445" type="curve" smooth="yes"/>
      <point x="256" y="460"/>
      <point x="243" y="473"/>
      <point x="228" y="473" type="curve" smooth="yes"/>
      <point x="212" y="473"/>
      <point x="199" y="460"/>
      <point x="199" y="445" type="curve" smooth="yes"/>
      <point x="199" y="429"/>
      <point x="212" y="416"/>
    </contour>
    <contour>
      <point x="266" y="435" type="line" smooth="yes"/>
      <point x="252" y="426"/>
      <point x="267" y="405"/>
      <point x="278" y="411" type="curve" smooth="yes"/>
      <point x="312" y="426" type="line"/>
      <point x="298" y="454" type="line"/>
    </contour>
    <contour>
      <point x="286" y="350" type="line" smooth="yes"/>
      <point x="274" y="343"/>
      <point x="288" y="317"/>
      <point x="300" y="325" type="curve" smooth="yes"/>
      <point x="365" y="373" type="line" smooth="yes"/>
      <point x="374" y="380"/>
      <point x="362" y="403"/>
      <point x="350" y="395" type="curve" smooth="yes"/>
    </contour>
  </outline>
</glyph>
<glyph name="O" format="2">
  <advance width="605"/>
  <unicode hex="004F"/>
  <anchor x="299" y="0" name="bottom"/>
  <anchor x="311" y="700" name="top"/>
  <outline>
    <contour>
      <point x="295" y="-12" type="curve" smooth="yes"/>
      <point x="463" y="-12"/>
      <point x="563" y="129"/>
      <point x="563" y="350" type="curve" smooth="yes"/>
      <point x="563" y="583"/>
      <point x="465" y="714"/>
      <point x="315" y="714" type="curve" smooth="yes"/>
      <point x="154" y="714"/>
      <point x="42.008" y="564.009"/>
      <point x="42" y="337" type="curve" smooth="yes"/>
      <point x="42" y="121"/>
      <point x="134" y="-12"/>
    </contour>
    <contour>
      <point x="301" y="53" type="curve" smooth="yes"/>
      <point x="166" y="53"/>
      <point x="101" y="157"/>
      <point x="101" y="340" type="curve" smooth="yes"/>
      <point x="101" y="541"/>
      <point x="189" y="690"/>
      <point x="320" y="690" type="curve" smooth="yes"/>
      <point x="438" y="690"/>
      <point x="535" y="573"/>
      <point x="535" y="373" type="curve" smooth="yes"/>
      <point x="535" y="152"/>
      <point x="410" y="53"/>
    </contour>
    <contour>
      <point x="448" y="92" type="curve" smooth="yes"/>
      <point x="455" y="92"/>
      <point x="461" y="87"/>
      <point x="461" y="79" type="curve" smooth="yes"/>
      <point x="461" y="73"/>
      <point x="455.006" y="67.009"/>
      <point x="448.008" y="67.009" type="curve" smooth="yes"/>
      <point x="441" y="67"/>
      <point x="436" y="73"/>
      <point x="436" y="79" type="curve" smooth="yes"/>
      <point x="436" y="87"/>
      <point x="441" y="92"/>
    </contour>
    <contour>
      <point x="376" y="49" type="curve" smooth="yes"/>
      <point x="384" y="49"/>
      <point x="390" y="43"/>
      <point x="390" y="35" type="curve" smooth="yes"/>
      <point x="390" y="26"/>
      <point x="384" y="21"/>
      <point x="376" y="21" type="curve" smooth="yes"/>
      <point x="367" y="21"/>
      <point x="361" y="26"/>
      <point x="361" y="35" type="curve" smooth="yes"/>
      <point x="361" y="43"/>
      <point x="367" y="49"/>
    </contour>
    <contour>
      <point x="298" y="32" type="curve" smooth="yes"/>
      <point x="306" y="32"/>
      <point x="311" y="27"/>
      <point x="311" y="19" type="curve" smooth="yes"/>
      <point x="311" y="12"/>
      <point x="306" y="6"/>
      <point x="298" y="6" type="curve" smooth="yes"/>
      <point x="291" y="6"/>
      <point x="285" y="12"/>
      <point x="285" y="19" type="curve" smooth="yes"/>
      <point x="285" y="27"/>
      <point x="291" y="32"/>
    </contour>
    <contour>
      <point x="318" y="345" type="line" smooth="yes"/>
      <point x="327" y="361"/>
      <point x="302" y="374"/>
      <point x="293" y="359" type="curve" smooth="yes"/>
      <point x="270" y="311" type="line" smooth="yes"/>
      <point x="259" y="293"/>
      <point x="288" y="279"/>
      <point x="298" y="297" type="curve" smooth="yes"/>
    </contour>
    <contour>
      <point x="351" y="410" type="line" smooth="yes"/>
      <point x="338" y="422"/>
      <point x="320" y="397"/>
      <point x="332" y="387" type="curve" smooth="yes"/>
      <point x="368" y="345" type="line" smooth="yes"/>
      <point x="380" y="334"/>
      <point x="399" y="358"/>
      <point x="387" y="371" type="curve" smooth="yes"/>
    </contour>
    <contour>
      <point x="310" y="441" type="line" smooth="yes"/>
      <point x="294" y="446"/>
      <point x="291" y="415"/>
      <point x="304" y="411" type="curve" smooth="yes"/>
      <point x="358" y="401" type="line" smooth="yes"/>
      <point x="373" y="397"/>
      <point x="378" y="421"/>
      <point x="362" y="426" type="curve" smooth="yes"/>
    </contour>
    <contour>
      <point x="284" y="405" type="line" smooth="yes"/>
      <point x="268" y="399"/>
      <point x="277" y="371"/>
      <point x="292" y="377" type="curve" smooth="yes"/>
      <point x="335" y="395" type="line" smooth="yes"/>
      <point x="353" y="402"/>
      <point x="344" y="430"/>
      <point x="326" y="423" type="curve" smooth="yes"/>
    </contour>
    <contour>
      <point x="175" y="77" type="line" smooth="yes"/>
      <point x="167" y="61"/>
      <point x="197" y="45"/>
      <point x="203" y="61" type="curve" smooth="yes"/>
      <point x="225" y="124" type="line" smooth="yes"/>
      <point x="232" y="141"/>
      <point x="206" y="157"/>
      <point x="198" y="139" type="curve" smooth="yes"/>
    </contour>
    <contour>
      <point x="442" y="172" type="line" smooth="yes"/>
      <point x="429" y="185"/>
      <point x="412" y="167"/>
      <point x="422" y="155" type="curve" smooth="yes"/>
      <point x="461" y="108" type="line" smooth="yes"/>
      <point x="474" y="93"/>
      <point x="498" y="116"/>
      <point x="484" y="130" type="curve" smooth="yes"/>
    </contour>
    <contour>
      <point x="487" y="371" type="line" smooth="yes"/>
      <point x="472" y="376"/>
      <point x="465" y="348"/>
      <point x="480" y="343" type="curve" smooth="yes"/>
      <point x="538" y="318" type="line" smooth="yes"/>
      <point x="556" y="312"/>
      <point x="562" y="343"/>
      <point x="546" y="348" type="curve" smooth="yes"/>
    </contour>
    <contour>
      <point x="452" y="491" type="line" smooth="yes"/>
      <point x="438" y="486"/>
      <point x="444" y="464"/>
      <point x="457" y="467" type="curve" smooth="yes"/>
      <point x="535" y="486" type="line" smooth="yes"/>
      <point x="546" y="489"/>
      <point x="543" y="517"/>
      <point x="527" y="511" type="curve" smooth="yes"/>
    </contour>
    <contour>
      <point x="408" y="328" type="curve" smooth="yes"/>
      <point x="393" y="328"/>
      <point x="382" y="316"/>
      <point x="382" y="301" type="curve" smooth="yes"/>
      <point x="382" y="286"/>
      <point x="393" y="276"/>
      <point x="408" y="276" type="curve" smooth="yes"/>
      <point x="423" y="276"/>
      <point x="434" y="286"/>
      <point x="434" y="301" type="curve" smooth="yes"/>
      <point x="434" y="316"/>
      <point x="423" y="328"/>
    </contour>
  </outline>
</glyph>
<glyph name="P" format="2">
  <advance width="520"/>
  <unicode hex="0050"/>
  <anchor x="123" y="0" name="bottom"/>
  <anchor x="275" y="700" name="top"/>
  <outline>
    <contour>
      <point x="148" y="658"/>
      <point x="164" y="672"/>
      <point x="188" y="672" type="curve" smooth="yes"/>
      <point x="290" y="675" type="line" smooth="yes"/>
      <point x="390" y="678"/>
      <point x="456" y="605"/>
      <point x="456" y="483" type="curve" smooth="yes"/>
      <point x="456" y="356"/>
      <point x="380" y="304"/>
      <point x="291" y="304" type="curve" smooth="yes"/>
      <point x="182" y="304" type="line" smooth="yes"/>
      <point x="150" y="304"/>
      <point x="131" y="316"/>
      <point x="133" y="349" type="curve" smooth="yes"/>
      <point x="145" y="623" type="line" smooth="yes"/>
    </contour>
    <contour>
      <point x="76" y="18" type="line" smooth="yes"/>
      <point x="75" y="-14"/>
      <point x="121" y="-18"/>
      <point x="126" y="14" type="curve" smooth="yes"/>
      <point x="150" y="245" type="line" smooth="yes"/>
      <point x="152" y="269"/>
      <point x="162" y="281"/>
      <point x="183" y="281" type="curve" smooth="yes"/>
      <point x="291" y="281" type="line" smooth="yes"/>
      <point x="392" y="281"/>
      <point x="481" y="346"/>
      <point x="481" y="482" type="curve" smooth="yes"/>
      <point x="481" y="627"/>
      <point x="403" y="694"/>
      <point x="307" y="698" type="curve" smooth="yes"/>
      <point x="144" y="703" type="line" smooth="yes"/>
      <point x="110" y="705"/>
      <point x="91" y="693"/>
      <point x="90" y="659" type="curve" smooth="yes"/>
    </contour>
    <contour>
      <point x="285" y="440" type="curve" smooth="yes"/>
      <point x="230" y="508" type="line" smooth="yes"/>
      <point x="216" y="523"/>
      <point x="195" y="502"/>
      <point x="208" y="489" type="curve" smooth="yes"/>
      <point x="262" y="416" type="line" smooth="yes"/>
      <point x="277" y="399"/>
      <point x="301" y="422"/>
    </contour>
    <contour>
      <point x="330" y="480" type="curve" smooth="yes"/>
      <point x="227" y="507" type="line" smooth="yes"/>
      <point x="205" y="512"/>
      <point x="197" y="480"/>
      <point x="220" y="475" type="curve" smooth="yes"/>
      <point x="326" y="450" type="line" smooth="yes"/>
      <point x="346" y="446"/>
      <point x="353" y="475"/>
    </contour>
    <contour>
      <point x="116" y="221" type="curve" smooth="yes"/>
      <point x="107" y="221"/>
      <point x="100" y="228"/>
      <point x="100" y="237" type="curve" smooth="yes"/>
      <point x="100" y="246"/>
      <point x="107" y="253"/>
      <point x="116" y="253" type="curve" smooth="yes"/>
      <point x="124" y="253"/>
      <point x="131" y="246"/>
      <point x="131" y="237" type="curve" smooth="yes"/>
      <point x="131" y="228"/>
      <point x="124" y="221"/>
    </contour>
    <contour>
      <point x="111" y="207" type="curve" smooth="yes"/>
      <point x="104" y="207"/>
      <point x="98" y="212"/>
      <point x="98" y="219" type="curve" smooth="yes"/>
      <point x="98" y="226"/>
      <point x="104" y="231"/>
      <point x="111" y="231" type="curve" smooth="yes"/>
      <point x="118" y="231"/>
      <point x="123" y="226"/>
      <point x="123" y="219" type="curve" smooth="yes"/>
      <point x="123" y="212"/>
      <point x="118" y="207"/>
    </contour>
    <contour>
      <point x="184" y="566" type="curve" smooth="yes"/>
      <point x="74" y="567" type="line" smooth="yes"/>
      <point x="53" y="568"/>
      <point x="53" y="532"/>
      <point x="74" y="533" type="curve" smooth="yes"/>
      <point x="186" y="536" type="line" smooth="yes"/>
      <point x="207" y="537"/>
      <point x="211" y="565"/>
    </contour>
    <contour>
      <point x="149" y="465" type="curve" smooth="yes"/>
      <point x="79" y="458" type="line" smooth="yes"/>
      <point x="59" y="456"/>
      <point x="61" y="424"/>
      <point x="81" y="427" type="curve" smooth="yes"/>
      <point x="152" y="437" type="line" smooth="yes"/>
      <point x="172" y="440"/>
      <point x="170" y="467"/>
    </contour>
    <contour>
      <point x="441" y="669" type="curve" smooth="yes"/>
      <point x="392" y="629" type="line" smooth="yes"/>
      <point x="381" y="619"/>
      <point x="397" y="598"/>
      <point x="408" y="606" type="curve" smooth="yes"/>
      <point x="461" y="643" type="line" smooth="yes"/>
      <point x="474" y="653"/>
      <point x="453" y="679"/>
    </contour>
  </outline>
</glyph>
<glyph name="Q" format="2">
  <advance width="617"/>
  <unicode hex="0051"/>
  <anchor x="278.008" y="0" name="bottom"/>
  <anchor x="318" y="700" name="top"/>
  <outline>
    <contour>
      <point x="195" y="9" type="curve" smooth="yes"/>
      <point x="514" y="-163" type="line" smooth="yes"/>
      <point x="540" y="-177"/>
      <point x="560" y="-139"/>
      <point x="530" y="-126" type="curve" smooth="yes"/>
      <point x="320" y="-27" type="line" smooth="yes"/>
      <point x="303" y="-19"/>
      <point x="306" y="-4"/>
      <point x="322" y="-2" type="curve" smooth="yes"/>
      <point x="483" y="23"/>
      <point x="576" y="150"/>
      <point x="576" y="354" type="curve" smooth="yes"/>
      <point x="576" y="595"/>
      <point x="476" y="714"/>
      <point x="314" y="714" type="curve" smooth="yes"/>
      <point x="152" y="714"/>
      <point x="42" y="587"/>
      <point x="42.008" y="318.01" type="curve" smooth="yes"/>
      <point x="42" y="133"/>
      <point x="113" y="53"/>
    </contour>
    <contour>
      <point x="281" y="22" type="curve" smooth="yes"/>
      <point x="157" y="22"/>
      <point x="68" y="127"/>
      <point x="69" y="314" type="curve" smooth="yes"/>
      <point x="69" y="528"/>
      <point x="216" y="658"/>
      <point x="341" y="658" type="curve" smooth="yes"/>
      <point x="456" y="658"/>
      <point x="520" y="553"/>
      <point x="518" y="350" type="curve" smooth="yes"/>
      <point x="516" y="138"/>
      <point x="420" y="22"/>
    </contour>
    <contour>
      <point x="244" y="621" type="curve" smooth="yes"/>
      <point x="238" y="621"/>
      <point x="233" y="626"/>
      <point x="233" y="632" type="curve" smooth="yes"/>
      <point x="233" y="638"/>
      <point x="238" y="644"/>
      <point x="244" y="644" type="curve" smooth="yes"/>
      <point x="250" y="644"/>
      <point x="255" y="638"/>
      <point x="255" y="632" type="curve" smooth="yes"/>
      <point x="255" y="626"/>
      <point x="250" y="621"/>
    </contour>
    <contour>
      <point x="305" y="626" type="curve" smooth="yes"/>
      <point x="296" y="626"/>
      <point x="290" y="633"/>
      <point x="290" y="641" type="curve" smooth="yes"/>
      <point x="290" y="649"/>
      <point x="296" y="655"/>
      <point x="305" y="655" type="curve" smooth="yes"/>
      <point x="313" y="655"/>
      <point x="319" y="649"/>
      <point x="319" y="641" type="curve" smooth="yes"/>
      <point x="319" y="633"/>
      <point x="313" y="626"/>
    </contour>
    <contour>
      <point x="396" y="561" type="curve" smooth="yes"/>
      <point x="389" y="561"/>
      <point x="384" y="566"/>
      <point x="384" y="573" type="curve" smooth="yes"/>
      <point x="384" y="580"/>
      <point x="389" y="585"/>
      <point x="396" y="585" type="curve" smooth="yes"/>
      <point x="402" y="585"/>
      <point x="407" y="580"/>
      <point x="407" y="573" type="curve" smooth="yes"/>
      <point x="407" y="566"/>
      <point x="402" y="561"/>
    </contour>
    <contour>
      <point x="299" y="367" type="curve" smooth="yes"/>
      <point x="258" y="438" type="line" smooth="yes"/>
      <point x="250" y="454"/>
      <point x="224" y="441"/>
      <point x="233" y="426" type="curve" smooth="yes"/>
      <point x="273" y="354" type="line" smooth="yes"/>
      <point x="280" y="341"/>
      <point x="306" y="354"/>
    </contour>
    <contour>
      <point x="354" y="345" type="curve" smooth="yes"/>
      <point x="265" y="414" type="line" smooth="yes"/>
      <point x="251" y="425"/>
      <point x="234" y="398"/>
      <point x="247" y="388" type="curve" smooth="yes"/>
      <point x="336" y="316" type="line" smooth="yes"/>
      <point x="351" y="304"/>
      <point x="369" y="333"/>
    </contour>
    <contour>
      <point x="553" y="531" type="curve" smooth="yes"/>
      <point x="355" y="433" type="line" smooth="yes"/>
      <point x="330" y="423"/>
      <point x="347" y="392"/>
      <point x="370" y="401" type="curve" smooth="yes"/>
      <point x="567" y="500" type="line" smooth="yes"/>
      <point x="593" y="511"/>
      <point x="580" y="542"/>
    </contour>
    <contour>
      <point x="547" y="367" type="curve" smooth="yes"/>
      <point x="465" y="374" type="line" smooth="yes"/>
      <point x="433" y="377"/>
      <point x="430" y="341"/>
      <point x="462" y="338" type="curve" smooth="yes"/>
      <point x="545" y="331" type="line" smooth="yes"/>
      <point x="569" y="329"/>
      <point x="573" y="365"/>
    </contour>
    <contour>
      <point x="368" y="-153" type="curve" smooth="yes"/>
      <point x="415" y="-58" type="line" smooth="yes"/>
      <point x="422" y="-45"/>
      <point x="395" y="-31"/>
      <point x="387" y="-44" type="curve" smooth="yes"/>
      <point x="333" y="-133" type="line" smooth="yes"/>
      <point x="325" y="-148"/>
      <point x="361" y="-167"/>
    </contour>
    <contour>
      <point x="477" y="-176" type="curve" smooth="yes"/>
      <point x="521" y="-67" type="line" smooth="yes"/>
      <point x="528" y="-52"/>
      <point x="496" y="-39"/>
      <point x="491" y="-52" type="curve" smooth="yes"/>
      <point x="448" y="-161" type="line" smooth="yes"/>
      <point x="440" y="-178"/>
      <point x="470" y="-190"/>
    </contour>
  </outline>
</glyph>
<glyph name="R" format="2">
  <advance width="545"/>
  <unicode hex="0052"/>
  <anchor x="268" y="0" name="bottom"/>
  <anchor x="282" y="700" name="top"/>
  <outline>
    <contour>
      <point x="77" y="-10" type="line" smooth="yes"/>
      <point x="78" y="-35"/>
      <point x="112" y="-31"/>
      <point x="111" y="-9" type="curve" smooth="yes"/>
      <point x="98" y="285" type="line" smooth="yes"/>
      <point x="97" y="298"/>
      <point x="103" y="308"/>
      <point x="115" y="308" type="curve" smooth="yes"/>
      <point x="162" y="308" type="line" smooth="yes"/>
      <point x="179" y="308"/>
      <point x="193" y="298"/>
      <point x="202" y="285" type="curve" smooth="yes"/>
      <point x="424" y="11" type="line" smooth="yes"/>
      <point x="455" y="-26"/>
      <point x="519" y="-11"/>
      <point x="519" y="40" type="curve" smooth="yes"/>
      <point x="519" y="60"/>
      <point x="512" y="78"/>
      <point x="494" y="91" type="curve" smooth="yes"/>
      <point x="266" y="285" type="line" smooth="yes"/>
      <point x="254" y="294"/>
      <point x="254" y="300"/>
      <point x="263" y="304" type="curve" smooth="yes"/>
      <point x="287" y="309"/>
      <point x="295" y="312"/>
      <point x="345" y="314" type="curve" smooth="yes"/>
      <point x="439" y="326"/>
      <point x="513" y="380"/>
      <point x="514" y="500" type="curve" smooth="yes"/>
      <point x="514" y="637"/>
      <point x="436" y="707"/>
      <point x="300" y="707" type="curve" smooth="yes"/>
      <point x="209" y="707" type="line" smooth="yes"/>
      <point x="125" y="707"/>
      <point x="62" y="658"/>
      <point x="66" y="573" type="curve" smooth="yes"/>
    </contour>
    <contour>
      <point x="94" y="359" type="curve" smooth="yes"/>
      <point x="92" y="535" type="line" smooth="yes"/>
      <point x="89" y="615"/>
      <point x="146" y="655"/>
      <point x="216" y="655" type="curve" smooth="yes"/>
      <point x="301" y="655" type="line" smooth="yes"/>
      <point x="424" y="655"/>
      <point x="486" y="590"/>
      <point x="486" y="493" type="curve" smooth="yes"/>
      <point x="486" y="400"/>
      <point x="421" y="333"/>
      <point x="316" y="333" type="curve" smooth="yes"/>
      <point x="122" y="333" type="line" smooth="yes"/>
      <point x="102" y="333"/>
      <point x="94" y="341"/>
    </contour>
    <contour>
      <point x="467" y="110" type="line"/>
      <point x="467" y="79" type="line" smooth="yes"/>
      <point x="467" y="66"/>
      <point x="437" y="78"/>
      <point x="438" y="93" type="curve" smooth="yes"/>
      <point x="442" y="130" type="line"/>
    </contour>
    <contour>
      <point x="414" y="151" type="line"/>
      <point x="415" y="132" type="line" smooth="yes"/>
      <point x="415" y="116"/>
      <point x="385" y="135"/>
      <point x="388" y="146" type="curve" smooth="yes"/>
      <point x="395" y="169" type="line"/>
    </contour>
    <contour>
      <point x="401" y="218" type="curve" smooth="yes"/>
      <point x="423" y="218"/>
      <point x="441" y="236"/>
      <point x="441" y="258" type="curve" smooth="yes"/>
      <point x="441" y="280"/>
      <point x="423" y="298"/>
      <point x="401" y="298" type="curve" smooth="yes"/>
      <point x="379" y="298"/>
      <point x="361" y="280"/>
      <point x="361" y="258" type="curve" smooth="yes"/>
      <point x="361" y="236"/>
      <point x="379" y="218"/>
    </contour>
    <contour>
      <point x="136" y="20" type="line" smooth="yes"/>
      <point x="158" y="21"/>
      <point x="154" y="51"/>
      <point x="136" y="50" type="curve" smooth="yes"/>
      <point x="58" y="44" type="line" smooth="yes"/>
      <point x="40" y="43"/>
      <point x="44" y="16"/>
      <point x="59" y="16" type="curve" smooth="yes"/>
    </contour>
    <contour>
      <point x="121" y="117" type="line" smooth="yes"/>
      <point x="143" y="117"/>
      <point x="141" y="144"/>
      <point x="122" y="145" type="curve" smooth="yes"/>
      <point x="63" y="149" type="line" smooth="yes"/>
      <point x="43" y="150"/>
      <point x="44" y="117"/>
      <point x="60" y="117" type="curve" smooth="yes"/>
    </contour>
  </outline>
</glyph>
<glyph name="S" format="2">
  <advance width="475"/>
  <unicode hex="0053"/>
  <anchor x="230" y="-10" name="bottom"/>
  <anchor x="212" y="0" name="cedilla"/>
  <anchor x="242.999" y="704.998" name="top"/>
  <outline>
    <contour>
      <point x="231" y="-12" type="curve" smooth="yes"/>
      <point x="362" y="-12"/>
      <point x="439.996" y="60.001"/>
      <point x="440" y="171" type="curve" smooth="yes"/>
      <point x="440" y="262"/>
      <point x="376" y="323"/>
      <point x="284" y="359" type="curve" smooth="yes"/>
      <point x="188" y="395" type="line" smooth="yes"/>
      <point x="121" y="421"/>
      <point x="74" y="458"/>
      <point x="74" y="531" type="curve" smooth="yes"/>
      <point x="74" y="619"/>
      <point x="141" y="666"/>
      <point x="239" y="666" type="curve" smooth="yes"/>
      <point x="300" y="666"/>
      <point x="328" y="634"/>
      <point x="364" y="634" type="curve" smooth="yes"/>
      <point x="380" y="634"/>
      <point x="389" y="644"/>
      <point x="389" y="659" type="curve" smooth="yes"/>
      <point x="389" y="686"/>
      <point x="323" y="715"/>
      <point x="251.993" y="714.996" type="curve" smooth="yes"/>
      <point x="134" y="715"/>
      <point x="48" y="646"/>
      <point x="48" y="530" type="curve" smooth="yes"/>
      <point x="48" y="440"/>
      <point x="104" y="400"/>
      <point x="162" y="370" type="curve" smooth="yes"/>
      <point x="253" y="327" type="line" smooth="yes"/>
      <point x="339" y="281"/>
      <point x="374" y="221"/>
      <point x="374" y="160" type="curve" smooth="yes"/>
      <point x="374" y="80"/>
      <point x="323" y="37"/>
      <point x="239" y="37" type="curve" smooth="yes"/>
      <point x="130" y="37"/>
      <point x="97" y="93"/>
      <point x="64" y="93" type="curve" smooth="yes"/>
      <point x="49" y="93"/>
      <point x="41" y="81"/>
      <point x="45" y="67" type="curve" smooth="yes"/>
      <point x="56" y="33"/>
      <point x="134" y="-12"/>
    </contour>
    <contour>
      <point x="403" y="114" type="curve" smooth="yes"/>
      <point x="396" y="114"/>
      <point x="391" y="119"/>
      <point x="391" y="126" type="curve" smooth="yes"/>
      <point x="391" y="134"/>
      <point x="396" y="138"/>
      <point x="403" y="138" type="curve" smooth="yes"/>
      <point x="410" y="138"/>
      <point x="415" y="134"/>
      <point x="415" y="126" type="curve" smooth="yes"/>
      <point x="415" y="119"/>
      <point x="410" y="114"/>
    </contour>
    <contour>
      <point x="404" y="171" type="curve" smooth="yes"/>
      <point x="395" y="171"/>
      <point x="390" y="177"/>
      <point x="390" y="185" type="curve" smooth="yes"/>
      <point x="390" y="193"/>
      <point x="395" y="199"/>
      <point x="404" y="199" type="curve" smooth="yes"/>
      <point x="412" y="199"/>
      <point x="417" y="193"/>
      <point x="417" y="185" type="curve" smooth="yes"/>
      <point x="417" y="177"/>
      <point x="412" y="171"/>
    </contour>
    <contour>
      <point x="381" y="218" type="curve" smooth="yes"/>
      <point x="375" y="218"/>
      <point x="370" y="223"/>
      <point x="370" y="230" type="curve" smooth="yes"/>
      <point x="370" y="236"/>
      <point x="375" y="241"/>
      <point x="381" y="241" type="curve" smooth="yes"/>
      <point x="388" y="241"/>
      <point x="393" y="236"/>
      <point x="393" y="230" type="curve" smooth="yes"/>
      <point x="393" y="223"/>
      <point x="388" y="218"/>
    </contour>
    <contour>
      <point x="299" y="562" type="curve" smooth="yes"/>
      <point x="311" y="562"/>
      <point x="319" y="571"/>
      <point x="319" y="582" type="curve" smooth="yes"/>
      <point x="319" y="594"/>
      <point x="311" y="603"/>
      <point x="299" y="603" type="curve" smooth="yes"/>
      <point x="288" y="603"/>
      <point x="278" y="594"/>
      <point x="278" y="582" type="curve" smooth="yes"/>
      <point x="278" y="571"/>
      <point x="288" y="562"/>
    </contour>
    <contour>
      <point x="156" y="-26" type="curve" smooth="yes"/>
      <point x="170" y="83" type="line" smooth="yes"/>
      <point x="174" y="104"/>
      <point x="144" y="111"/>
      <point x="138" y="90" type="curve" smooth="yes"/>
      <point x="120" y="-18" type="line" smooth="yes"/>
      <point x="112" y="-45"/>
      <point x="151" y="-50"/>
    </contour>
    <contour>
      <point x="296" y="-17" type="curve" smooth="yes"/>
      <point x="274" y="61" type="line" smooth="yes"/>
      <point x="269" y="82"/>
      <point x="240" y="76"/>
      <point x="244" y="54" type="curve" smooth="yes"/>
      <point x="264" y="-25" type="line" smooth="yes"/>
      <point x="269" y="-53"/>
      <point x="302" y="-41"/>
    </contour>
    <contour>
      <point x="226" y="306" type="curve" smooth="yes"/>
      <point x="258" y="350" type="line"/>
      <point x="233" y="363" type="line"/>
      <point x="197" y="323" type="line" smooth="yes"/>
      <point x="184" y="305"/>
      <point x="214" y="286"/>
    </contour>
    <contour>
      <point x="44" y="615" type="curve" smooth="yes"/>
      <point x="109" y="588" type="line" smooth="yes"/>
      <point x="123" y="583"/>
      <point x="132" y="609"/>
      <point x="120" y="615" type="curve" smooth="yes"/>
      <point x="56" y="645" type="line" smooth="yes"/>
      <point x="39" y="654"/>
      <point x="25" y="622"/>
    </contour>
    <contour>
      <point x="113" y="688" type="curve" smooth="yes"/>
      <point x="136.998" y="659.008" type="line"/>
      <point x="160.994" y="676" type="line"/>
      <point x="137" y="708" type="line" smooth="yes"/>
      <point x="126" y="722"/>
      <point x="100" y="703"/>
    </contour>
  </outline>
</glyph>
<glyph name="T" format="2">
  <advance width="396"/>
  <unicode hex="0054"/>
  <anchor x="220" y="25" name="bottom"/>
  <anchor x="202" y="20" name="cedilla"/>
  <anchor x="198.993" y="692.003" name="top"/>
  <outline>
    <contour>
      <point x="178" y="35" type="line" smooth="yes"/>
      <point x="176" y="-19"/>
      <point x="253" y="-7"/>
      <point x="248" y="41" type="curve" smooth="yes"/>
      <point x="210" y="620" type="line" smooth="yes"/>
      <point x="209" y="636"/>
      <point x="215" y="645"/>
      <point x="232" y="646" type="curve" smooth="yes"/>
      <point x="379" y="657" type="line" smooth="yes"/>
      <point x="396" y="658"/>
      <point x="402" y="672"/>
      <point x="402" y="683" type="curve" smooth="yes"/>
      <point x="402" y="697"/>
      <point x="396" y="710"/>
      <point x="377" y="710" type="curve" smooth="yes"/>
      <point x="36" y="690" type="line" smooth="yes"/>
      <point x="14" y="690"/>
      <point x="7" y="676"/>
      <point x="7" y="659" type="curve" smooth="yes"/>
      <point x="7" y="645"/>
      <point x="15" y="629"/>
      <point x="38" y="630" type="curve" smooth="yes"/>
      <point x="168" y="641" type="line" smooth="yes"/>
      <point x="183" y="642"/>
      <point x="188" y="634"/>
      <point x="188" y="619" type="curve" smooth="yes"/>
    </contour>
    <contour>
      <point x="237" y="241" type="line"/>
      <point x="221" y="238" type="line" smooth="yes"/>
      <point x="208" y="236"/>
      <point x="206" y="277"/>
      <point x="221" y="278" type="curve" smooth="yes"/>
      <point x="235" y="280" type="line"/>
    </contour>
    <contour>
      <point x="180" y="206" type="line"/>
      <point x="202" y="209" type="line" smooth="yes"/>
      <point x="212" y="211"/>
      <point x="215" y="172"/>
      <point x="202" y="169" type="curve" smooth="yes"/>
      <point x="179" y="163" type="line"/>
    </contour>
    <contour>
      <point x="179" y="125" type="line"/>
      <point x="210" y="123" type="line" smooth="yes"/>
      <point x="220" y="122"/>
      <point x="218" y="86"/>
      <point x="208" y="86" type="curve" smooth="yes"/>
      <point x="178" y="85" type="line"/>
    </contour>
    <contour>
      <point x="254" y="602" type="curve" smooth="yes"/>
      <point x="269" y="602"/>
      <point x="282" y="615"/>
      <point x="282" y="630" type="curve" smooth="yes"/>
      <point x="282" y="645"/>
      <point x="269" y="658"/>
      <point x="254" y="658" type="curve" smooth="yes"/>
      <point x="239" y="658"/>
      <point x="226" y="645"/>
      <point x="226" y="630" type="curve" smooth="yes"/>
      <point x="226" y="615"/>
      <point x="239" y="602"/>
    </contour>
    <contour>
      <point x="204" y="542" type="line"/>
      <point x="160" y="539" type="line" smooth="yes"/>
      <point x="139" y="538"/>
      <point x="140" y="504"/>
      <point x="160" y="505" type="curve" smooth="yes"/>
      <point x="206" y="507" type="line"/>
    </contour>
    <contour>
      <point x="204" y="444" type="line"/>
      <point x="170" y="446" type="line" smooth="yes"/>
      <point x="153" y="448"/>
      <point x="147" y="416"/>
      <point x="164" y="413" type="curve" smooth="yes"/>
      <point x="200" y="408" type="line"/>
    </contour>
  </outline>
</glyph>
<glyph name="U" format="2">
  <advance width="558"/>
  <unicode hex="0055"/>
  <anchor x="370" y="0" name="ogonek"/>
  <anchor x="289" y="683" name="top"/>
  <outline>
    <contour>
      <point x="273" y="-6" type="curve" smooth="yes"/>
      <point x="421" y="-6"/>
      <point x="486" y="83"/>
      <point x="492" y="226" type="curve" smooth="yes"/>
      <point x="507" y="638" type="line" smooth="yes"/>
      <point x="510" y="704"/>
      <point x="399" y="709"/>
      <point x="403" y="639" type="curve" smooth="yes"/>
      <point x="423" y="214" type="line" smooth="yes"/>
      <point x="429" y="79"/>
      <point x="375" y="19"/>
      <point x="273" y="19" type="curve" smooth="yes"/>
      <point x="172" y="19"/>
      <point x="104" y="83"/>
      <point x="109" y="230" type="curve" smooth="yes"/>
      <point x="124" y="691" type="line" smooth="yes"/>
      <point x="125" y="714"/>
      <point x="101" y="716"/>
      <point x="100" y="693" type="curve" smooth="yes"/>
      <point x="78" y="228" type="line" smooth="yes"/>
      <point x="70" y="55"/>
      <point x="152" y="-6"/>
    </contour>
    <contour>
      <point x="406" y="526" type="line"/>
      <point x="432" y="530" type="line" smooth="yes"/>
      <point x="447" y="533"/>
      <point x="448" y="487"/>
      <point x="435" y="484" type="curve" smooth="yes"/>
      <point x="408" y="478" type="line"/>
    </contour>
    <contour>
      <point x="409" y="456" type="line"/>
      <point x="432" y="458" type="line" smooth="yes"/>
      <point x="447" y="460"/>
      <point x="446" y="408"/>
      <point x="434" y="408" type="curve" smooth="yes"/>
      <point x="411" y="408" type="line"/>
    </contour>
    <contour>
      <point x="499" y="404" type="line"/>
      <point x="497" y="368" type="line"/>
      <point x="478" y="366" type="line" smooth="yes"/>
      <point x="464" y="365"/>
      <point x="465" y="400"/>
      <point x="477" y="401" type="curve" smooth="yes"/>
    </contour>
    <contour>
      <point x="208" y="128" type="curve" smooth="yes"/>
      <point x="223" y="128"/>
      <point x="235" y="140"/>
      <point x="235" y="155" type="curve" smooth="yes"/>
      <point x="235" y="170"/>
      <point x="223" y="182"/>
      <point x="208" y="182" type="curve" smooth="yes"/>
      <point x="193" y="182"/>
      <point x="181" y="170"/>
      <point x="181" y="155" type="curve" smooth="yes"/>
      <point x="181" y="140"/>
      <point x="193" y="128"/>
    </contour>
    <contour>
      <point x="359" y="598" type="curve" smooth="yes"/>
      <point x="234" y="593" type="line" smooth="yes"/>
      <point x="210" y="592"/>
      <point x="207" y="554"/>
      <point x="235" y="556" type="curve" smooth="yes"/>
      <point x="359" y="564" type="line" smooth="yes"/>
      <point x="386" y="566"/>
      <point x="383" y="598"/>
    </contour>
    <contour>
      <point x="170" y="488" type="curve" smooth="yes"/>
      <point x="101.994" y="490" type="line"/>
      <point x="101" y="464" type="line"/>
      <point x="167" y="459" type="line" smooth="yes"/>
      <point x="188" y="457"/>
      <point x="189" y="487"/>
    </contour>
    <contour>
      <point x="331" y="404" type="curve" smooth="yes"/>
      <point x="244" y="399" type="line" smooth="yes"/>
      <point x="224" y="398"/>
      <point x="225" y="360"/>
      <point x="248" y="362" type="curve" smooth="yes"/>
      <point x="329" y="368" type="line" smooth="yes"/>
      <point x="353" y="370"/>
      <point x="352" y="406"/>
    </contour>
    <contour>
      <point x="430" y="22" type="curve" smooth="yes"/>
      <point x="386" y="104" type="line" smooth="yes"/>
      <point x="375" y="124"/>
      <point x="344" y="104"/>
      <point x="357" y="83" type="curve" smooth="yes"/>
      <point x="401" y="4" type="line" smooth="yes"/>
      <point x="415" y="-18"/>
      <point x="442" y="1"/>
    </contour>
  </outline>
</glyph>
